<ttFont>
    <TTGlyph name="A" xMin="25" yMin="-103" xMax="582" yMax="705">
      <contour>
        <pt x="582" y="-85" on="1"/>
        <pt x="570" y="-92" on="0"/>
        <pt x="545" y="-100" on="0"/>
        <pt x="526" y="-103" on="1"/>
        <pt x="510" y="3" on="0"/>
        <pt x="479" y="166" on="0"/>
        <pt x="462" y="233" on="1"/>
        <pt x="390" y="234" on="0"/>
        <pt x="249" y="225" on="0"/>
        <pt x="187" y="215" on="1"/>
        <pt x="166" y="162" on="0"/>
        <pt x="112" y="47" on="0"/>
        <pt x="77" y="-20" on="1"/>
        <pt x="63" y="-17" on="0"/>
        <pt x="41" y="-6" on="0"/>
        <pt x="25" y="8" on="1"/>
        <pt x="117" y="169" on="0"/>
        <pt x="229" y="472" on="0"/>
        <pt x="280" y="705" on="1"/>
        <pt x="313" y="702" on="0"/>
        <pt x="334" y="700" on="0"/>
        <pt x="343" y="698" on="1"/>
        <pt x="445" y="495" on="0"/>
        <pt x="547" y="156" on="0"/>
      </contour>
      <contour>
        <pt x="314" y="636" on="1"/>
        <pt x="288" y="521" on="0"/>
        <pt x="237" y="344" on="0"/>
        <pt x="205" y="261" on="1"/>
        <pt x="260" y="269" on="0"/>
        <pt x="386" y="279" on="0"/>
        <pt x="451" y="280" on="1"/>
        <pt x="424" y="376" on="0"/>
        <pt x="360" y="545" on="0"/>
      </contour>
    </TTGlyph>
    <TTGlyph name="AE" xMin="27" yMin="-45" xMax="764" yMax="731">
      <contour>
        <pt x="762" y="-18" on="1"/>
        <pt x="676" y="-30" on="0"/>
        <pt x="525" y="-42" on="0"/>
        <pt x="425" y="-45" on="1"/>
        <pt x="416" y="15" on="0"/>
        <pt x="399" y="143" on="0"/>
        <pt x="392" y="208" on="1"/>
        <pt x="340" y="207" on="0"/>
        <pt x="238" y="197" on="0"/>
        <pt x="192" y="189" on="1"/>
        <pt x="170" y="141" on="0"/>
        <pt x="115" y="36" on="0"/>
        <pt x="79" y="-25" on="1"/>
        <pt x="63" y="-21" on="0"/>
        <pt x="40" y="-8" on="0"/>
        <pt x="27" y="5" on="1"/>
        <pt x="130" y="169" on="0"/>
        <pt x="258" y="475" on="0"/>
        <pt x="315" y="698" on="1"/>
        <pt x="328" y="697" on="0"/>
        <pt x="352" y="693" on="0"/>
        <pt x="363" y="690" on="1"/>
        <pt x="499" y="713" on="0"/>
        <pt x="653" y="729" on="0"/>
        <pt x="739" y="731" on="1"/>
        <pt x="740" y="718" on="0"/>
        <pt x="738" y="695" on="0"/>
        <pt x="736" y="684" on="1"/>
        <pt x="654" y="683" on="0"/>
        <pt x="499" y="668" on="0"/>
        <pt x="417" y="653" on="1"/>
        <pt x="416" y="580" on="0"/>
        <pt x="421" y="445" on="0"/>
        <pt x="427" y="372" on="1"/>
        <pt x="561" y="393" on="0"/>
        <pt x="646" y="404" on="0"/>
        <pt x="689" y="408" on="1"/>
        <pt x="692" y="396" on="0"/>
        <pt x="694" y="374" on="0"/>
        <pt x="693" y="363" on="1"/>
        <pt x="617" y="357" on="0"/>
        <pt x="507" y="343" on="0"/>
        <pt x="431" y="329" on="1"/>
        <pt x="439" y="245" on="0"/>
        <pt x="460" y="78" on="0"/>
        <pt x="472" y="0" on="1"/>
        <pt x="567" y="3" on="0"/>
        <pt x="695" y="18" on="0"/>
        <pt x="760" y="32" on="1"/>
        <pt x="763" y="21" on="0"/>
        <pt x="764" y="-8" on="0"/>
      </contour>
      <contour>
        <pt x="358" y="654" on="1"/>
        <pt x="324" y="526" on="0"/>
        <pt x="255" y="327" on="0"/>
        <pt x="214" y="235" on="1"/>
        <pt x="253" y="242" on="0"/>
        <pt x="341" y="251" on="0"/>
        <pt x="387" y="253" on="1"/>
        <pt x="375" y="364" on="0"/>
        <pt x="360" y="570" on="0"/>
      </contour>
    </TTGlyph>
    <TTGlyph name="Aacute" xMin="25" yMin="-103" xMax="582" yMax="927">
      <component glyphName="A" x="0" y="0" flags="0x204"/>
      <component glyphName="acute" x="220" y="176" flags="0x4"/>
    </TTGlyph>
    <TTGlyph name="Abreve" xMin="25" yMin="-103" xMax="582" yMax="879">
      <component glyphName="A" x="0" y="0" flags="0x204"/>
      <component glyphName="breve" x="179" y="140" flags="0x4"/>
    </TTGlyph>
    <TTGlyph name="Acircumflex" xMin="25" yMin="-103" xMax="582" yMax="897">
      <component glyphName="A" x="0" y="0" flags="0x204"/>
      <component glyphName="circumflex" x="187" y="158" flags="0x4"/>
    </TTGlyph>
    <TTGlyph name="Adieresis" xMin="25" yMin="-103" xMax="582" yMax="868">
      <component glyphName="A" x="0" y="0" flags="0x204"/>
      <component glyphName="dieresis" x="185" y="123" flags="0x4"/>
    </TTGlyph>
    <TTGlyph name="Agrave" xMin="25" yMin="-103" xMax="582" yMax="928">
      <component glyphName="A" x="0" y="0" flags="0x204"/>
      <component glyphName="grave" x="152" y="175" flags="0x4"/>
    </TTGlyph>
    <TTGlyph name="Amacron" xMin="25" yMin="-103" xMax="582" yMax="817">
      <component glyphName="A" x="0" y="0" flags="0x204"/>
      <component glyphName="macron" x="179" y="119" flags="0x4"/>
    </TTGlyph>
    <TTGlyph name="Aogonek" xMin="25" yMin="-289" xMax="633" yMax="705">
      <contour>
        <pt x="633" y="-232" on="1"/>
        <pt x="614" y="-262" on="0"/>
        <pt x="568" y="-289" on="0"/>
        <pt x="537" y="-289" on="1"/>
        <pt x="502" y="-289" on="0"/>
        <pt x="460" y="-248" on="0"/>
        <pt x="460" y="-215" on="1"/>
        <pt x="460" y="-184" on="0"/>
        <pt x="492" y="-126" on="0"/>
        <pt x="525" y="-99" on="1"/>
        <pt x="512" y="-6" on="0"/>
        <pt x="480" y="159" on="0"/>
        <pt x="462" y="233" on="1"/>
        <pt x="390" y="234" on="0"/>
        <pt x="249" y="225" on="0"/>
        <pt x="187" y="215" on="1"/>
        <pt x="166" y="162" on="0"/>
        <pt x="112" y="47" on="0"/>
        <pt x="77" y="-20" on="1"/>
        <pt x="63" y="-17" on="0"/>
        <pt x="41" y="-6" on="0"/>
        <pt x="25" y="8" on="1"/>
        <pt x="117" y="169" on="0"/>
        <pt x="229" y="472" on="0"/>
        <pt x="280" y="705" on="1"/>
        <pt x="313" y="702" on="0"/>
        <pt x="334" y="700" on="0"/>
        <pt x="343" y="698" on="1"/>
        <pt x="445" y="495" on="0"/>
        <pt x="547" y="156" on="0"/>
        <pt x="582" y="-85" on="1"/>
        <pt x="547" y="-118" on="0"/>
        <pt x="515" y="-173" on="0"/>
        <pt x="515" y="-202" on="1"/>
        <pt x="515" y="-221" on="0"/>
        <pt x="534" y="-241" on="0"/>
        <pt x="551" y="-241" on="1"/>
        <pt x="569" y="-241" on="0"/>
        <pt x="598" y="-219" on="0"/>
        <pt x="610" y="-196" on="1"/>
        <pt x="618" y="-202" on="0"/>
        <pt x="628" y="-219" on="0"/>
      </contour>
      <contour>
        <pt x="314" y="636" on="1"/>
        <pt x="288" y="521" on="0"/>
        <pt x="237" y="344" on="0"/>
        <pt x="205" y="261" on="1"/>
        <pt x="260" y="269" on="0"/>
        <pt x="386" y="279" on="0"/>
        <pt x="451" y="280" on="1"/>
        <pt x="424" y="376" on="0"/>
        <pt x="360" y="545" on="0"/>
      </contour>
    </TTGlyph>
    <TTGlyph name="Aring" xMin="25" yMin="-103" xMax="582" yMax="930">
      <component glyphName="A" x="0" y="0" flags="0x204"/>
      <component glyphName="ring" x="192" y="165" flags="0x4"/>
    </TTGlyph>
    <TTGlyph name="Atilde" xMin="25" yMin="-103" xMax="582" yMax="834">
      <component glyphName="A" x="0" y="0" flags="0x204"/>
      <component glyphName="tilde" x="180" y="104" flags="0x4"/>
    </TTGlyph>
    <TTGlyph name="B" xMin="71" yMin="-20" xMax="519" yMax="740">
      <contour>
        <pt x="519" y="258" on="1"/>
        <pt x="519" y="143" on="0"/>
        <pt x="339" y="-20" on="0"/>
        <pt x="209" y="-20" on="1"/>
        <pt x="174" y="-20" on="0"/>
        <pt x="105" y="-2" on="0"/>
        <pt x="84" y="12" on="1"/>
        <pt x="77" y="208" on="0"/>
        <pt x="72" y="421" on="0"/>
        <pt x="72" y="538" on="1"/>
        <pt x="72" y="550" on="0"/>
        <pt x="72" y="577" on="0"/>
        <pt x="72" y="606" on="1"/>
        <pt x="71" y="643" on="0"/>
        <pt x="71" y="685" on="0"/>
        <pt x="71" y="705" on="1"/>
        <pt x="109" y="722" on="0"/>
        <pt x="195" y="740" on="0"/>
        <pt x="240" y="740" on="1"/>
        <pt x="348" y="740" on="0"/>
        <pt x="469" y="654" on="0"/>
        <pt x="469" y="577" on="1"/>
        <pt x="469" y="524" on="0"/>
        <pt x="408" y="444" on="0"/>
        <pt x="348" y="417" on="1"/>
        <pt x="432" y="407" on="0"/>
        <pt x="519" y="326" on="0"/>
      </contour>
      <contour>
        <pt x="409" y="572" on="1"/>
        <pt x="409" y="631" on="0"/>
        <pt x="325" y="696" on="0"/>
        <pt x="247" y="696" on="1"/>
        <pt x="218" y="696" on="0"/>
        <pt x="161" y="688" on="0"/>
        <pt x="135" y="680" on="1"/>
        <pt x="130" y="615" on="0"/>
        <pt x="126" y="480" on="0"/>
        <pt x="127" y="403" on="1"/>
        <pt x="274" y="415" on="0"/>
        <pt x="409" y="495" on="0"/>
      </contour>
      <contour>
        <pt x="135" y="42" on="1"/>
        <pt x="154" y="34" on="0"/>
        <pt x="196" y="25" on="0"/>
        <pt x="218" y="25" on="1"/>
        <pt x="317" y="25" on="0"/>
        <pt x="459" y="155" on="0"/>
        <pt x="459" y="243" on="1"/>
        <pt x="459" y="314" on="0"/>
        <pt x="377" y="382" on="0"/>
        <pt x="294" y="382" on="1"/>
        <pt x="256" y="382" on="0"/>
        <pt x="161" y="365" on="0"/>
        <pt x="127" y="353" on="1"/>
        <pt x="128" y="336" on="0"/>
        <pt x="128" y="299" on="0"/>
        <pt x="128" y="265" on="1"/>
        <pt x="128" y="194" on="0"/>
        <pt x="131" y="92" on="0"/>
      </contour>
    </TTGlyph>
    <TTGlyph name="C" xMin="48" yMin="-35" xMax="475" yMax="693">
      <contour>
        <pt x="422" y="220" on="1"/>
        <pt x="437" y="220" on="0"/>
        <pt x="458" y="216" on="0"/>
        <pt x="472" y="210" on="1"/>
        <pt x="466" y="90" on="0"/>
        <pt x="363" y="-35" on="0"/>
        <pt x="270" y="-35" on="1"/>
        <pt x="164" y="-35" on="0"/>
        <pt x="48" y="132" on="0"/>
        <pt x="48" y="285" on="1"/>
        <pt x="48" y="468" on="0"/>
        <pt x="193" y="693" on="0"/>
        <pt x="312" y="693" on="1"/>
        <pt x="397" y="693" on="0"/>
        <pt x="475" y="581" on="0"/>
        <pt x="470" y="464" on="1"/>
        <pt x="461" y="457" on="0"/>
        <pt x="428" y="449" on="0"/>
        <pt x="411" y="450" on="1"/>
        <pt x="419" y="555" on="0"/>
        <pt x="368" y="646" on="0"/>
        <pt x="302" y="646" on="1"/>
        <pt x="255" y="646" on="0"/>
        <pt x="172" y="575" on="0"/>
        <pt x="145" y="511" on="1"/>
        <pt x="127" y="467" on="0"/>
        <pt x="108" y="359" on="0"/>
        <pt x="108" y="296" on="1"/>
        <pt x="108" y="159" on="0"/>
        <pt x="193" y="12" on="0"/>
        <pt x="273" y="12" on="1"/>
        <pt x="345" y="12" on="0"/>
        <pt x="424" y="124" on="0"/>
      </contour>
    </TTGlyph>
    <TTGlyph name="Cacute" xMin="48" yMin="-35" xMax="475" yMax="932">
      <component glyphName="C" x="0" y="0" flags="0x204"/>
      <component glyphName="acute" x="215" y="181" flags="0x4"/>
    </TTGlyph>
    <TTGlyph name="Ccaron" xMin="48" yMin="-35" xMax="475" yMax="891">
      <component glyphName="C" x="0" y="0" flags="0x204"/>
      <component glyphName="caron" x="178" y="157" flags="0x4"/>
    </TTGlyph>
    <TTGlyph name="Ccedilla" xMin="48" yMin="-250" xMax="475" yMax="693">
      <component glyphName="C" x="0" y="0" flags="0x204"/>
      <component glyphName="cedilla" x="141" y="-25" flags="0x4"/>
    </TTGlyph>
    <TTGlyph name="D" xMin="68" yMin="-12" xMax="522" yMax="717">
      <contour>
        <pt x="522" y="445" on="1"/>
        <pt x="522" y="292" on="0"/>
        <pt x="313" y="47" on="0"/>
        <pt x="131" y="-12" on="1"/>
        <pt x="131" y="-12" on="0"/>
        <pt x="124" y="-11" on="0"/>
        <pt x="113" y="-9" on="1"/>
        <pt x="94" y="-7" on="0"/>
        <pt x="82" y="-5" on="0"/>
        <pt x="81" y="-5" on="1"/>
        <pt x="74" y="142" on="0"/>
        <pt x="68" y="377" on="0"/>
        <pt x="68" y="508" on="1"/>
        <pt x="68" y="550" on="0"/>
        <pt x="70" y="643" on="0"/>
        <pt x="71" y="678" on="1"/>
        <pt x="109" y="698" on="0"/>
        <pt x="198" y="717" on="0"/>
        <pt x="249" y="717" on="1"/>
        <pt x="382" y="717" on="0"/>
        <pt x="522" y="577" on="0"/>
      </contour>
      <contour>
        <pt x="134" y="652" on="1"/>
        <pt x="129" y="572" on="0"/>
        <pt x="125" y="440" on="0"/>
        <pt x="125" y="236" on="1"/>
        <pt x="125" y="170" on="0"/>
        <pt x="127" y="78" on="0"/>
        <pt x="129" y="35" on="1"/>
        <pt x="293" y="96" on="0"/>
        <pt x="461" y="305" on="0"/>
        <pt x="461" y="448" on="1"/>
        <pt x="461" y="557" on="0"/>
        <pt x="346" y="670" on="0"/>
        <pt x="234" y="670" on="1"/>
        <pt x="206" y="670" on="0"/>
        <pt x="157" y="661" on="0"/>
      </contour>
    </TTGlyph>
    <TTGlyph name="Dcaron" xMin="68" yMin="-12" xMax="522" yMax="916">
      <component glyphName="D" x="0" y="0" flags="0x204"/>
      <component glyphName="caron" x="127" y="182" flags="0x4"/>
    </TTGlyph>
    <TTGlyph name="Dcroat" xMin="-27" yMin="-12" xMax="522" yMax="717">
      <component glyphName="Eth" x="0" y="0" flags="0x204"/>
    </TTGlyph>
    <TTGlyph name="E" xMin="58" yMin="-41" xMax="465" yMax="735">
      <contour>
        <pt x="463" y="-14" on="1"/>
        <pt x="377" y="-26" on="0"/>
        <pt x="226" y="-38" on="0"/>
        <pt x="126" y="-41" on="1"/>
        <pt x="97" y="156" on="0"/>
        <pt x="60" y="549" on="0"/>
        <pt x="58" y="693" on="1"/>
        <pt x="192" y="716" on="0"/>
        <pt x="350" y="733" on="0"/>
        <pt x="440" y="735" on="1"/>
        <pt x="441" y="722" on="0"/>
        <pt x="439" y="699" on="0"/>
        <pt x="437" y="688" on="1"/>
        <pt x="355" y="687" on="0"/>
        <pt x="200" y="672" on="0"/>
        <pt x="118" y="657" on="1"/>
        <pt x="117" y="584" on="0"/>
        <pt x="122" y="449" on="0"/>
        <pt x="128" y="376" on="1"/>
        <pt x="262" y="397" on="0"/>
        <pt x="347" y="408" on="0"/>
        <pt x="390" y="412" on="1"/>
        <pt x="393" y="400" on="0"/>
        <pt x="395" y="378" on="0"/>
        <pt x="394" y="367" on="1"/>
        <pt x="318" y="361" on="0"/>
        <pt x="208" y="347" on="0"/>
        <pt x="132" y="333" on="1"/>
        <pt x="140" y="249" on="0"/>
        <pt x="161" y="82" on="0"/>
        <pt x="173" y="4" on="1"/>
        <pt x="268" y="7" on="0"/>
        <pt x="396" y="22" on="0"/>
        <pt x="461" y="36" on="1"/>
        <pt x="464" y="25" on="0"/>
        <pt x="465" y="-4" on="0"/>
      </contour>
    </TTGlyph>
    <TTGlyph name="Eacute" xMin="58" yMin="-41" xMax="465" yMax="941">
      <component glyphName="E" x="0" y="0" flags="0x204"/>
      <component glyphName="acute" x="125" y="190" flags="0x4"/>
    </TTGlyph>
    <TTGlyph name="Ecaron" xMin="58" yMin="-41" xMax="465" yMax="934">
      <component glyphName="E" x="0" y="0" flags="0x204"/>
      <component glyphName="caron" x="119" y="200" flags="0x4"/>
    </TTGlyph>
    <TTGlyph name="Ecircumflex" xMin="58" yMin="-41" xMax="465" yMax="923">
      <component glyphName="E" x="0" y="0" flags="0x204"/>
      <component glyphName="circumflex" x="121" y="184" flags="0x4"/>
    </TTGlyph>
    <TTGlyph name="Edieresis" xMin="58" yMin="-41" xMax="465" yMax="891">
      <component glyphName="E" x="0" y="0" flags="0x204"/>
      <component glyphName="dieresis" x="120" y="146" flags="0x4"/>
    </TTGlyph>
    <TTGlyph name="Edotaccent" xMin="58" yMin="-41" xMax="465" yMax="897">
      <component glyphName="E" x="0" y="0" flags="0x204"/>
      <component glyphName="dotaccent" x="120" y="152" flags="0x4"/>
    </TTGlyph>
    <TTGlyph name="Egrave" xMin="58" yMin="-41" xMax="465" yMax="938">
      <component glyphName="E" x="0" y="0" flags="0x204"/>
      <component glyphName="grave" x="107" y="185" flags="0x4"/>
    </TTGlyph>
    <TTGlyph name="Emacron" xMin="58" yMin="-41" xMax="465" yMax="843">
      <component glyphName="E" x="0" y="0" flags="0x204"/>
      <component glyphName="macron" x="113" y="145" flags="0x4"/>
    </TTGlyph>
    <TTGlyph name="Eogonek" xMin="58" yMin="-218" xMax="514" yMax="735">
      <contour>
        <pt x="514" y="-161" on="1"/>
        <pt x="495" y="-191" on="0"/>
        <pt x="449" y="-218" on="0"/>
        <pt x="418" y="-218" on="1"/>
        <pt x="383" y="-218" on="0"/>
        <pt x="341" y="-177" on="0"/>
        <pt x="341" y="-144" on="1"/>
        <pt x="341" y="-111" on="0"/>
        <pt x="378" y="-50" on="0"/>
        <pt x="416" y="-20" on="1"/>
        <pt x="347" y="-28" on="0"/>
        <pt x="218" y="-38" on="0"/>
        <pt x="126" y="-41" on="1"/>
        <pt x="97" y="156" on="0"/>
        <pt x="60" y="549" on="0"/>
        <pt x="58" y="693" on="1"/>
        <pt x="192" y="716" on="0"/>
        <pt x="350" y="733" on="0"/>
        <pt x="440" y="735" on="1"/>
        <pt x="441" y="722" on="0"/>
        <pt x="439" y="699" on="0"/>
        <pt x="437" y="688" on="1"/>
        <pt x="355" y="687" on="0"/>
        <pt x="200" y="672" on="0"/>
        <pt x="118" y="657" on="1"/>
        <pt x="117" y="584" on="0"/>
        <pt x="122" y="449" on="0"/>
        <pt x="128" y="376" on="1"/>
        <pt x="262" y="397" on="0"/>
        <pt x="347" y="408" on="0"/>
        <pt x="390" y="412" on="1"/>
        <pt x="393" y="400" on="0"/>
        <pt x="395" y="378" on="0"/>
        <pt x="394" y="367" on="1"/>
        <pt x="318" y="361" on="0"/>
        <pt x="208" y="347" on="0"/>
        <pt x="132" y="333" on="1"/>
        <pt x="140" y="249" on="0"/>
        <pt x="161" y="82" on="0"/>
        <pt x="173" y="4" on="1"/>
        <pt x="268" y="7" on="0"/>
        <pt x="396" y="22" on="0"/>
        <pt x="461" y="36" on="1"/>
        <pt x="464" y="25" on="0"/>
        <pt x="465" y="-4" on="0"/>
        <pt x="463" y="-14" on="1"/>
        <pt x="428" y="-47" on="0"/>
        <pt x="396" y="-102" on="0"/>
        <pt x="396" y="-131" on="1"/>
        <pt x="396" y="-150" on="0"/>
        <pt x="415" y="-170" on="0"/>
        <pt x="432" y="-170" on="1"/>
        <pt x="450" y="-170" on="0"/>
        <pt x="479" y="-148" on="0"/>
        <pt x="491" y="-125" on="1"/>
        <pt x="499" y="-131" on="0"/>
        <pt x="509" y="-148" on="0"/>
      </contour>
    </TTGlyph>
    <TTGlyph name="Eth" xMin="-27" yMin="-12" xMax="522" yMax="717">
      <contour>
        <pt x="125" y="349" on="1"/>
        <pt x="125" y="321" on="0"/>
        <pt x="125" y="264" on="0"/>
        <pt x="125" y="236" on="1"/>
        <pt x="125" y="170" on="0"/>
        <pt x="127" y="78" on="0"/>
        <pt x="129" y="35" on="1"/>
        <pt x="293" y="96" on="0"/>
        <pt x="461" y="305" on="0"/>
        <pt x="461" y="448" on="1"/>
        <pt x="461" y="557" on="0"/>
        <pt x="346" y="670" on="0"/>
        <pt x="234" y="670" on="1"/>
        <pt x="207" y="670" on="0"/>
        <pt x="156" y="662" on="0"/>
        <pt x="134" y="654" on="1"/>
        <pt x="129" y="577" on="0"/>
        <pt x="125" y="455" on="0"/>
        <pt x="125" y="392" on="1"/>
        <pt x="161" y="393" on="0"/>
        <pt x="239" y="401" on="0"/>
        <pt x="290" y="410" on="1"/>
        <pt x="291" y="401" on="0"/>
        <pt x="290" y="378" on="0"/>
        <pt x="288" y="365" on="1"/>
        <pt x="246" y="358" on="0"/>
        <pt x="165" y="350" on="0"/>
      </contour>
      <contour>
        <pt x="522" y="445" on="1"/>
        <pt x="522" y="292" on="0"/>
        <pt x="313" y="47" on="0"/>
        <pt x="131" y="-12" on="1"/>
        <pt x="131" y="-12" on="0"/>
        <pt x="124" y="-11" on="0"/>
        <pt x="113" y="-9" on="1"/>
        <pt x="94" y="-7" on="0"/>
        <pt x="82" y="-5" on="0"/>
        <pt x="81" y="-5" on="1"/>
        <pt x="77" y="83" on="0"/>
        <pt x="71" y="250" on="0"/>
        <pt x="69" y="349" on="1"/>
        <pt x="46" y="350" on="0"/>
        <pt x="-2" y="353" on="0"/>
        <pt x="-27" y="355" on="1"/>
        <pt x="-27" y="377" on="0"/>
        <pt x="-26" y="393" on="0"/>
        <pt x="-25" y="400" on="1"/>
        <pt x="-2" y="397" on="0"/>
        <pt x="44" y="394" on="0"/>
        <pt x="69" y="393" on="1"/>
        <pt x="68" y="413" on="0"/>
        <pt x="68" y="460" on="0"/>
        <pt x="68" y="508" on="1"/>
        <pt x="68" y="550" on="0"/>
        <pt x="70" y="643" on="0"/>
        <pt x="71" y="678" on="1"/>
        <pt x="111" y="697" on="0"/>
        <pt x="196" y="717" on="0"/>
        <pt x="234" y="717" on="1"/>
        <pt x="377" y="717" on="0"/>
        <pt x="522" y="580" on="0"/>
      </contour>
    </TTGlyph>
    <TTGlyph name="Euro" xMin="15" yMin="-40" xMax="468" yMax="668">
      <contour>
        <pt x="462" y="203" on="1"/>
        <pt x="454" y="79" on="0"/>
        <pt x="366" y="-40" on="0"/>
        <pt x="283" y="-40" on="1"/>
        <pt x="212" y="-40" on="0"/>
        <pt x="121" y="85" on="0"/>
        <pt x="109" y="201" on="1"/>
        <pt x="73" y="201" on="0"/>
        <pt x="34" y="202" on="0"/>
        <pt x="16" y="203" on="1"/>
        <pt x="15" y="217" on="0"/>
        <pt x="16" y="237" on="0"/>
        <pt x="18" y="245" on="1"/>
        <pt x="43" y="243" on="0"/>
        <pt x="86" y="242" on="0"/>
        <pt x="106" y="242" on="1"/>
        <pt x="105" y="249" on="0"/>
        <pt x="105" y="265" on="0"/>
        <pt x="105" y="281" on="1"/>
        <pt x="105" y="302" on="0"/>
        <pt x="105" y="323" on="0"/>
        <pt x="106" y="331" on="1"/>
        <pt x="71" y="331" on="0"/>
        <pt x="33" y="332" on="0"/>
        <pt x="16" y="333" on="1"/>
        <pt x="15" y="347" on="0"/>
        <pt x="16" y="367" on="0"/>
        <pt x="18" y="375" on="1"/>
        <pt x="44" y="373" on="0"/>
        <pt x="89" y="372" on="0"/>
        <pt x="110" y="372" on="1"/>
        <pt x="126" y="510" on="0"/>
        <pt x="246" y="668" on="0"/>
        <pt x="334" y="668" on="1"/>
        <pt x="407" y="668" on="0"/>
        <pt x="468" y="556" on="0"/>
        <pt x="459" y="440" on="1"/>
        <pt x="449" y="436" on="0"/>
        <pt x="425" y="431" on="0"/>
        <pt x="410" y="430" on="1"/>
        <pt x="420" y="531" on="0"/>
        <pt x="379" y="624" on="0"/>
        <pt x="325" y="624" on="1"/>
        <pt x="265" y="624" on="0"/>
        <pt x="176" y="489" on="0"/>
        <pt x="164" y="374" on="1"/>
        <pt x="200" y="376" on="0"/>
        <pt x="281" y="385" on="0"/>
        <pt x="334" y="393" on="1"/>
        <pt x="334" y="383" on="0"/>
        <pt x="331" y="363" on="0"/>
        <pt x="329" y="353" on="1"/>
        <pt x="268" y="344" on="0"/>
        <pt x="194" y="335" on="0"/>
        <pt x="161" y="333" on="1"/>
        <pt x="160" y="326" on="0"/>
        <pt x="160" y="309" on="0"/>
        <pt x="160" y="291" on="1"/>
        <pt x="160" y="271" on="0"/>
        <pt x="160" y="252" on="0"/>
        <pt x="161" y="244" on="1"/>
        <pt x="197" y="246" on="0"/>
        <pt x="278" y="255" on="0"/>
        <pt x="334" y="263" on="1"/>
        <pt x="334" y="253" on="0"/>
        <pt x="331" y="233" on="0"/>
        <pt x="329" y="223" on="1"/>
        <pt x="271" y="214" on="0"/>
        <pt x="196" y="205" on="0"/>
        <pt x="164" y="203" on="1"/>
        <pt x="174" y="104" on="0"/>
        <pt x="239" y="4" on="0"/>
        <pt x="294" y="4" on="1"/>
        <pt x="351" y="4" on="0"/>
        <pt x="412" y="115" on="0"/>
        <pt x="409" y="210" on="1"/>
        <pt x="426" y="211" on="0"/>
        <pt x="450" y="208" on="0"/>
      </contour>
    </TTGlyph>
    <TTGlyph name="F" xMin="58" yMin="-78" xMax="448" yMax="774">
      <contour>
        <pt x="151" y="325" on="1"/>
        <pt x="156" y="138" on="0"/>
        <pt x="157" y="-3" on="0"/>
        <pt x="156" y="-74" on="1"/>
        <pt x="144" y="-76" on="0"/>
        <pt x="113" y="-78" on="0"/>
        <pt x="103" y="-77" on="1"/>
        <pt x="108" y="163" on="0"/>
        <pt x="86" y="545" on="0"/>
        <pt x="58" y="723" on="1"/>
        <pt x="174" y="732" on="0"/>
        <pt x="338" y="754" on="0"/>
        <pt x="439" y="774" on="1"/>
        <pt x="442" y="768" on="0"/>
        <pt x="445" y="756" on="0"/>
        <pt x="446" y="751" on="1"/>
        <pt x="447" y="744" on="0"/>
        <pt x="448" y="731" on="0"/>
        <pt x="447" y="723" on="1"/>
        <pt x="340" y="704" on="0"/>
        <pt x="197" y="685" on="0"/>
        <pt x="122" y="680" on="1"/>
        <pt x="132" y="609" on="0"/>
        <pt x="144" y="479" on="0"/>
        <pt x="147" y="418" on="1"/>
        <pt x="199" y="427" on="0"/>
        <pt x="312" y="441" on="0"/>
        <pt x="382" y="446" on="1"/>
        <pt x="385" y="434" on="0"/>
        <pt x="387" y="412" on="0"/>
        <pt x="387" y="400" on="1"/>
        <pt x="333" y="397" on="0"/>
        <pt x="213" y="384" on="0"/>
        <pt x="150" y="374" on="1"/>
        <pt x="150" y="369" on="0"/>
        <pt x="150" y="359" on="0"/>
        <pt x="151" y="349" on="1"/>
        <pt x="151" y="339" on="0"/>
        <pt x="151" y="329" on="0"/>
      </contour>
    </TTGlyph>
    <TTGlyph name="G" xMin="48" yMin="-29" xMax="520" yMax="724">
      <contour>
        <pt x="467" y="348" on="1"/>
        <pt x="465" y="251" on="0"/>
        <pt x="491" y="72" on="0"/>
        <pt x="520" y="-23" on="1"/>
        <pt x="513" y="-25" on="0"/>
        <pt x="489" y="-28" on="0"/>
        <pt x="475" y="-29" on="1"/>
        <pt x="461" y="6" on="0"/>
        <pt x="438" y="81" on="0"/>
        <pt x="429" y="122" on="1"/>
        <pt x="395" y="49" on="0"/>
        <pt x="303" y="-21" on="0"/>
        <pt x="240" y="-21" on="1"/>
        <pt x="152" y="-21" on="0"/>
        <pt x="48" y="154" on="0"/>
        <pt x="48" y="306" on="1"/>
        <pt x="48" y="494" on="0"/>
        <pt x="185" y="724" on="0"/>
        <pt x="298" y="724" on="1"/>
        <pt x="376" y="724" on="0"/>
        <pt x="464" y="596" on="0"/>
        <pt x="462" y="488" on="1"/>
        <pt x="450" y="484" on="0"/>
        <pt x="421" y="480" on="0"/>
        <pt x="403" y="478" on="1"/>
        <pt x="402" y="576" on="0"/>
        <pt x="341" y="677" on="0"/>
        <pt x="283" y="677" on="1"/>
        <pt x="207" y="677" on="0"/>
        <pt x="108" y="477" on="0"/>
        <pt x="108" y="323" on="1"/>
        <pt x="108" y="183" on="0"/>
        <pt x="183" y="27" on="0"/>
        <pt x="247" y="27" on="1"/>
        <pt x="305" y="27" on="0"/>
        <pt x="389" y="119" on="0"/>
        <pt x="413" y="208" on="1"/>
        <pt x="409" y="236" on="0"/>
        <pt x="403" y="301" on="0"/>
        <pt x="400" y="341" on="1"/>
        <pt x="416" y="344" on="0"/>
        <pt x="452" y="348" on="0"/>
      </contour>
    </TTGlyph>
    <TTGlyph name="Gbreve" xMin="48" yMin="-29" xMax="520" yMax="886">
      <component glyphName="G" x="0" y="0" flags="0x204"/>
      <component glyphName="breve" x="148" y="147" flags="0x4"/>
    </TTGlyph>
    <TTGlyph name="H" xMin="68" yMin="-55" xMax="510" yMax="742">
      <contour>
        <pt x="489" y="737" on="1"/>
        <pt x="498" y="554" on="0"/>
        <pt x="510" y="101" on="0"/>
        <pt x="510" y="-55" on="1"/>
        <pt x="499" y="-55" on="0"/>
        <pt x="468" y="-50" on="0"/>
        <pt x="454" y="-47" on="1"/>
        <pt x="454" y="31" on="0"/>
        <pt x="451" y="247" on="0"/>
        <pt x="448" y="352" on="1"/>
        <pt x="351" y="352" on="0"/>
        <pt x="195" y="343" on="0"/>
        <pt x="127" y="333" on="1"/>
        <pt x="128" y="246" on="0"/>
        <pt x="133" y="79" on="0"/>
        <pt x="138" y="12" on="1"/>
        <pt x="126" y="9" on="0"/>
        <pt x="98" y="7" on="0"/>
        <pt x="86" y="8" on="1"/>
        <pt x="77" y="176" on="0"/>
        <pt x="68" y="517" on="0"/>
        <pt x="68" y="709" on="1"/>
        <pt x="75" y="711" on="0"/>
        <pt x="94" y="714" on="0"/>
        <pt x="104" y="714" on="1"/>
        <pt x="113" y="714" on="0"/>
        <pt x="127" y="712" on="0"/>
        <pt x="135" y="710" on="1"/>
        <pt x="130" y="653" on="0"/>
        <pt x="125" y="476" on="0"/>
        <pt x="126" y="374" on="1"/>
        <pt x="199" y="387" on="0"/>
        <pt x="355" y="399" on="0"/>
        <pt x="447" y="400" on="1"/>
        <pt x="444" y="506" on="0"/>
        <pt x="435" y="681" on="0"/>
        <pt x="430" y="736" on="1"/>
        <pt x="443" y="740" on="0"/>
        <pt x="458" y="742" on="0"/>
        <pt x="466" y="742" on="1"/>
        <pt x="473" y="742" on="0"/>
        <pt x="485" y="739" on="0"/>
      </contour>
    </TTGlyph>
    <TTGlyph name="I" xMin="69" yMin="-28" xMax="136" yMax="679">
      <contour>
        <pt x="136" y="481" on="1"/>
        <pt x="136" y="205" on="0"/>
        <pt x="133" y="58" on="0"/>
        <pt x="131" y="-22" on="1"/>
        <pt x="124" y="-24" on="0"/>
        <pt x="99" y="-27" on="0"/>
        <pt x="83" y="-28" on="1"/>
        <pt x="86" y="163" on="0"/>
        <pt x="79" y="514" on="0"/>
        <pt x="69" y="670" on="1"/>
        <pt x="79" y="675" on="0"/>
        <pt x="99" y="679" on="0"/>
        <pt x="110" y="679" on="1"/>
        <pt x="114" y="679" on="0"/>
        <pt x="123" y="678" on="0"/>
        <pt x="130" y="677" on="1"/>
        <pt x="133" y="634" on="0"/>
        <pt x="136" y="545" on="0"/>
      </contour>
    </TTGlyph>
    <TTGlyph name="Iacute" xMin="66" yMin="-28" xMax="169" yMax="917">
      <component glyphName="I" x="0" y="0" flags="0x204"/>
      <component glyphName="acute" x="-6" y="166" flags="0x4"/>
    </TTGlyph>
    <TTGlyph name="Icircumflex" xMin="-35" yMin="-28" xMax="215" yMax="882">
      <component glyphName="I" x="0" y="0" flags="0x204"/>
      <component glyphName="circumflex" x="-40" y="143" flags="0x4"/>
    </TTGlyph>
    <TTGlyph name="Idieresis" xMin="13" yMin="-28" xMax="199" yMax="872">
      <component glyphName="I" x="0" y="0" flags="0x204"/>
      <component glyphName="dieresis" x="-30" y="127" flags="0x4"/>
    </TTGlyph>
    <TTGlyph name="Idotaccent" xMin="69" yMin="-28" xMax="152" yMax="877">
      <component glyphName="I" x="0" y="0" flags="0x204"/>
      <component glyphName="dotaccent" x="-38" y="132" flags="0x4"/>
    </TTGlyph>
    <TTGlyph name="Igrave" xMin="7" yMin="-28" xMax="136" yMax="916">
      <component glyphName="I" x="0" y="0" flags="0x204"/>
      <component glyphName="grave" x="-67" y="163" flags="0x4"/>
    </TTGlyph>
    <TTGlyph name="Imacron" xMin="1" yMin="-28" xMax="190" yMax="832">
      <component glyphName="I" x="0" y="0" flags="0x204"/>
      <component glyphName="macron" x="-34" y="134" flags="0x4"/>
    </TTGlyph>
    <TTGlyph name="Iogonek" xMin="9" yMin="-226" xMax="182" yMax="679">
      <contour>
        <pt x="182" y="-169" on="1"/>
        <pt x="163" y="-199" on="0"/>
        <pt x="117" y="-226" on="0"/>
        <pt x="86" y="-226" on="1"/>
        <pt x="51" y="-226" on="0"/>
        <pt x="9" y="-185" on="0"/>
        <pt x="9" y="-152" on="1"/>
        <pt x="9" y="-119" on="0"/>
        <pt x="46" y="-58" on="0"/>
        <pt x="84" y="-28" on="1"/>
        <pt x="83" y="-28" on="1"/>
        <pt x="86" y="163" on="0"/>
        <pt x="79" y="514" on="0"/>
        <pt x="69" y="670" on="1"/>
        <pt x="79" y="675" on="0"/>
        <pt x="99" y="679" on="0"/>
        <pt x="110" y="679" on="1"/>
        <pt x="114" y="679" on="0"/>
        <pt x="123" y="678" on="0"/>
        <pt x="130" y="677" on="1"/>
        <pt x="133" y="634" on="0"/>
        <pt x="136" y="545" on="0"/>
        <pt x="136" y="481" on="1"/>
        <pt x="136" y="205" on="0"/>
        <pt x="133" y="58" on="0"/>
        <pt x="131" y="-22" on="1"/>
        <pt x="96" y="-55" on="0"/>
        <pt x="64" y="-110" on="0"/>
        <pt x="64" y="-139" on="1"/>
        <pt x="64" y="-158" on="0"/>
        <pt x="83" y="-178" on="0"/>
        <pt x="100" y="-178" on="1"/>
        <pt x="118" y="-178" on="0"/>
        <pt x="147" y="-156" on="0"/>
        <pt x="159" y="-133" on="1"/>
        <pt x="167" y="-139" on="0"/>
        <pt x="177" y="-156" on="0"/>
      </contour>
    </TTGlyph>
    <TTGlyph name="J" xMin="38" yMin="-88" xMax="362" yMax="725">
      <contour>
        <pt x="334" y="43" on="1"/>
        <pt x="314" y="-22" on="0"/>
        <pt x="245" y="-88" on="0"/>
        <pt x="197" y="-88" on="1"/>
        <pt x="132" y="-88" on="0"/>
        <pt x="51" y="40" on="0"/>
        <pt x="38" y="164" on="1"/>
        <pt x="48" y="170" on="0"/>
        <pt x="72" y="178" on="0"/>
        <pt x="92" y="183" on="1"/>
        <pt x="107" y="60" on="0"/>
        <pt x="154" y="-41" on="0"/>
        <pt x="200" y="-41" on="1"/>
        <pt x="251" y="-41" on="0"/>
        <pt x="302" y="95" on="0"/>
        <pt x="302" y="232" on="1"/>
        <pt x="302" y="336" on="0"/>
        <pt x="288" y="552" on="0"/>
        <pt x="270" y="711" on="1"/>
        <pt x="277" y="715" on="0"/>
        <pt x="294" y="721" on="0"/>
        <pt x="304" y="722" on="1"/>
        <pt x="311" y="723" on="0"/>
        <pt x="328" y="725" on="0"/>
        <pt x="336" y="725" on="1"/>
        <pt x="349" y="603" on="0"/>
        <pt x="362" y="404" on="0"/>
        <pt x="362" y="322" on="1"/>
        <pt x="362" y="226" on="0"/>
        <pt x="348" y="91" on="0"/>
      </contour>
    </TTGlyph>
    <TTGlyph name="K" xMin="68" yMin="-78" xMax="533" yMax="704">
      <contour>
        <pt x="533" y="-40" on="1"/>
        <pt x="522" y="-54" on="0"/>
        <pt x="503" y="-71" on="0"/>
        <pt x="491" y="-78" on="1"/>
        <pt x="419" y="44" on="0"/>
        <pt x="296" y="200" on="0"/>
        <pt x="202" y="290" on="1"/>
        <pt x="194" y="283" on="0"/>
        <pt x="156" y="252" on="0"/>
        <pt x="127" y="228" on="1"/>
        <pt x="129" y="153" on="0"/>
        <pt x="139" y="21" on="0"/>
        <pt x="150" y="-64" on="1"/>
        <pt x="123" y="-68" on="0"/>
        <pt x="106" y="-69" on="0"/>
        <pt x="100" y="-69" on="1"/>
        <pt x="82" y="77" on="0"/>
        <pt x="68" y="296" on="0"/>
        <pt x="68" y="440" on="1"/>
        <pt x="68" y="490" on="0"/>
        <pt x="73" y="617" on="0"/>
        <pt x="79" y="700" on="1"/>
        <pt x="92" y="702" on="0"/>
        <pt x="110" y="704" on="0"/>
        <pt x="117" y="704" on="1"/>
        <pt x="125" y="704" on="0"/>
        <pt x="141" y="702" on="0"/>
        <pt x="149" y="700" on="1"/>
        <pt x="137" y="622" on="0"/>
        <pt x="126" y="464" on="0"/>
        <pt x="126" y="343" on="1"/>
        <pt x="126" y="326" on="0"/>
        <pt x="126" y="291" on="0"/>
        <pt x="126" y="273" on="1"/>
        <pt x="237" y="371" on="0"/>
        <pt x="357" y="530" on="0"/>
        <pt x="430" y="681" on="1"/>
        <pt x="441" y="676" on="0"/>
        <pt x="463" y="657" on="0"/>
        <pt x="474" y="644" on="1"/>
        <pt x="414" y="533" on="0"/>
        <pt x="308" y="389" on="0"/>
        <pt x="238" y="323" on="1"/>
        <pt x="328" y="240" on="0"/>
        <pt x="441" y="100" on="0"/>
      </contour>
    </TTGlyph>
    <TTGlyph name="L" xMin="68" yMin="-97" xMax="458" yMax="674">
      <contour>
        <pt x="454" y="-22" on="1"/>
        <pt x="456" y="-33" on="0"/>
        <pt x="458" y="-63" on="0"/>
        <pt x="458" y="-72" on="1"/>
        <pt x="366" y="-73" on="0"/>
        <pt x="213" y="-83" on="0"/>
        <pt x="117" y="-97" on="1"/>
        <pt x="90" y="106" on="0"/>
        <pt x="68" y="487" on="0"/>
        <pt x="73" y="666" on="1"/>
        <pt x="84" y="671" on="0"/>
        <pt x="102" y="674" on="0"/>
        <pt x="115" y="674" on="1"/>
        <pt x="120" y="674" on="0"/>
        <pt x="133" y="673" on="0"/>
        <pt x="137" y="672" on="1"/>
        <pt x="132" y="616" on="0"/>
        <pt x="129" y="493" on="0"/>
        <pt x="130" y="392" on="1"/>
        <pt x="132" y="271" on="0"/>
        <pt x="147" y="67" on="0"/>
        <pt x="163" y="-43" on="1"/>
        <pt x="235" y="-33" on="0"/>
        <pt x="386" y="-22" on="0"/>
      </contour>
    </TTGlyph>
    <TTGlyph name="Lacute" xMin="68" yMin="-97" xMax="458" yMax="888">
      <component glyphName="L" x="0" y="0" flags="0x204"/>
      <component glyphName="acute" x="2" y="137" flags="0x4"/>
    </TTGlyph>
    <TTGlyph name="Lcaron" xMin="68" yMin="-97" xMax="458" yMax="684">
      <component glyphName="L" x="0" y="0" flags="0x204"/>
      <component glyphName="caron.alt" x="140" y="-100" flags="0x4"/>
    </TTGlyph>
    <TTGlyph name="Lslash" xMin="-55" yMin="-97" xMax="450" yMax="674">
      <contour>
        <pt x="450" y="-72" on="1"/>
        <pt x="358" y="-73" on="0"/>
        <pt x="205" y="-83" on="0"/>
        <pt x="109" y="-97" on="1"/>
        <pt x="98" y="-11" on="0"/>
        <pt x="83" y="130" on="0"/>
        <pt x="78" y="193" on="1"/>
        <pt x="59" y="181" on="0"/>
        <pt x="12" y="154" on="0"/>
        <pt x="-28" y="131" on="1"/>
        <pt x="-36" y="139" on="0"/>
        <pt x="-49" y="161" on="0"/>
        <pt x="-55" y="176" on="1"/>
        <pt x="-27" y="190" on="0"/>
        <pt x="32" y="225" on="0"/>
        <pt x="74" y="250" on="1"/>
        <pt x="67" y="357" on="0"/>
        <pt x="62" y="565" on="0"/>
        <pt x="65" y="666" on="1"/>
        <pt x="76" y="671" on="0"/>
        <pt x="94" y="674" on="0"/>
        <pt x="107" y="674" on="1"/>
        <pt x="112" y="674" on="0"/>
        <pt x="125" y="673" on="0"/>
        <pt x="129" y="672" on="1"/>
        <pt x="124" y="616" on="0"/>
        <pt x="121" y="493" on="0"/>
        <pt x="122" y="392" on="1"/>
        <pt x="122" y="386" on="0"/>
        <pt x="123" y="371" on="0"/>
        <pt x="123" y="356" on="1"/>
        <pt x="123" y="326" on="0"/>
        <pt x="124" y="296" on="0"/>
        <pt x="125" y="283" on="1"/>
        <pt x="163" y="308" on="0"/>
        <pt x="248" y="369" on="0"/>
        <pt x="306" y="414" on="1"/>
        <pt x="314" y="406" on="0"/>
        <pt x="327" y="388" on="0"/>
        <pt x="334" y="373" on="1"/>
        <pt x="271" y="324" on="0"/>
        <pt x="173" y="254" on="0"/>
        <pt x="128" y="225" on="1"/>
        <pt x="132" y="157" on="0"/>
        <pt x="145" y="26" on="0"/>
        <pt x="155" y="-43" on="1"/>
        <pt x="227" y="-33" on="0"/>
        <pt x="378" y="-22" on="0"/>
        <pt x="446" y="-22" on="1"/>
        <pt x="448" y="-33" on="0"/>
        <pt x="450" y="-63" on="0"/>
      </contour>
    </TTGlyph>
    <TTGlyph name="M" xMin="66" yMin="-58" xMax="643" yMax="754">
      <contour>
        <pt x="633" y="-49" on="1"/>
        <pt x="620" y="-54" on="0"/>
        <pt x="591" y="-58" on="0"/>
        <pt x="576" y="-58" on="1"/>
        <pt x="586" y="111" on="0"/>
        <pt x="592" y="432" on="0"/>
        <pt x="589" y="662" on="1"/>
        <pt x="525" y="557" on="0"/>
        <pt x="424" y="323" on="0"/>
        <pt x="378" y="175" on="1"/>
        <pt x="369" y="171" on="0"/>
        <pt x="348" y="168" on="0"/>
        <pt x="338" y="169" on="1"/>
        <pt x="296" y="313" on="0"/>
        <pt x="194" y="544" on="0"/>
        <pt x="125" y="654" on="1"/>
        <pt x="124" y="637" on="0"/>
        <pt x="122" y="569" on="0"/>
        <pt x="122" y="517" on="1"/>
        <pt x="122" y="404" on="0"/>
        <pt x="146" y="145" on="0"/>
        <pt x="170" y="4" on="1"/>
        <pt x="157" y="-1" on="0"/>
        <pt x="129" y="-5" on="0"/>
        <pt x="116" y="-4" on="1"/>
        <pt x="89" y="160" on="0"/>
        <pt x="66" y="555" on="0"/>
        <pt x="74" y="732" on="1"/>
        <pt x="90" y="740" on="0"/>
        <pt x="118" y="751" on="0"/>
        <pt x="131" y="754" on="1"/>
        <pt x="202" y="652" on="0"/>
        <pt x="319" y="398" on="0"/>
        <pt x="358" y="263" on="1"/>
        <pt x="394" y="382" on="0"/>
        <pt x="502" y="622" on="0"/>
        <pt x="579" y="754" on="1"/>
        <pt x="595" y="751" on="0"/>
        <pt x="624" y="742" on="0"/>
        <pt x="637" y="736" on="1"/>
        <pt x="643" y="603" on="0"/>
        <pt x="642" y="217" on="0"/>
      </contour>
    </TTGlyph>
    <TTGlyph name="N" xMin="69" yMin="-40" xMax="537" yMax="757">
      <contour>
        <pt x="131" y="360" on="1"/>
        <pt x="132" y="299" on="0"/>
        <pt x="140" y="147" on="0"/>
        <pt x="153" y="-34" on="1"/>
        <pt x="142" y="-36" on="0"/>
        <pt x="119" y="-39" on="0"/>
        <pt x="106" y="-40" on="1"/>
        <pt x="85" y="202" on="0"/>
        <pt x="69" y="514" on="0"/>
        <pt x="69" y="682" on="1"/>
        <pt x="96" y="694" on="0"/>
        <pt x="119" y="701" on="0"/>
        <pt x="136" y="704" on="1"/>
        <pt x="249" y="560" on="0"/>
        <pt x="411" y="283" on="0"/>
        <pt x="480" y="120" on="1"/>
        <pt x="482" y="157" on="0"/>
        <pt x="484" y="252" on="0"/>
        <pt x="484" y="353" on="1"/>
        <pt x="484" y="496" on="0"/>
        <pt x="476" y="689" on="0"/>
        <pt x="467" y="745" on="1"/>
        <pt x="483" y="750" on="0"/>
        <pt x="513" y="756" on="0"/>
        <pt x="530" y="757" on="1"/>
        <pt x="534" y="693" on="0"/>
        <pt x="537" y="595" on="0"/>
        <pt x="537" y="549" on="1"/>
        <pt x="537" y="383" on="0"/>
        <pt x="527" y="155" on="0"/>
        <pt x="516" y="23" on="1"/>
        <pt x="508" y="21" on="0"/>
        <pt x="488" y="19" on="0"/>
        <pt x="471" y="18" on="1"/>
        <pt x="395" y="193" on="0"/>
        <pt x="220" y="497" on="0"/>
        <pt x="128" y="612" on="1"/>
        <pt x="127" y="553" on="0"/>
        <pt x="131" y="369" on="0"/>
      </contour>
    </TTGlyph>
    <TTGlyph name="Nacute" xMin="69" yMin="-40" xMax="537" yMax="919">
      <component glyphName="N" x="0" y="0" flags="0x204"/>
      <component glyphName="acute" x="200" y="168" flags="0x4"/>
    </TTGlyph>
    <TTGlyph name="Ncaron" xMin="69" yMin="-40" xMax="537" yMax="899">
      <component glyphName="N" x="0" y="0" flags="0x204"/>
      <component glyphName="caron" x="164" y="165" flags="0x4"/>
    </TTGlyph>
    <TTGlyph name="Ntilde" xMin="69" yMin="-40" xMax="537" yMax="869">
      <component glyphName="N" x="0" y="0" flags="0x204"/>
      <component glyphName="tilde" x="155" y="139" flags="0x4"/>
    </TTGlyph>
    <TTGlyph name="O" xMin="48" yMin="-20" xMax="541" yMax="733">
      <contour>
        <pt x="319" y="733" on="1"/>
        <pt x="428" y="733" on="0"/>
        <pt x="541" y="557" on="0"/>
        <pt x="541" y="388" on="1"/>
        <pt x="541" y="215" on="0"/>
        <pt x="397" y="-20" on="0"/>
        <pt x="274" y="-20" on="1"/>
        <pt x="174" y="-20" on="0"/>
        <pt x="48" y="183" on="0"/>
        <pt x="48" y="342" on="1"/>
        <pt x="48" y="512" on="0"/>
        <pt x="200" y="733" on="0"/>
      </contour>
      <contour>
        <pt x="276" y="27" on="1"/>
        <pt x="370" y="27" on="0"/>
        <pt x="481" y="224" on="0"/>
        <pt x="481" y="377" on="1"/>
        <pt x="481" y="534" on="0"/>
        <pt x="399" y="685" on="0"/>
        <pt x="312" y="685" on="1"/>
        <pt x="224" y="685" on="0"/>
        <pt x="109" y="498" on="0"/>
        <pt x="109" y="351" on="1"/>
        <pt x="109" y="211" on="0"/>
        <pt x="199" y="27" on="0"/>
      </contour>
    </TTGlyph>
    <TTGlyph name="OE" xMin="48" yMin="-41" xMax="842" yMax="735">
      <contour>
        <pt x="840" y="-14" on="1"/>
        <pt x="754" y="-26" on="0"/>
        <pt x="603" y="-38" on="0"/>
        <pt x="503" y="-41" on="1"/>
        <pt x="495" y="11" on="0"/>
        <pt x="482" y="109" on="0"/>
        <pt x="477" y="154" on="1"/>
        <pt x="451" y="58" on="0"/>
        <pt x="354" y="-40" on="0"/>
        <pt x="284" y="-40" on="1"/>
        <pt x="180" y="-40" on="0"/>
        <pt x="48" y="163" on="0"/>
        <pt x="48" y="322" on="1"/>
        <pt x="48" y="500" on="0"/>
        <pt x="180" y="713" on="0"/>
        <pt x="294" y="713" on="1"/>
        <pt x="339" y="713" on="0"/>
        <pt x="410" y="675" on="0"/>
        <pt x="436" y="638" on="1"/>
        <pt x="436" y="643" on="0"/>
        <pt x="436" y="655" on="0"/>
        <pt x="435" y="666" on="1"/>
        <pt x="435" y="677" on="0"/>
        <pt x="435" y="688" on="0"/>
        <pt x="435" y="693" on="1"/>
        <pt x="569" y="716" on="0"/>
        <pt x="727" y="733" on="0"/>
        <pt x="817" y="735" on="1"/>
        <pt x="818" y="722" on="0"/>
        <pt x="816" y="699" on="0"/>
        <pt x="814" y="688" on="1"/>
        <pt x="732" y="687" on="0"/>
        <pt x="577" y="672" on="0"/>
        <pt x="495" y="657" on="1"/>
        <pt x="494" y="584" on="0"/>
        <pt x="499" y="449" on="0"/>
        <pt x="505" y="376" on="1"/>
        <pt x="639" y="397" on="0"/>
        <pt x="724" y="408" on="0"/>
        <pt x="767" y="412" on="1"/>
        <pt x="770" y="400" on="0"/>
        <pt x="772" y="378" on="0"/>
        <pt x="771" y="367" on="1"/>
        <pt x="695" y="361" on="0"/>
        <pt x="585" y="347" on="0"/>
        <pt x="509" y="333" on="1"/>
        <pt x="517" y="249" on="0"/>
        <pt x="538" y="82" on="0"/>
        <pt x="550" y="4" on="1"/>
        <pt x="645" y="7" on="0"/>
        <pt x="773" y="22" on="0"/>
        <pt x="838" y="36" on="1"/>
        <pt x="841" y="25" on="0"/>
        <pt x="842" y="-4" on="0"/>
      </contour>
      <contour>
        <pt x="286" y="7" on="1"/>
        <pt x="364" y="7" on="0"/>
        <pt x="448" y="191" on="0"/>
        <pt x="446" y="357" on="1"/>
        <pt x="444" y="508" on="0"/>
        <pt x="363" y="665" on="0"/>
        <pt x="287" y="665" on="1"/>
        <pt x="203" y="665" on="0"/>
        <pt x="109" y="487" on="0"/>
        <pt x="109" y="331" on="1"/>
        <pt x="109" y="192" on="0"/>
        <pt x="205" y="7" on="0"/>
      </contour>
    </TTGlyph>
    <TTGlyph name="Oacute" xMin="48" yMin="-20" xMax="541" yMax="948">
      <component glyphName="O" x="0" y="0" flags="0x204"/>
      <component glyphName="acute" x="197" y="197" flags="0x4"/>
    </TTGlyph>
    <TTGlyph name="Ocircumflex" xMin="48" yMin="-20" xMax="541" yMax="921">
      <component glyphName="O" x="0" y="0" flags="0x204"/>
      <component glyphName="circumflex" x="189" y="182" flags="0x4"/>
    </TTGlyph>
    <TTGlyph name="Odieresis" xMin="48" yMin="-20" xMax="541" yMax="907">
      <component glyphName="O" x="0" y="0" flags="0x204"/>
      <component glyphName="dieresis" x="187" y="162" flags="0x4"/>
    </TTGlyph>
    <TTGlyph name="Ograve" xMin="48" yMin="-20" xMax="541" yMax="953">
      <component glyphName="O" x="0" y="0" flags="0x204"/>
      <component glyphName="grave" x="157" y="200" flags="0x4"/>
    </TTGlyph>
    <TTGlyph name="Ohungarumlaut" xMin="48" yMin="-20" xMax="541" yMax="946">
      <component glyphName="O" x="0" y="0" flags="0x204"/>
      <component glyphName="hungarumlaut" x="181" y="195" flags="0x4"/>
    </TTGlyph>
    <TTGlyph name="Omacron" xMin="48" yMin="-20" xMax="541" yMax="877">
      <component glyphName="O" x="0" y="0" flags="0x204"/>
      <component glyphName="macron" x="187" y="179" flags="0x4"/>
    </TTGlyph>
    <TTGlyph name="Oslash" xMin="40" yMin="-74" xMax="533" yMax="794">
      <contour>
        <pt x="304" y="685" on="1"/>
        <pt x="216" y="685" on="0"/>
        <pt x="101" y="498" on="0"/>
        <pt x="101" y="351" on="1"/>
        <pt x="101" y="284" on="0"/>
        <pt x="126" y="158" on="0"/>
        <pt x="149" y="113" on="1"/>
        <pt x="202" y="211" on="0"/>
        <pt x="320" y="455" on="0"/>
        <pt x="406" y="645" on="1"/>
        <pt x="387" y="665" on="0"/>
        <pt x="336" y="685" on="0"/>
      </contour>
      <contour>
        <pt x="179" y="69" on="1"/>
        <pt x="197" y="48" on="0"/>
        <pt x="242" y="27" on="0"/>
        <pt x="268" y="27" on="1"/>
        <pt x="362" y="27" on="0"/>
        <pt x="473" y="224" on="0"/>
        <pt x="473" y="377" on="1"/>
        <pt x="473" y="450" on="0"/>
        <pt x="456" y="560" on="0"/>
        <pt x="438" y="597" on="1"/>
        <pt x="377" y="464" on="0"/>
        <pt x="250" y="205" on="0"/>
      </contour>
      <contour>
        <pt x="533" y="388" on="1"/>
        <pt x="533" y="215" on="0"/>
        <pt x="389" y="-20" on="0"/>
        <pt x="266" y="-20" on="1"/>
        <pt x="235" y="-20" on="0"/>
        <pt x="179" y="1" on="0"/>
        <pt x="154" y="22" on="1"/>
        <pt x="141" y="-2" on="0"/>
        <pt x="116" y="-50" on="0"/>
        <pt x="103" y="-74" on="1"/>
        <pt x="89" y="-70" on="0"/>
        <pt x="68" y="-58" on="0"/>
        <pt x="57" y="-49" on="1"/>
        <pt x="74" y="-20" on="0"/>
        <pt x="105" y="33" on="0"/>
        <pt x="119" y="58" on="1"/>
        <pt x="81" y="108" on="0"/>
        <pt x="40" y="254" on="0"/>
        <pt x="40" y="342" on="1"/>
        <pt x="40" y="512" on="0"/>
        <pt x="192" y="733" on="0"/>
        <pt x="311" y="733" on="1"/>
        <pt x="346" y="733" on="0"/>
        <pt x="405" y="715" on="0"/>
        <pt x="430" y="696" on="1"/>
        <pt x="437" y="713" on="0"/>
        <pt x="455" y="753" on="0"/>
        <pt x="474" y="794" on="1"/>
        <pt x="484" y="790" on="0"/>
        <pt x="502" y="778" on="0"/>
        <pt x="514" y="769" on="1"/>
        <pt x="494" y="723" on="0"/>
        <pt x="474" y="678" on="0"/>
        <pt x="466" y="660" on="1"/>
        <pt x="499" y="616" on="0"/>
        <pt x="533" y="479" on="0"/>
      </contour>
    </TTGlyph>
    <TTGlyph name="Otilde" xMin="48" yMin="-20" xMax="541" yMax="873">
      <component glyphName="O" x="0" y="0" flags="0x204"/>
      <component glyphName="tilde" x="188" y="143" flags="0x4"/>
    </TTGlyph>
    <TTGlyph name="P" xMin="69" yMin="-70" xMax="497" yMax="742">
      <contour>
        <pt x="123" y="237" on="1"/>
        <pt x="124" y="170" on="0"/>
        <pt x="133" y="29" on="0"/>
        <pt x="142" y="-68" on="1"/>
        <pt x="134" y="-70" on="0"/>
        <pt x="99" y="-69" on="0"/>
        <pt x="92" y="-67" on="1"/>
        <pt x="79" y="94" on="0"/>
        <pt x="69" y="328" on="0"/>
        <pt x="69" y="538" on="1"/>
        <pt x="69" y="576" on="0"/>
        <pt x="73" y="686" on="0"/>
        <pt x="76" y="721" on="1"/>
        <pt x="126" y="732" on="0"/>
        <pt x="204" y="742" on="0"/>
        <pt x="242" y="742" on="1"/>
        <pt x="364" y="742" on="0"/>
        <pt x="497" y="639" on="0"/>
        <pt x="497" y="547" on="1"/>
        <pt x="497" y="445" on="0"/>
        <pt x="317" y="295" on="0"/>
      </contour>
      <contour>
        <pt x="138" y="683" on="1"/>
        <pt x="130" y="597" on="0"/>
        <pt x="123" y="443" on="0"/>
        <pt x="123" y="357" on="1"/>
        <pt x="123" y="339" on="0"/>
        <pt x="123" y="303" on="0"/>
        <pt x="123" y="285" on="1"/>
        <pt x="279" y="327" on="0"/>
        <pt x="437" y="456" on="0"/>
        <pt x="437" y="542" on="1"/>
        <pt x="437" y="618" on="0"/>
        <pt x="340" y="698" on="0"/>
        <pt x="247" y="698" on="1"/>
        <pt x="218" y="698" on="0"/>
        <pt x="165" y="691" on="0"/>
      </contour>
    </TTGlyph>
    <TTGlyph name="Q" xMin="44" yMin="-101" xMax="568" yMax="673">
      <contour>
        <pt x="568" y="-60" on="1"/>
        <pt x="559" y="-73" on="0"/>
        <pt x="539" y="-94" on="0"/>
        <pt x="528" y="-101" on="1"/>
        <pt x="493" y="-52" on="0"/>
        <pt x="446" y="10" on="0"/>
        <pt x="425" y="33" on="1"/>
        <pt x="391" y="-3" on="0"/>
        <pt x="309" y="-40" on="0"/>
        <pt x="262" y="-40" on="1"/>
        <pt x="165" y="-40" on="0"/>
        <pt x="44" y="133" on="0"/>
        <pt x="44" y="278" on="1"/>
        <pt x="44" y="452" on="0"/>
        <pt x="196" y="673" on="0"/>
        <pt x="318" y="673" on="1"/>
        <pt x="421" y="673" on="0"/>
        <pt x="531" y="507" on="0"/>
        <pt x="531" y="357" on="1"/>
        <pt x="531" y="274" on="0"/>
        <pt x="492" y="126" on="0"/>
        <pt x="456" y="72" on="1"/>
        <pt x="474" y="52" on="0"/>
        <pt x="519" y="-1" on="0"/>
      </contour>
      <contour>
        <pt x="104" y="287" on="1"/>
        <pt x="104" y="157" on="0"/>
        <pt x="189" y="7" on="0"/>
        <pt x="263" y="7" on="1"/>
        <pt x="300" y="7" on="0"/>
        <pt x="366" y="39" on="0"/>
        <pt x="392" y="70" on="1"/>
        <pt x="372" y="91" on="0"/>
        <pt x="326" y="132" on="0"/>
        <pt x="295" y="157" on="1"/>
        <pt x="296" y="158" on="0"/>
        <pt x="314" y="185" on="0"/>
        <pt x="321" y="190" on="1"/>
        <pt x="356" y="163" on="0"/>
        <pt x="400" y="127" on="0"/>
        <pt x="418" y="109" on="1"/>
        <pt x="444" y="154" on="0"/>
        <pt x="471" y="275" on="0"/>
        <pt x="471" y="346" on="1"/>
        <pt x="471" y="484" on="0"/>
        <pt x="390" y="625" on="0"/>
        <pt x="311" y="625" on="1"/>
        <pt x="219" y="625" on="0"/>
        <pt x="104" y="438" on="0"/>
      </contour>
    </TTGlyph>
    <TTGlyph name="R" xMin="69" yMin="-24" xMax="525" yMax="770">
      <contour>
        <pt x="525" y="0" on="1"/>
        <pt x="519" y="-6" on="0"/>
        <pt x="485" y="-22" on="0"/>
        <pt x="474" y="-24" on="1"/>
        <pt x="421" y="97" on="0"/>
        <pt x="336" y="250" on="0"/>
        <pt x="280" y="326" on="1"/>
        <pt x="248" y="312" on="0"/>
        <pt x="181" y="289" on="0"/>
        <pt x="146" y="280" on="1"/>
        <pt x="143" y="200" on="0"/>
        <pt x="135" y="60" on="0"/>
        <pt x="129" y="-5" on="1"/>
        <pt x="119" y="-7" on="0"/>
        <pt x="89" y="-6" on="0"/>
        <pt x="82" y="-3" on="1"/>
        <pt x="88" y="115" on="0"/>
        <pt x="91" y="202" on="0"/>
        <pt x="91" y="248" on="1"/>
        <pt x="91" y="423" on="0"/>
        <pt x="82" y="590" on="0"/>
        <pt x="69" y="707" on="1"/>
        <pt x="112" y="737" on="0"/>
        <pt x="220" y="770" on="0"/>
        <pt x="274" y="770" on="1"/>
        <pt x="367" y="770" on="0"/>
        <pt x="478" y="668" on="0"/>
        <pt x="478" y="584" on="1"/>
        <pt x="478" y="507" on="0"/>
        <pt x="403" y="391" on="0"/>
        <pt x="326" y="348" on="1"/>
        <pt x="373" y="291" on="0"/>
        <pt x="474" y="115" on="0"/>
      </contour>
      <contour>
        <pt x="133" y="689" on="1"/>
        <pt x="141" y="599" on="0"/>
        <pt x="147" y="464" on="0"/>
        <pt x="147" y="395" on="1"/>
        <pt x="147" y="378" on="0"/>
        <pt x="147" y="344" on="0"/>
        <pt x="147" y="327" on="1"/>
        <pt x="285" y="360" on="0"/>
        <pt x="419" y="480" on="0"/>
        <pt x="419" y="570" on="1"/>
        <pt x="419" y="645" on="0"/>
        <pt x="342" y="724" on="0"/>
        <pt x="270" y="724" on="1"/>
        <pt x="233" y="724" on="0"/>
        <pt x="162" y="706" on="0"/>
      </contour>
    </TTGlyph>
    <TTGlyph name="Racute" xMin="69" yMin="-24" xMax="525" yMax="982">
      <component glyphName="R" x="0" y="0" flags="0x204"/>
      <component glyphName="acute" x="114" y="231" flags="0x4"/>
    </TTGlyph>
    <TTGlyph name="Rcaron" xMin="69" yMin="-24" xMax="525" yMax="967">
      <component glyphName="R" x="0" y="0" flags="0x204"/>
      <component glyphName="caron" x="108" y="233" flags="0x4"/>
    </TTGlyph>
    <TTGlyph name="S" xMin="38" yMin="-40" xMax="418" yMax="767">
      <contour>
        <pt x="378" y="279" on="1"/>
        <pt x="398" y="250" on="0"/>
        <pt x="417" y="181" on="0"/>
        <pt x="417" y="140" on="1"/>
        <pt x="417" y="60" on="0"/>
        <pt x="318" y="-40" on="0"/>
        <pt x="240" y="-40" on="1"/>
        <pt x="143" y="-40" on="0"/>
        <pt x="38" y="105" on="0"/>
        <pt x="38" y="229" on="1"/>
        <pt x="50" y="236" on="0"/>
        <pt x="80" y="245" on="0"/>
        <pt x="96" y="246" on="1"/>
        <pt x="95" y="133" on="0"/>
        <pt x="170" y="7" on="0"/>
        <pt x="239" y="7" on="1"/>
        <pt x="292" y="7" on="0"/>
        <pt x="357" y="79" on="0"/>
        <pt x="357" y="137" on="1"/>
        <pt x="357" y="172" on="0"/>
        <pt x="339" y="232" on="0"/>
        <pt x="320" y="257" on="1"/>
        <pt x="307" y="275" on="0"/>
        <pt x="269" y="311" on="0"/>
        <pt x="226" y="342" on="1"/>
        <pt x="178" y="378" on="0"/>
        <pt x="134" y="421" on="0"/>
        <pt x="120" y="443" on="1"/>
        <pt x="100" y="473" on="0"/>
        <pt x="81" y="542" on="0"/>
        <pt x="81" y="584" on="1"/>
        <pt x="81" y="669" on="0"/>
        <pt x="172" y="767" on="0"/>
        <pt x="249" y="767" on="1"/>
        <pt x="321" y="767" on="0"/>
        <pt x="399" y="683" on="0"/>
        <pt x="418" y="578" on="1"/>
        <pt x="407" y="572" on="0"/>
        <pt x="382" y="566" on="0"/>
        <pt x="363" y="565" on="1"/>
        <pt x="353" y="647" on="0"/>
        <pt x="299" y="720" on="0"/>
        <pt x="246" y="720" on="1"/>
        <pt x="195" y="720" on="0"/>
        <pt x="141" y="652" on="0"/>
        <pt x="141" y="587" on="1"/>
        <pt x="141" y="551" on="0"/>
        <pt x="159" y="491" on="0"/>
        <pt x="178" y="465" on="1"/>
        <pt x="192" y="447" on="0"/>
        <pt x="230" y="411" on="0"/>
        <pt x="273" y="378" on="1"/>
        <pt x="321" y="343" on="0"/>
        <pt x="364" y="301" on="0"/>
      </contour>
    </TTGlyph>
    <TTGlyph name="Sacute" xMin="38" yMin="-40" xMax="418" yMax="982">
      <component glyphName="S" x="0" y="0" flags="0x204"/>
      <component glyphName="acute" x="139" y="231" flags="0x4"/>
    </TTGlyph>
    <TTGlyph name="Scaron" xMin="38" yMin="-40" xMax="418" yMax="954">
      <component glyphName="S" x="0" y="0" flags="0x204"/>
      <component glyphName="caron" x="124" y="220" flags="0x4"/>
    </TTGlyph>
    <TTGlyph name="T" xMin="23" yMin="25" xMax="562" yMax="791">
      <contour>
        <pt x="355" y="33" on="1"/>
        <pt x="348" y="30" on="0"/>
        <pt x="317" y="26" on="0"/>
        <pt x="300" y="25" on="1"/>
        <pt x="306" y="191" on="0"/>
        <pt x="287" y="561" on="0"/>
        <pt x="265" y="724" on="1"/>
        <pt x="219" y="719" on="0"/>
        <pt x="109" y="705" on="0"/>
        <pt x="28" y="693" on="1"/>
        <pt x="25" y="706" on="0"/>
        <pt x="23" y="734" on="0"/>
        <pt x="24" y="744" on="1"/>
        <pt x="183" y="769" on="0"/>
        <pt x="412" y="789" on="0"/>
        <pt x="554" y="791" on="1"/>
        <pt x="557" y="785" on="0"/>
        <pt x="560" y="772" on="0"/>
        <pt x="561" y="764" on="1"/>
        <pt x="562" y="758" on="0"/>
        <pt x="561" y="741" on="0"/>
        <pt x="561" y="740" on="1"/>
        <pt x="492" y="739" on="0"/>
        <pt x="380" y="734" on="0"/>
        <pt x="328" y="730" on="1"/>
        <pt x="344" y="578" on="0"/>
        <pt x="358" y="336" on="0"/>
        <pt x="358" y="209" on="1"/>
        <pt x="358" y="167" on="0"/>
        <pt x="357" y="80" on="0"/>
      </contour>
    </TTGlyph>
    <TTGlyph name="Tcaron" xMin="23" yMin="25" xMax="562" yMax="975">
      <component glyphName="T" x="0" y="0" flags="0x204"/>
      <component glyphName="caron" x="148" y="241" flags="0x4"/>
    </TTGlyph>
    <TTGlyph name="Thorn" xMin="61" yMin="-70" xMax="494" yMax="722">
      <contour>
        <pt x="122" y="103" on="1"/>
        <pt x="124" y="68" on="0"/>
        <pt x="130" y="-13" on="0"/>
        <pt x="134" y="-68" on="1"/>
        <pt x="121" y="-70" on="0"/>
        <pt x="92" y="-70" on="0"/>
        <pt x="84" y="-67" on="1"/>
        <pt x="71" y="94" on="0"/>
        <pt x="61" y="328" on="0"/>
        <pt x="61" y="538" on="1"/>
        <pt x="61" y="576" on="0"/>
        <pt x="65" y="686" on="0"/>
        <pt x="68" y="721" on="1"/>
        <pt x="85" y="722" on="0"/>
        <pt x="117" y="716" on="0"/>
        <pt x="133" y="709" on="1"/>
        <pt x="132" y="696" on="0"/>
        <pt x="127" y="639" on="0"/>
        <pt x="123" y="596" on="1"/>
        <pt x="155" y="602" on="0"/>
        <pt x="211" y="607" on="0"/>
        <pt x="239" y="607" on="1"/>
        <pt x="361" y="607" on="0"/>
        <pt x="494" y="504" on="0"/>
        <pt x="494" y="412" on="1"/>
        <pt x="494" y="310" on="0"/>
        <pt x="315" y="161" on="0"/>
      </contour>
      <contour>
        <pt x="120" y="546" on="1"/>
        <pt x="117" y="501" on="0"/>
        <pt x="115" y="411" on="0"/>
        <pt x="115" y="357" on="1"/>
        <pt x="115" y="307" on="0"/>
        <pt x="117" y="210" on="0"/>
        <pt x="120" y="150" on="1"/>
        <pt x="276" y="192" on="0"/>
        <pt x="434" y="321" on="0"/>
        <pt x="434" y="407" on="1"/>
        <pt x="434" y="483" on="0"/>
        <pt x="337" y="563" on="0"/>
        <pt x="244" y="563" on="1"/>
        <pt x="206" y="563" on="0"/>
        <pt x="146" y="555" on="0"/>
      </contour>
    </TTGlyph>
    <TTGlyph name="U" xMin="58" yMin="-80" xMax="474" yMax="705">
      <contour>
        <pt x="427" y="705" on="1"/>
        <pt x="451" y="615" on="0"/>
        <pt x="474" y="445" on="0"/>
        <pt x="474" y="363" on="1"/>
        <pt x="474" y="138" on="0"/>
        <pt x="357" y="-80" on="0"/>
        <pt x="235" y="-80" on="1"/>
        <pt x="145" y="-80" on="0"/>
        <pt x="58" y="95" on="0"/>
        <pt x="58" y="274" on="1"/>
        <pt x="58" y="365" on="0"/>
        <pt x="87" y="564" on="0"/>
        <pt x="108" y="630" on="1"/>
        <pt x="114" y="632" on="0"/>
        <pt x="135" y="634" on="0"/>
        <pt x="144" y="634" on="1"/>
        <pt x="149" y="634" on="0"/>
        <pt x="159" y="633" on="0"/>
        <pt x="166" y="632" on="1"/>
        <pt x="143" y="540" on="0"/>
        <pt x="119" y="369" on="0"/>
        <pt x="119" y="293" on="1"/>
        <pt x="119" y="120" on="0"/>
        <pt x="177" y="-31" on="0"/>
        <pt x="246" y="-31" on="1"/>
        <pt x="326" y="-31" on="0"/>
        <pt x="414" y="151" on="0"/>
        <pt x="414" y="316" on="1"/>
        <pt x="414" y="420" on="0"/>
        <pt x="392" y="591" on="0"/>
        <pt x="365" y="694" on="1"/>
        <pt x="379" y="698" on="0"/>
        <pt x="407" y="703" on="0"/>
      </contour>
    </TTGlyph>
    <TTGlyph name="Uacute" xMin="58" yMin="-80" xMax="474" yMax="866">
      <component glyphName="U" x="0" y="0" flags="0x204"/>
      <component glyphName="acute" x="151" y="115" flags="0x4"/>
    </TTGlyph>
    <TTGlyph name="Ucircumflex" xMin="58" yMin="-80" xMax="474" yMax="890">
      <component glyphName="U" x="0" y="0" flags="0x204"/>
      <component glyphName="circumflex" x="123" y="151" flags="0x4"/>
    </TTGlyph>
    <TTGlyph name="Udieresis" xMin="58" yMin="-80" xMax="474" yMax="856">
      <component glyphName="U" x="0" y="0" flags="0x204"/>
      <component glyphName="dieresis" x="134" y="111" flags="0x4"/>
    </TTGlyph>
    <TTGlyph name="Ugrave" xMin="58" yMin="-80" xMax="474" yMax="869">
      <component glyphName="U" x="0" y="0" flags="0x204"/>
      <component glyphName="grave" x="98" y="116" flags="0x4"/>
    </TTGlyph>
    <TTGlyph name="Uhungarumlaut" xMin="58" yMin="-80" xMax="474" yMax="879">
      <component glyphName="U" x="0" y="0" flags="0x204"/>
      <component glyphName="hungarumlaut" x="117" y="128" flags="0x4"/>
    </TTGlyph>
    <TTGlyph name="Umacron" xMin="58" yMin="-80" xMax="474" yMax="772">
      <component glyphName="U" x="0" y="0" flags="0x204"/>
      <component glyphName="macron" x="106" y="74" flags="0x4"/>
    </TTGlyph>
    <TTGlyph name="Uogonek" xMin="58" yMin="-264" xMax="474" yMax="705">
      <contour>
        <pt x="370" y="-211" on="1"/>
        <pt x="353" y="-237" on="0"/>
        <pt x="306" y="-264" on="0"/>
        <pt x="276" y="-264" on="1"/>
        <pt x="240" y="-264" on="0"/>
        <pt x="197" y="-222" on="0"/>
        <pt x="197" y="-187" on="1"/>
        <pt x="197" y="-157" on="0"/>
        <pt x="222" y="-106" on="0"/>
        <pt x="251" y="-80" on="1"/>
        <pt x="247" y="-80" on="0"/>
        <pt x="239" y="-80" on="0"/>
        <pt x="235" y="-80" on="1"/>
        <pt x="145" y="-80" on="0"/>
        <pt x="58" y="95" on="0"/>
        <pt x="58" y="274" on="1"/>
        <pt x="58" y="365" on="0"/>
        <pt x="87" y="564" on="0"/>
        <pt x="108" y="630" on="1"/>
        <pt x="114" y="632" on="0"/>
        <pt x="135" y="634" on="0"/>
        <pt x="144" y="634" on="1"/>
        <pt x="149" y="634" on="0"/>
        <pt x="159" y="633" on="0"/>
        <pt x="166" y="632" on="1"/>
        <pt x="143" y="540" on="0"/>
        <pt x="119" y="369" on="0"/>
        <pt x="119" y="293" on="1"/>
        <pt x="119" y="120" on="0"/>
        <pt x="177" y="-31" on="0"/>
        <pt x="246" y="-31" on="1"/>
        <pt x="326" y="-31" on="0"/>
        <pt x="414" y="151" on="0"/>
        <pt x="414" y="316" on="1"/>
        <pt x="414" y="420" on="0"/>
        <pt x="392" y="591" on="0"/>
        <pt x="365" y="694" on="1"/>
        <pt x="379" y="698" on="0"/>
        <pt x="407" y="703" on="0"/>
        <pt x="427" y="705" on="1"/>
        <pt x="451" y="615" on="0"/>
        <pt x="474" y="445" on="0"/>
        <pt x="474" y="363" on="1"/>
        <pt x="474" y="185" on="0"/>
        <pt x="405" y="-18" on="0"/>
        <pt x="327" y="-60" on="1"/>
        <pt x="292" y="-79" on="0"/>
        <pt x="252" y="-138" on="0"/>
        <pt x="252" y="-170" on="1"/>
        <pt x="252" y="-193" on="0"/>
        <pt x="272" y="-220" on="0"/>
        <pt x="288" y="-220" on="1"/>
        <pt x="306" y="-220" on="0"/>
        <pt x="335" y="-198" on="0"/>
        <pt x="347" y="-175" on="1"/>
        <pt x="355" y="-181" on="0"/>
        <pt x="365" y="-198" on="0"/>
      </contour>
    </TTGlyph>
    <TTGlyph name="Uring" xMin="58" yMin="-80" xMax="474" yMax="867">
      <component glyphName="U" x="0" y="0" flags="0x204"/>
      <component glyphName="ring" x="118" y="102" flags="0x4"/>
    </TTGlyph>
    <TTGlyph name="V" xMin="26" yMin="-95" xMax="503" yMax="761">
      <contour>
        <pt x="503" y="751" on="1"/>
        <pt x="477" y="505" on="0"/>
        <pt x="380" y="156" on="0"/>
        <pt x="266" y="-90" on="1"/>
        <pt x="254" y="-93" on="0"/>
        <pt x="235" y="-95" on="0"/>
        <pt x="222" y="-95" on="1"/>
        <pt x="149" y="70" on="0"/>
        <pt x="53" y="421" on="0"/>
        <pt x="26" y="615" on="1"/>
        <pt x="43" y="623" on="0"/>
        <pt x="68" y="631" on="0"/>
        <pt x="83" y="633" on="1"/>
        <pt x="102" y="467" on="0"/>
        <pt x="184" y="142" on="0"/>
        <pt x="250" y="-24" on="1"/>
        <pt x="341" y="192" on="0"/>
        <pt x="426" y="535" on="0"/>
        <pt x="446" y="760" on="1"/>
        <pt x="460" y="761" on="0"/>
        <pt x="485" y="757" on="0"/>
      </contour>
    </TTGlyph>
    <TTGlyph name="W" xMin="20" yMin="-62" xMax="693" yMax="710">
      <contour>
        <pt x="345" y="331" on="1"/>
        <pt x="324" y="235" on="0"/>
        <pt x="263" y="51" on="0"/>
        <pt x="219" y="-53" on="1"/>
        <pt x="205" y="-57" on="0"/>
        <pt x="186" y="-61" on="0"/>
        <pt x="179" y="-62" on="1"/>
        <pt x="103" y="176" on="0"/>
        <pt x="37" y="477" on="0"/>
        <pt x="20" y="660" on="1"/>
        <pt x="34" y="665" on="0"/>
        <pt x="61" y="671" on="0"/>
        <pt x="78" y="672" on="1"/>
        <pt x="88" y="517" on="0"/>
        <pt x="146" y="225" on="0"/>
        <pt x="205" y="33" on="1"/>
        <pt x="265" y="206" on="0"/>
        <pt x="315" y="413" on="0"/>
        <pt x="327" y="527" on="1"/>
        <pt x="339" y="530" on="0"/>
        <pt x="366" y="534" on="0"/>
        <pt x="380" y="536" on="1"/>
        <pt x="386" y="401" on="0"/>
        <pt x="426" y="171" on="0"/>
        <pt x="468" y="35" on="1"/>
        <pt x="539" y="215" on="0"/>
        <pt x="617" y="529" on="0"/>
        <pt x="636" y="710" on="1"/>
        <pt x="650" y="710" on="0"/>
        <pt x="679" y="703" on="0"/>
        <pt x="693" y="695" on="1"/>
        <pt x="663" y="478" on="0"/>
        <pt x="572" y="158" on="0"/>
        <pt x="489" y="-30" on="1"/>
        <pt x="475" y="-33" on="0"/>
        <pt x="453" y="-36" on="0"/>
        <pt x="440" y="-37" on="1"/>
        <pt x="398" y="93" on="0"/>
        <pt x="356" y="257" on="0"/>
      </contour>
    </TTGlyph>
    <TTGlyph name="X" xMin="20" yMin="-24" xMax="586" yMax="762">
      <contour>
        <pt x="569" y="8" on="1"/>
        <pt x="560" y="-2" on="0"/>
        <pt x="538" y="-18" on="0"/>
        <pt x="526" y="-24" on="1"/>
        <pt x="474" y="98" on="0"/>
        <pt x="386" y="282" on="0"/>
        <pt x="345" y="357" on="1"/>
        <pt x="272" y="264" on="0"/>
        <pt x="129" y="102" on="0"/>
        <pt x="52" y="23" on="1"/>
        <pt x="42" y="30" on="0"/>
        <pt x="25" y="46" on="0"/>
        <pt x="20" y="55" on="1"/>
        <pt x="113" y="153" on="0"/>
        <pt x="256" y="319" on="0"/>
        <pt x="319" y="402" on="1"/>
        <pt x="267" y="488" on="0"/>
        <pt x="151" y="641" on="0"/>
        <pt x="73" y="724" on="1"/>
        <pt x="89" y="738" on="0"/>
        <pt x="116" y="756" on="0"/>
        <pt x="131" y="762" on="1"/>
        <pt x="206" y="672" on="0"/>
        <pt x="314" y="522" on="0"/>
        <pt x="358" y="447" on="1"/>
        <pt x="411" y="520" on="0"/>
        <pt x="501" y="663" on="0"/>
        <pt x="541" y="737" on="1"/>
        <pt x="553" y="731" on="0"/>
        <pt x="576" y="710" on="0"/>
        <pt x="586" y="697" on="1"/>
        <pt x="543" y="625" on="0"/>
        <pt x="445" y="481" on="0"/>
        <pt x="385" y="401" on="1"/>
        <pt x="426" y="326" on="0"/>
        <pt x="512" y="144" on="0"/>
      </contour>
    </TTGlyph>
    <TTGlyph name="Y" xMin="18" yMin="-80" xMax="465" yMax="727">
      <contour>
        <pt x="465" y="689" on="1"/>
        <pt x="387" y="381" on="0"/>
        <pt x="245" y="55" on="0"/>
        <pt x="144" y="-80" on="1"/>
        <pt x="131" y="-76" on="0"/>
        <pt x="107" y="-66" on="0"/>
        <pt x="96" y="-59" on="1"/>
        <pt x="141" y="4" on="0"/>
        <pt x="215" y="126" on="0"/>
        <pt x="244" y="188" on="1"/>
        <pt x="164" y="299" on="0"/>
        <pt x="60" y="537" on="0"/>
        <pt x="18" y="710" on="1"/>
        <pt x="35" y="717" on="0"/>
        <pt x="66" y="726" on="0"/>
        <pt x="82" y="727" on="1"/>
        <pt x="109" y="593" on="0"/>
        <pt x="199" y="361" on="0"/>
        <pt x="270" y="245" on="1"/>
        <pt x="313" y="344" on="0"/>
        <pt x="376" y="572" on="0"/>
        <pt x="399" y="713" on="1"/>
        <pt x="416" y="709" on="0"/>
        <pt x="449" y="697" on="0"/>
      </contour>
    </TTGlyph>
    <TTGlyph name="Yacute" xMin="18" yMin="-80" xMax="465" yMax="897">
      <component glyphName="Y" x="0" y="0" flags="0x204"/>
      <component glyphName="acute" x="131" y="146" flags="0x4"/>
    </TTGlyph>
    <TTGlyph name="Ydieresis" xMin="18" yMin="-80" xMax="465" yMax="890">
      <component glyphName="Y" x="0" y="0" flags="0x204"/>
      <component glyphName="dieresis" x="116" y="145" flags="0x4"/>
    </TTGlyph>
    <TTGlyph name="Z" xMin="25" yMin="-34" xMax="555" yMax="737">
      <contour>
        <pt x="517" y="28" on="1"/>
        <pt x="516" y="14" on="0"/>
        <pt x="508" y="-16" on="0"/>
        <pt x="500" y="-34" on="1"/>
        <pt x="379" y="-33" on="0"/>
        <pt x="133" y="-13" on="0"/>
        <pt x="26" y="5" on="1"/>
        <pt x="25" y="19" on="0"/>
        <pt x="27" y="43" on="0"/>
        <pt x="29" y="53" on="1"/>
        <pt x="191" y="223" on="0"/>
        <pt x="419" y="511" on="0"/>
        <pt x="486" y="629" on="1"/>
        <pt x="379" y="639" on="0"/>
        <pt x="193" y="664" on="0"/>
        <pt x="98" y="681" on="1"/>
        <pt x="99" y="696" on="0"/>
        <pt x="108" y="724" on="0"/>
        <pt x="117" y="737" on="1"/>
        <pt x="199" y="720" on="0"/>
        <pt x="368" y="691" on="0"/>
        <pt x="555" y="664" on="1"/>
        <pt x="555" y="663" on="0"/>
        <pt x="554" y="656" on="0"/>
        <pt x="552" y="644" on="1"/>
        <pt x="549" y="631" on="0"/>
        <pt x="548" y="624" on="0"/>
        <pt x="548" y="623" on="1"/>
        <pt x="464" y="489" on="0"/>
        <pt x="240" y="210" on="0"/>
        <pt x="83" y="42" on="1"/>
        <pt x="200" y="28" on="0"/>
        <pt x="420" y="21" on="0"/>
      </contour>
    </TTGlyph>
    <TTGlyph name="Zacute" xMin="25" yMin="-34" xMax="555" yMax="923">
      <component glyphName="Z" x="0" y="0" flags="0x204"/>
      <component glyphName="acute" x="236" y="172" flags="0x4"/>
    </TTGlyph>
    <TTGlyph name="Zcaron" xMin="25" yMin="-34" xMax="555" yMax="899">
      <component glyphName="Z" x="0" y="0" flags="0x204"/>
      <component glyphName="caron" x="209" y="165" flags="0x4"/>
    </TTGlyph>
    <TTGlyph name="Zdotaccent" xMin="25" yMin="-34" xMax="555" yMax="865">
      <component glyphName="Z" x="0" y="0" flags="0x204"/>
      <component glyphName="dotaccent" x="205" y="120" flags="0x4"/>
    </TTGlyph>
    <TTGlyph name="a" xMin="28" yMin="-34" xMax="374" yMax="533">
      <contour>
        <pt x="374" y="338" on="1"/>
        <pt x="374" y="271" on="0"/>
        <pt x="338" y="54" on="0"/>
        <pt x="313" y="-34" on="1"/>
        <pt x="302" y="-34" on="0"/>
        <pt x="277" y="-29" on="0"/>
        <pt x="264" y="-24" on="1"/>
        <pt x="268" y="-8" on="0"/>
        <pt x="279" y="40" on="0"/>
        <pt x="280" y="43" on="1"/>
        <pt x="259" y="26" on="0"/>
        <pt x="205" y="8" on="0"/>
        <pt x="175" y="8" on="1"/>
        <pt x="109" y="8" on="0"/>
        <pt x="28" y="80" on="0"/>
        <pt x="28" y="138" on="1"/>
        <pt x="28" y="202" on="0"/>
        <pt x="138" y="269" on="0"/>
        <pt x="243" y="269" on="1"/>
        <pt x="257" y="269" on="0"/>
        <pt x="286" y="268" on="0"/>
        <pt x="314" y="267" on="1"/>
        <pt x="315" y="279" on="0"/>
        <pt x="315" y="308" on="0"/>
        <pt x="315" y="341" on="1"/>
        <pt x="315" y="419" on="0"/>
        <pt x="273" y="488" on="0"/>
        <pt x="224" y="488" on="1"/>
        <pt x="175" y="488" on="0"/>
        <pt x="108" y="404" on="0"/>
        <pt x="106" y="340" on="1"/>
        <pt x="84" y="345" on="0"/>
        <pt x="59" y="358" on="0"/>
        <pt x="51" y="369" on="1"/>
        <pt x="62" y="437" on="0"/>
        <pt x="167" y="533" on="0"/>
        <pt x="233" y="533" on="1"/>
        <pt x="303" y="533" on="0"/>
        <pt x="374" y="435" on="0"/>
      </contour>
      <contour>
        <pt x="86" y="138" on="1"/>
        <pt x="86" y="99" on="0"/>
        <pt x="138" y="52" on="0"/>
        <pt x="180" y="52" on="1"/>
        <pt x="211" y="52" on="0"/>
        <pt x="268" y="71" on="0"/>
        <pt x="291" y="89" on="1"/>
        <pt x="301" y="136" on="0"/>
        <pt x="310" y="201" on="0"/>
        <pt x="312" y="232" on="1"/>
        <pt x="200" y="239" on="0"/>
        <pt x="86" y="192" on="0"/>
      </contour>
    </TTGlyph>
    <TTGlyph name="aacute" xMin="28" yMin="-34" xMax="374" yMax="750">
      <component glyphName="a" x="0" y="0" flags="0x204"/>
      <component glyphName="acute" x="137" y="-1" flags="0x4"/>
    </TTGlyph>
    <TTGlyph name="abreve" xMin="28" yMin="-34" xMax="374" yMax="691">
      <component glyphName="a" x="0" y="0" flags="0x204"/>
      <component glyphName="breve" x="114" y="-48" flags="0x4"/>
    </TTGlyph>
    <TTGlyph name="acircumflex" xMin="28" yMin="-34" xMax="374" yMax="720">
      <component glyphName="a" x="0" y="0" flags="0x204"/>
      <component glyphName="circumflex" x="108" y="-19" flags="0x4"/>
    </TTGlyph>
    <TTGlyph name="acute" xMin="72" yMin="571" xMax="175" yMax="751">
      <contour>
        <pt x="175" y="746" on="1"/>
        <pt x="170" y="703" on="0"/>
        <pt x="139" y="617" on="0"/>
        <pt x="113" y="571" on="1"/>
        <pt x="102" y="572" on="0"/>
        <pt x="82" y="575" on="0"/>
        <pt x="72" y="578" on="1"/>
        <pt x="90" y="630" on="0"/>
        <pt x="110" y="711" on="0"/>
        <pt x="113" y="749" on="1"/>
        <pt x="128" y="751" on="0"/>
        <pt x="163" y="749" on="0"/>
      </contour>
    </TTGlyph>
    <TTGlyph name="adieresis" xMin="28" yMin="-34" xMax="374" yMax="703">
      <component glyphName="a" x="0" y="0" flags="0x204"/>
      <component glyphName="dieresis" x="126" y="-42" flags="0x4"/>
    </TTGlyph>
    <TTGlyph name="ae" xMin="28" yMin="-10" xMax="667" yMax="533">
      <contour>
        <pt x="379" y="309" on="1"/>
        <pt x="410" y="296" on="0"/>
        <pt x="482" y="284" on="0"/>
        <pt x="529" y="284" on="1"/>
        <pt x="541" y="284" on="0"/>
        <pt x="568" y="287" on="0"/>
        <pt x="574" y="289" on="1"/>
        <pt x="581" y="318" on="0"/>
        <pt x="589" y="368" on="0"/>
        <pt x="589" y="389" on="1"/>
        <pt x="589" y="437" on="0"/>
        <pt x="557" y="478" on="0"/>
        <pt x="521" y="478" on="1"/>
        <pt x="475" y="478" on="0"/>
        <pt x="397" y="384" on="0"/>
      </contour>
      <contour>
        <pt x="621" y="167" on="1"/>
        <pt x="633" y="165" on="0"/>
        <pt x="658" y="151" on="0"/>
        <pt x="667" y="141" on="1"/>
        <pt x="649" y="83" on="0"/>
        <pt x="535" y="-10" on="0"/>
        <pt x="478" y="-10" on="1"/>
        <pt x="430" y="-10" on="0"/>
        <pt x="358" y="42" on="0"/>
        <pt x="337" y="92" on="1"/>
        <pt x="304" y="50" on="0"/>
        <pt x="218" y="8" on="0"/>
        <pt x="165" y="8" on="1"/>
        <pt x="102" y="8" on="0"/>
        <pt x="28" y="76" on="0"/>
        <pt x="28" y="133" on="1"/>
        <pt x="28" y="198" on="0"/>
        <pt x="139" y="269" on="0"/>
        <pt x="243" y="269" on="1"/>
        <pt x="257" y="269" on="0"/>
        <pt x="283" y="268" on="0"/>
        <pt x="315" y="267" on="1"/>
        <pt x="316" y="288" on="0"/>
        <pt x="315" y="339" on="0"/>
        <pt x="315" y="341" on="1"/>
        <pt x="315" y="419" on="0"/>
        <pt x="273" y="488" on="0"/>
        <pt x="224" y="488" on="1"/>
        <pt x="175" y="488" on="0"/>
        <pt x="108" y="404" on="0"/>
        <pt x="106" y="340" on="1"/>
        <pt x="84" y="345" on="0"/>
        <pt x="59" y="358" on="0"/>
        <pt x="51" y="369" on="1"/>
        <pt x="62" y="437" on="0"/>
        <pt x="167" y="533" on="0"/>
        <pt x="233" y="533" on="1"/>
        <pt x="285" y="533" on="0"/>
        <pt x="353" y="468" on="0"/>
        <pt x="366" y="408" on="1"/>
        <pt x="398" y="464" on="0"/>
        <pt x="480" y="524" on="0"/>
        <pt x="526" y="524" on="1"/>
        <pt x="581" y="524" on="0"/>
        <pt x="644" y="451" on="0"/>
        <pt x="644" y="388" on="1"/>
        <pt x="644" y="353" on="0"/>
        <pt x="631" y="285" on="0"/>
        <pt x="619" y="255" on="1"/>
        <pt x="600" y="249" on="0"/>
        <pt x="548" y="243" on="0"/>
        <pt x="512" y="243" on="1"/>
        <pt x="477" y="243" on="0"/>
        <pt x="405" y="256" on="0"/>
        <pt x="371" y="268" on="1"/>
        <pt x="369" y="256" on="0"/>
        <pt x="368" y="233" on="0"/>
        <pt x="368" y="221" on="1"/>
        <pt x="368" y="138" on="0"/>
        <pt x="427" y="35" on="0"/>
        <pt x="477" y="35" on="1"/>
        <pt x="521" y="35" on="0"/>
        <pt x="606" y="112" on="0"/>
      </contour>
      <contour>
        <pt x="86" y="133" on="1"/>
        <pt x="86" y="95" on="0"/>
        <pt x="131" y="52" on="0"/>
        <pt x="170" y="52" on="1"/>
        <pt x="215" y="52" on="0"/>
        <pt x="295" y="88" on="0"/>
        <pt x="326" y="123" on="1"/>
        <pt x="320" y="145" on="0"/>
        <pt x="313" y="197" on="0"/>
        <pt x="313" y="225" on="1"/>
        <pt x="313" y="227" on="0"/>
        <pt x="313" y="230" on="0"/>
        <pt x="313" y="232" on="1"/>
        <pt x="202" y="241" on="0"/>
        <pt x="86" y="189" on="0"/>
      </contour>
    </TTGlyph>
    <TTGlyph name="agrave" xMin="28" yMin="-34" xMax="374" yMax="752">
      <component glyphName="a" x="0" y="0" flags="0x204"/>
      <component glyphName="grave" x="99" y="-1" flags="0x4"/>
    </TTGlyph>
    <TTGlyph name="amacron" xMin="28" yMin="-34" xMax="374" yMax="642">
      <component glyphName="a" x="0" y="0" flags="0x204"/>
      <component glyphName="macron" x="112" y="-56" flags="0x4"/>
    </TTGlyph>
    <TTGlyph name="ampersand" xMin="40" yMin="-54" xMax="685" yMax="721">
      <contour>
        <pt x="358" y="679" on="1"/>
        <pt x="321" y="679" on="0"/>
        <pt x="275" y="598" on="0"/>
        <pt x="275" y="528" on="1"/>
        <pt x="275" y="502" on="0"/>
        <pt x="280" y="452" on="0"/>
        <pt x="284" y="427" on="1"/>
        <pt x="354" y="443" on="0"/>
        <pt x="427" y="522" on="0"/>
        <pt x="427" y="581" on="1"/>
        <pt x="427" y="628" on="0"/>
        <pt x="391" y="679" on="0"/>
      </contour>
      <contour>
        <pt x="95" y="189" on="1"/>
        <pt x="95" y="98" on="0"/>
        <pt x="212" y="-10" on="0"/>
        <pt x="309" y="-10" on="1"/>
        <pt x="355" y="-10" on="0"/>
        <pt x="438" y="25" on="0"/>
        <pt x="473" y="59" on="1"/>
        <pt x="386" y="122" on="0"/>
        <pt x="268" y="283" on="0"/>
        <pt x="241" y="376" on="1"/>
        <pt x="174" y="357" on="0"/>
        <pt x="95" y="258" on="0"/>
      </contour>
      <contour>
        <pt x="685" y="2" on="1"/>
        <pt x="680" y="-10" on="0"/>
        <pt x="659" y="-30" on="0"/>
        <pt x="645" y="-36" on="1"/>
        <pt x="608" y="-21" on="0"/>
        <pt x="543" y="13" on="0"/>
        <pt x="515" y="31" on="1"/>
        <pt x="474" y="-10" on="0"/>
        <pt x="367" y="-54" on="0"/>
        <pt x="310" y="-54" on="1"/>
        <pt x="187" y="-54" on="0"/>
        <pt x="40" y="79" on="0"/>
        <pt x="40" y="185" on="1"/>
        <pt x="40" y="269" on="0"/>
        <pt x="139" y="387" on="0"/>
        <pt x="232" y="413" on="1"/>
        <pt x="226" y="441" on="0"/>
        <pt x="220" y="499" on="0"/>
        <pt x="220" y="529" on="1"/>
        <pt x="220" y="618" on="0"/>
        <pt x="297" y="721" on="0"/>
        <pt x="364" y="721" on="1"/>
        <pt x="416" y="721" on="0"/>
        <pt x="482" y="646" on="0"/>
        <pt x="482" y="586" on="1"/>
        <pt x="482" y="515" on="0"/>
        <pt x="385" y="416" on="0"/>
        <pt x="292" y="393" on="1"/>
        <pt x="315" y="307" on="0"/>
        <pt x="423" y="160" on="0"/>
        <pt x="506" y="100" on="1"/>
        <pt x="531" y="138" on="0"/>
        <pt x="558" y="229" on="0"/>
        <pt x="558" y="279" on="1"/>
        <pt x="558" y="309" on="0"/>
        <pt x="553" y="356" on="0"/>
        <pt x="547" y="383" on="1"/>
        <pt x="559" y="386" on="0"/>
        <pt x="588" y="387" on="0"/>
        <pt x="604" y="385" on="1"/>
        <pt x="608" y="359" on="0"/>
        <pt x="611" y="313" on="0"/>
        <pt x="611" y="290" on="1"/>
        <pt x="611" y="226" on="0"/>
        <pt x="580" y="117" on="0"/>
        <pt x="549" y="72" on="1"/>
        <pt x="577" y="54" on="0"/>
        <pt x="645" y="19" on="0"/>
      </contour>
    </TTGlyph>
    <TTGlyph name="aogonek" xMin="28" yMin="-230" xMax="374" yMax="533">
      <contour>
        <pt x="86" y="138" on="1"/>
        <pt x="86" y="99" on="0"/>
        <pt x="138" y="52" on="0"/>
        <pt x="180" y="52" on="1"/>
        <pt x="211" y="52" on="0"/>
        <pt x="268" y="71" on="0"/>
        <pt x="291" y="89" on="1"/>
        <pt x="301" y="136" on="0"/>
        <pt x="310" y="201" on="0"/>
        <pt x="312" y="232" on="1"/>
        <pt x="200" y="239" on="0"/>
        <pt x="86" y="192" on="0"/>
      </contour>
      <contour>
        <pt x="328" y="-137" on="1"/>
        <pt x="336" y="-143" on="0"/>
        <pt x="346" y="-160" on="0"/>
        <pt x="351" y="-173" on="1"/>
        <pt x="332" y="-203" on="0"/>
        <pt x="286" y="-230" on="0"/>
        <pt x="255" y="-230" on="1"/>
        <pt x="220" y="-230" on="0"/>
        <pt x="178" y="-189" on="0"/>
        <pt x="178" y="-156" on="1"/>
        <pt x="178" y="-121" on="0"/>
        <pt x="221" y="-55" on="0"/>
        <pt x="264" y="-24" on="1"/>
        <pt x="267" y="-11" on="0"/>
        <pt x="274" y="17" on="0"/>
        <pt x="280" y="43" on="1"/>
        <pt x="259" y="26" on="0"/>
        <pt x="205" y="8" on="0"/>
        <pt x="175" y="8" on="1"/>
        <pt x="109" y="8" on="0"/>
        <pt x="28" y="80" on="0"/>
        <pt x="28" y="138" on="1"/>
        <pt x="28" y="202" on="0"/>
        <pt x="138" y="269" on="0"/>
        <pt x="243" y="269" on="1"/>
        <pt x="257" y="269" on="0"/>
        <pt x="286" y="268" on="0"/>
        <pt x="314" y="267" on="1"/>
        <pt x="315" y="279" on="0"/>
        <pt x="315" y="308" on="0"/>
        <pt x="315" y="341" on="1"/>
        <pt x="315" y="419" on="0"/>
        <pt x="273" y="488" on="0"/>
        <pt x="224" y="488" on="1"/>
        <pt x="175" y="488" on="0"/>
        <pt x="108" y="404" on="0"/>
        <pt x="106" y="340" on="1"/>
        <pt x="84" y="345" on="0"/>
        <pt x="59" y="358" on="0"/>
        <pt x="51" y="369" on="1"/>
        <pt x="62" y="437" on="0"/>
        <pt x="167" y="533" on="0"/>
        <pt x="233" y="533" on="1"/>
        <pt x="303" y="533" on="0"/>
        <pt x="374" y="435" on="0"/>
        <pt x="374" y="338" on="1"/>
        <pt x="374" y="271" on="0"/>
        <pt x="338" y="54" on="0"/>
        <pt x="313" y="-34" on="1"/>
        <pt x="309" y="-34" on="0"/>
        <pt x="300" y="-33" on="0"/>
        <pt x="294" y="-32" on="1"/>
        <pt x="262" y="-63" on="0"/>
        <pt x="233" y="-116" on="0"/>
        <pt x="233" y="-143" on="1"/>
        <pt x="233" y="-162" on="0"/>
        <pt x="252" y="-182" on="0"/>
        <pt x="269" y="-182" on="1"/>
        <pt x="287" y="-182" on="0"/>
        <pt x="316" y="-160" on="0"/>
      </contour>
    </TTGlyph>
    <TTGlyph name="approxequal" xMin="26" yMin="216" xMax="303" yMax="421">
      <component glyphName="asciitilde" x="1" y="-65" flags="0x4"/>
      <component glyphName="asciitilde" x="0" y="51" flags="0x4"/>
    </TTGlyph>
    <TTGlyph name="aring" xMin="28" yMin="-34" xMax="374" yMax="759">
      <component glyphName="a" x="0" y="0" flags="0x204"/>
      <component glyphName="ring" x="115" y="-6" flags="0x4"/>
    </TTGlyph>
    <TTGlyph name="asa_ba" xMin="-5" yMin="-16" xMax="461" yMax="611">
      <contour>
        <pt x="364" y="291" on="1"/>
        <pt x="364" y="194" on="0"/>
        <pt x="378" y="43" on="0"/>
        <pt x="391" y="-4" on="1"/>
        <pt x="382" y="-10" on="0"/>
        <pt x="354" y="-16" on="0"/>
        <pt x="337" y="-16" on="1"/>
        <pt x="285" y="87" on="0"/>
        <pt x="149" y="208" on="0"/>
        <pt x="63" y="227" on="1"/>
        <pt x="51" y="239" on="0"/>
        <pt x="38" y="266" on="0"/>
        <pt x="36" y="285" on="1"/>
        <pt x="80" y="339" on="0"/>
        <pt x="249" y="463" on="0"/>
        <pt x="336" y="504" on="1"/>
        <pt x="338" y="522" on="0"/>
        <pt x="341" y="544" on="0"/>
        <pt x="343" y="554" on="1"/>
        <pt x="313" y="558" on="0"/>
        <pt x="261" y="561" on="0"/>
        <pt x="239" y="561" on="1"/>
        <pt x="184" y="561" on="0"/>
        <pt x="54" y="547" on="0"/>
        <pt x="0" y="535" on="1"/>
        <pt x="-3" y="540" on="0"/>
        <pt x="-5" y="552" on="0"/>
        <pt x="-5" y="560" on="1"/>
        <pt x="-5" y="566" on="0"/>
        <pt x="-2" y="577" on="0"/>
        <pt x="0" y="581" on="1"/>
        <pt x="48" y="594" on="0"/>
        <pt x="184" y="611" on="0"/>
        <pt x="243" y="611" on="1"/>
        <pt x="294" y="611" on="0"/>
        <pt x="411" y="594" on="0"/>
        <pt x="457" y="581" on="1"/>
        <pt x="459" y="578" on="0"/>
        <pt x="461" y="567" on="0"/>
        <pt x="461" y="561" on="1"/>
        <pt x="461" y="554" on="0"/>
        <pt x="459" y="541" on="0"/>
        <pt x="457" y="535" on="1"/>
        <pt x="440" y="539" on="0"/>
        <pt x="403" y="546" on="0"/>
        <pt x="385" y="549" on="1"/>
        <pt x="373" y="484" on="0"/>
        <pt x="364" y="371" on="0"/>
      </contour>
      <contour>
        <pt x="322" y="74" on="1"/>
        <pt x="319" y="100" on="0"/>
        <pt x="317" y="162" on="0"/>
        <pt x="317" y="199" on="1"/>
        <pt x="317" y="262" on="0"/>
        <pt x="322" y="381" on="0"/>
        <pt x="328" y="441" on="1"/>
        <pt x="273" y="414" on="0"/>
        <pt x="140" y="318" on="0"/>
        <pt x="96" y="271" on="1"/>
        <pt x="168" y="242" on="0"/>
        <pt x="281" y="143" on="0"/>
      </contour>
      <contour>
        <pt x="203" y="9" on="1"/>
        <pt x="177" y="51" on="0"/>
        <pt x="76" y="116" on="0"/>
        <pt x="24" y="126" on="1"/>
        <pt x="25" y="139" on="0"/>
        <pt x="33" y="165" on="0"/>
        <pt x="40" y="176" on="1"/>
        <pt x="98" y="157" on="0"/>
        <pt x="203" y="76" on="0"/>
        <pt x="227" y="28" on="1"/>
        <pt x="223" y="22" on="0"/>
        <pt x="212" y="13" on="0"/>
      </contour>
    </TTGlyph>
    <TTGlyph name="asa_ba.half" xMin="-5" yMin="104" xMax="461" yMax="611">
      <contour>
        <pt x="364" y="371" on="1"/>
        <pt x="364" y="299" on="0"/>
        <pt x="378" y="185" on="0"/>
        <pt x="391" y="150" on="1"/>
        <pt x="382" y="145" on="0"/>
        <pt x="355" y="141" on="0"/>
        <pt x="337" y="141" on="1"/>
        <pt x="285" y="219" on="0"/>
        <pt x="149" y="309" on="0"/>
        <pt x="63" y="323" on="1"/>
        <pt x="50" y="333" on="0"/>
        <pt x="37" y="355" on="0"/>
        <pt x="35" y="371" on="1"/>
        <pt x="78" y="411" on="0"/>
        <pt x="249" y="504" on="0"/>
        <pt x="336" y="535" on="1"/>
        <pt x="337" y="539" on="0"/>
        <pt x="339" y="548" on="0"/>
        <pt x="340" y="555" on="1"/>
        <pt x="316" y="558" on="0"/>
        <pt x="264" y="561" on="0"/>
        <pt x="239" y="561" on="1"/>
        <pt x="184" y="561" on="0"/>
        <pt x="54" y="547" on="0"/>
        <pt x="0" y="535" on="1"/>
        <pt x="-3" y="540" on="0"/>
        <pt x="-5" y="552" on="0"/>
        <pt x="-5" y="560" on="1"/>
        <pt x="-5" y="566" on="0"/>
        <pt x="-2" y="577" on="0"/>
        <pt x="0" y="581" on="1"/>
        <pt x="48" y="594" on="0"/>
        <pt x="184" y="611" on="0"/>
        <pt x="243" y="611" on="1"/>
        <pt x="294" y="611" on="0"/>
        <pt x="411" y="594" on="0"/>
        <pt x="457" y="581" on="1"/>
        <pt x="459" y="578" on="0"/>
        <pt x="461" y="567" on="0"/>
        <pt x="461" y="561" on="1"/>
        <pt x="461" y="554" on="0"/>
        <pt x="459" y="541" on="0"/>
        <pt x="457" y="535" on="1"/>
        <pt x="439" y="539" on="0"/>
        <pt x="400" y="546" on="0"/>
        <pt x="381" y="549" on="1"/>
        <pt x="372" y="503" on="0"/>
        <pt x="364" y="423" on="0"/>
      </contour>
      <contour>
        <pt x="321" y="210" on="1"/>
        <pt x="319" y="235" on="0"/>
        <pt x="317" y="278" on="0"/>
        <pt x="317" y="302" on="1"/>
        <pt x="317" y="350" on="0"/>
        <pt x="322" y="439" on="0"/>
        <pt x="328" y="484" on="1"/>
        <pt x="274" y="464" on="0"/>
        <pt x="148" y="396" on="0"/>
        <pt x="105" y="362" on="1"/>
        <pt x="171" y="342" on="0"/>
        <pt x="280" y="265" on="0"/>
      </contour>
      <contour>
        <pt x="260" y="127" on="1"/>
        <pt x="244" y="104" on="1"/>
        <pt x="211" y="156" on="0"/>
        <pt x="114" y="220" on="0"/>
        <pt x="52" y="230" on="1"/>
        <pt x="73" y="267" on="1"/>
        <pt x="138" y="251" on="0"/>
        <pt x="234" y="179" on="0"/>
      </contour>
    </TTGlyph>
    <TTGlyph name="asa_ba_ukaar" xMin="-5" yMin="-67" xMax="641" yMax="618">
      <contour>
        <pt x="322" y="74" on="1"/>
        <pt x="319" y="100" on="0"/>
        <pt x="317" y="162" on="0"/>
        <pt x="317" y="199" on="1"/>
        <pt x="317" y="265" on="0"/>
        <pt x="323" y="384" on="0"/>
        <pt x="329" y="441" on="1"/>
        <pt x="273" y="415" on="0"/>
        <pt x="140" y="318" on="0"/>
        <pt x="96" y="271" on="1"/>
        <pt x="168" y="242" on="0"/>
        <pt x="281" y="143" on="0"/>
      </contour>
      <contour>
        <pt x="364" y="248" on="1"/>
        <pt x="366" y="163" on="0"/>
        <pt x="380" y="37" on="0"/>
        <pt x="391" y="-4" on="1"/>
        <pt x="382" y="-10" on="0"/>
        <pt x="354" y="-16" on="0"/>
        <pt x="337" y="-16" on="1"/>
        <pt x="285" y="87" on="0"/>
        <pt x="149" y="208" on="0"/>
        <pt x="63" y="227" on="1"/>
        <pt x="51" y="239" on="0"/>
        <pt x="38" y="266" on="0"/>
        <pt x="36" y="285" on="1"/>
        <pt x="80" y="339" on="0"/>
        <pt x="249" y="463" on="0"/>
        <pt x="336" y="504" on="1"/>
        <pt x="340" y="530" on="0"/>
        <pt x="344" y="556" on="0"/>
        <pt x="346" y="567" on="1"/>
        <pt x="337" y="568" on="0"/>
        <pt x="317" y="568" on="0"/>
        <pt x="297" y="568" on="1"/>
        <pt x="227" y="568" on="0"/>
        <pt x="74" y="551" on="0"/>
        <pt x="0" y="535" on="1"/>
        <pt x="-2" y="540" on="0"/>
        <pt x="-5" y="553" on="0"/>
        <pt x="-5" y="560" on="1"/>
        <pt x="-5" y="565" on="0"/>
        <pt x="-2" y="577" on="0"/>
        <pt x="0" y="581" on="1"/>
        <pt x="69" y="598" on="0"/>
        <pt x="226" y="618" on="0"/>
        <pt x="298" y="618" on="1"/>
        <pt x="386" y="618" on="0"/>
        <pt x="568" y="598" on="0"/>
        <pt x="636" y="581" on="1"/>
        <pt x="638" y="577" on="0"/>
        <pt x="641" y="565" on="0"/>
        <pt x="641" y="559" on="1"/>
        <pt x="641" y="554" on="0"/>
        <pt x="638" y="540" on="0"/>
        <pt x="636" y="535" on="1"/>
        <pt x="587" y="546" on="0"/>
        <pt x="457" y="562" on="0"/>
        <pt x="388" y="566" on="1"/>
        <pt x="375" y="497" on="0"/>
        <pt x="365" y="387" on="0"/>
        <pt x="364" y="319" on="1"/>
        <pt x="381" y="270" on="0"/>
        <pt x="443" y="214" on="0"/>
        <pt x="479" y="214" on="1"/>
        <pt x="517" y="214" on="0"/>
        <pt x="567" y="275" on="0"/>
        <pt x="567" y="323" on="1"/>
        <pt x="567" y="360" on="0"/>
        <pt x="537" y="405" on="0"/>
        <pt x="513" y="405" on="1"/>
        <pt x="492" y="405" on="0"/>
        <pt x="461" y="367" on="0"/>
        <pt x="455" y="334" on="1"/>
        <pt x="446" y="343" on="0"/>
        <pt x="429" y="374" on="0"/>
        <pt x="426" y="388" on="1"/>
        <pt x="439" y="418" on="0"/>
        <pt x="483" y="452" on="0"/>
        <pt x="511" y="452" on="1"/>
        <pt x="554" y="452" on="0"/>
        <pt x="611" y="377" on="0"/>
        <pt x="611" y="318" on="1"/>
        <pt x="611" y="252" on="0"/>
        <pt x="541" y="165" on="0"/>
        <pt x="486" y="165" on="1"/>
        <pt x="449" y="165" on="0"/>
        <pt x="386" y="208" on="0"/>
      </contour>
      <contour>
        <pt x="259" y="-67" on="1"/>
        <pt x="220" y="5" on="0"/>
        <pt x="87" y="113" on="0"/>
        <pt x="24" y="126" on="1"/>
        <pt x="25" y="139" on="0"/>
        <pt x="33" y="165" on="0"/>
        <pt x="40" y="176" on="1"/>
        <pt x="111" y="153" on="0"/>
        <pt x="249" y="27" on="0"/>
        <pt x="283" y="-48" on="1"/>
        <pt x="279" y="-54" on="0"/>
        <pt x="268" y="-63" on="0"/>
      </contour>
    </TTGlyph>
    <TTGlyph name="asa_ba_uukaar" xMin="-5" yMin="-67" xMax="641" yMax="618">
      <contour>
        <pt x="322" y="74" on="1"/>
        <pt x="319" y="100" on="0"/>
        <pt x="317" y="162" on="0"/>
        <pt x="317" y="199" on="1"/>
        <pt x="317" y="265" on="0"/>
        <pt x="323" y="384" on="0"/>
        <pt x="329" y="441" on="1"/>
        <pt x="273" y="415" on="0"/>
        <pt x="140" y="318" on="0"/>
        <pt x="96" y="271" on="1"/>
        <pt x="168" y="242" on="0"/>
        <pt x="281" y="143" on="0"/>
      </contour>
      <contour>
        <pt x="364" y="291" on="1"/>
        <pt x="364" y="194" on="0"/>
        <pt x="378" y="43" on="0"/>
        <pt x="391" y="-4" on="1"/>
        <pt x="382" y="-10" on="0"/>
        <pt x="354" y="-16" on="0"/>
        <pt x="337" y="-16" on="1"/>
        <pt x="285" y="87" on="0"/>
        <pt x="149" y="208" on="0"/>
        <pt x="63" y="227" on="1"/>
        <pt x="51" y="239" on="0"/>
        <pt x="38" y="266" on="0"/>
        <pt x="36" y="285" on="1"/>
        <pt x="80" y="339" on="0"/>
        <pt x="249" y="463" on="0"/>
        <pt x="336" y="504" on="1"/>
        <pt x="340" y="530" on="0"/>
        <pt x="344" y="556" on="0"/>
        <pt x="346" y="567" on="1"/>
        <pt x="337" y="568" on="0"/>
        <pt x="317" y="568" on="0"/>
        <pt x="297" y="568" on="1"/>
        <pt x="227" y="568" on="0"/>
        <pt x="74" y="551" on="0"/>
        <pt x="0" y="535" on="1"/>
        <pt x="-2" y="540" on="0"/>
        <pt x="-5" y="553" on="0"/>
        <pt x="-5" y="560" on="1"/>
        <pt x="-5" y="565" on="0"/>
        <pt x="-2" y="577" on="0"/>
        <pt x="0" y="581" on="1"/>
        <pt x="69" y="598" on="0"/>
        <pt x="226" y="618" on="0"/>
        <pt x="298" y="618" on="1"/>
        <pt x="386" y="618" on="0"/>
        <pt x="568" y="598" on="0"/>
        <pt x="636" y="581" on="1"/>
        <pt x="638" y="577" on="0"/>
        <pt x="641" y="565" on="0"/>
        <pt x="641" y="559" on="1"/>
        <pt x="641" y="554" on="0"/>
        <pt x="638" y="540" on="0"/>
        <pt x="636" y="535" on="1"/>
        <pt x="587" y="546" on="0"/>
        <pt x="457" y="562" on="0"/>
        <pt x="388" y="566" on="1"/>
        <pt x="381" y="526" on="0"/>
        <pt x="371" y="455" on="0"/>
        <pt x="368" y="418" on="1"/>
        <pt x="419" y="441" on="0"/>
        <pt x="489" y="469" on="0"/>
        <pt x="519" y="479" on="1"/>
        <pt x="539" y="438" on="1"/>
        <pt x="532" y="405" on="0"/>
        <pt x="525" y="342" on="0"/>
        <pt x="525" y="312" on="1"/>
        <pt x="525" y="261" on="0"/>
        <pt x="544" y="166" on="0"/>
        <pt x="562" y="123" on="1"/>
        <pt x="554" y="118" on="0"/>
        <pt x="527" y="112" on="0"/>
        <pt x="508" y="112" on="1"/>
        <pt x="495" y="158" on="0"/>
        <pt x="481" y="253" on="0"/>
        <pt x="481" y="302" on="1"/>
        <pt x="481" y="332" on="0"/>
        <pt x="486" y="390" on="0"/>
        <pt x="491" y="418" on="1"/>
        <pt x="460" y="405" on="0"/>
        <pt x="397" y="377" on="0"/>
        <pt x="365" y="361" on="1"/>
        <pt x="364" y="349" on="0"/>
        <pt x="364" y="321" on="0"/>
      </contour>
      <contour>
        <pt x="259" y="-67" on="1"/>
        <pt x="220" y="5" on="0"/>
        <pt x="87" y="113" on="0"/>
        <pt x="24" y="126" on="1"/>
        <pt x="25" y="139" on="0"/>
        <pt x="33" y="165" on="0"/>
        <pt x="40" y="176" on="1"/>
        <pt x="111" y="153" on="0"/>
        <pt x="249" y="27" on="0"/>
        <pt x="283" y="-48" on="1"/>
        <pt x="279" y="-54" on="0"/>
        <pt x="268" y="-63" on="0"/>
      </contour>
    </TTGlyph>
    <TTGlyph name="asa_ra" xMin="-6" yMin="-16" xMax="460" yMax="611">
      <contour>
        <pt x="363" y="291" on="1"/>
        <pt x="363" y="194" on="0"/>
        <pt x="377" y="43" on="0"/>
        <pt x="390" y="-4" on="1"/>
        <pt x="381" y="-10" on="0"/>
        <pt x="353" y="-16" on="0"/>
        <pt x="336" y="-16" on="1"/>
        <pt x="284" y="87" on="0"/>
        <pt x="148" y="208" on="0"/>
        <pt x="62" y="227" on="1"/>
        <pt x="50" y="239" on="0"/>
        <pt x="37" y="266" on="0"/>
        <pt x="35" y="285" on="1"/>
        <pt x="79" y="339" on="0"/>
        <pt x="248" y="463" on="0"/>
        <pt x="335" y="504" on="1"/>
        <pt x="337" y="522" on="0"/>
        <pt x="340" y="544" on="0"/>
        <pt x="342" y="554" on="1"/>
        <pt x="312" y="558" on="0"/>
        <pt x="260" y="561" on="0"/>
        <pt x="238" y="561" on="1"/>
        <pt x="183" y="561" on="0"/>
        <pt x="53" y="547" on="0"/>
        <pt x="-1" y="535" on="1"/>
        <pt x="-4" y="540" on="0"/>
        <pt x="-6" y="552" on="0"/>
        <pt x="-6" y="560" on="1"/>
        <pt x="-6" y="566" on="0"/>
        <pt x="-3" y="577" on="0"/>
        <pt x="-1" y="581" on="1"/>
        <pt x="47" y="594" on="0"/>
        <pt x="183" y="611" on="0"/>
        <pt x="242" y="611" on="1"/>
        <pt x="293" y="611" on="0"/>
        <pt x="410" y="594" on="0"/>
        <pt x="456" y="581" on="1"/>
        <pt x="458" y="578" on="0"/>
        <pt x="460" y="567" on="0"/>
        <pt x="460" y="561" on="1"/>
        <pt x="460" y="554" on="0"/>
        <pt x="458" y="541" on="0"/>
        <pt x="456" y="535" on="1"/>
        <pt x="439" y="539" on="0"/>
        <pt x="402" y="546" on="0"/>
        <pt x="384" y="549" on="1"/>
        <pt x="372" y="484" on="0"/>
        <pt x="363" y="371" on="0"/>
      </contour>
      <contour>
        <pt x="187" y="352" on="1"/>
        <pt x="227" y="334" on="0"/>
        <pt x="292" y="275" on="0"/>
        <pt x="316" y="235" on="1"/>
        <pt x="317" y="287" on="0"/>
        <pt x="322" y="387" on="0"/>
        <pt x="327" y="441" on="1"/>
        <pt x="297" y="427" on="0"/>
        <pt x="223" y="380" on="0"/>
      </contour>
      <contour>
        <pt x="95" y="271" on="1"/>
        <pt x="167" y="242" on="0"/>
        <pt x="280" y="143" on="0"/>
        <pt x="321" y="74" on="1"/>
        <pt x="318" y="97" on="0"/>
        <pt x="316" y="149" on="0"/>
        <pt x="316" y="179" on="1"/>
        <pt x="286" y="234" on="0"/>
        <pt x="201" y="305" on="0"/>
        <pt x="147" y="320" on="1"/>
        <pt x="123" y="298" on="0"/>
        <pt x="103" y="279" on="0"/>
      </contour>
    </TTGlyph>
    <TTGlyph name="asa_ra.half" xMin="-5" yMin="141" xMax="461" yMax="611">
      <contour>
        <pt x="364" y="371" on="1"/>
        <pt x="364" y="299" on="0"/>
        <pt x="378" y="185" on="0"/>
        <pt x="391" y="150" on="1"/>
        <pt x="382" y="145" on="0"/>
        <pt x="355" y="141" on="0"/>
        <pt x="337" y="141" on="1"/>
        <pt x="285" y="219" on="0"/>
        <pt x="149" y="309" on="0"/>
        <pt x="63" y="323" on="1"/>
        <pt x="50" y="333" on="0"/>
        <pt x="37" y="355" on="0"/>
        <pt x="35" y="371" on="1"/>
        <pt x="78" y="411" on="0"/>
        <pt x="249" y="504" on="0"/>
        <pt x="336" y="535" on="1"/>
        <pt x="337" y="539" on="0"/>
        <pt x="339" y="548" on="0"/>
        <pt x="340" y="555" on="1"/>
        <pt x="316" y="558" on="0"/>
        <pt x="264" y="561" on="0"/>
        <pt x="239" y="561" on="1"/>
        <pt x="184" y="561" on="0"/>
        <pt x="54" y="547" on="0"/>
        <pt x="0" y="535" on="1"/>
        <pt x="-3" y="540" on="0"/>
        <pt x="-5" y="552" on="0"/>
        <pt x="-5" y="560" on="1"/>
        <pt x="-5" y="566" on="0"/>
        <pt x="-2" y="577" on="0"/>
        <pt x="0" y="581" on="1"/>
        <pt x="48" y="594" on="0"/>
        <pt x="184" y="611" on="0"/>
        <pt x="243" y="611" on="1"/>
        <pt x="294" y="611" on="0"/>
        <pt x="411" y="594" on="0"/>
        <pt x="457" y="581" on="1"/>
        <pt x="459" y="578" on="0"/>
        <pt x="461" y="567" on="0"/>
        <pt x="461" y="561" on="1"/>
        <pt x="461" y="554" on="0"/>
        <pt x="459" y="541" on="0"/>
        <pt x="457" y="535" on="1"/>
        <pt x="439" y="539" on="0"/>
        <pt x="400" y="546" on="0"/>
        <pt x="381" y="549" on="1"/>
        <pt x="372" y="503" on="0"/>
        <pt x="364" y="423" on="0"/>
      </contour>
      <contour>
        <pt x="193" y="420" on="1"/>
        <pt x="231" y="406" on="0"/>
        <pt x="294" y="363" on="0"/>
        <pt x="317" y="334" on="1"/>
        <pt x="318" y="372" on="0"/>
        <pt x="323" y="446" on="0"/>
        <pt x="328" y="484" on="1"/>
        <pt x="301" y="474" on="0"/>
        <pt x="232" y="441" on="0"/>
      </contour>
      <contour>
        <pt x="105" y="362" on="1"/>
        <pt x="171" y="342" on="0"/>
        <pt x="280" y="265" on="0"/>
        <pt x="321" y="210" on="1"/>
        <pt x="320" y="222" on="0"/>
        <pt x="318" y="255" on="0"/>
        <pt x="317" y="286" on="1"/>
        <pt x="286" y="329" on="0"/>
        <pt x="199" y="382" on="0"/>
        <pt x="147" y="392" on="1"/>
        <pt x="136" y="385" on="0"/>
        <pt x="115" y="370" on="0"/>
      </contour>
    </TTGlyph>
    <TTGlyph name="asa_ra_ukaar" xMin="-5" yMin="-16" xMax="641" yMax="618">
      <contour>
        <pt x="188" y="352" on="1"/>
        <pt x="228" y="333" on="0"/>
        <pt x="294" y="273" on="0"/>
        <pt x="317" y="233" on="1"/>
        <pt x="318" y="289" on="0"/>
        <pt x="324" y="391" on="0"/>
        <pt x="329" y="441" on="1"/>
        <pt x="299" y="427" on="0"/>
        <pt x="224" y="380" on="0"/>
      </contour>
      <contour>
        <pt x="96" y="271" on="1"/>
        <pt x="168" y="242" on="0"/>
        <pt x="281" y="143" on="0"/>
        <pt x="322" y="74" on="1"/>
        <pt x="320" y="90" on="0"/>
        <pt x="318" y="133" on="0"/>
        <pt x="317" y="177" on="1"/>
        <pt x="286" y="233" on="0"/>
        <pt x="201" y="305" on="0"/>
        <pt x="148" y="319" on="1"/>
        <pt x="131" y="304" on="0"/>
        <pt x="106" y="281" on="0"/>
      </contour>
      <contour>
        <pt x="364" y="248" on="1"/>
        <pt x="366" y="163" on="0"/>
        <pt x="380" y="37" on="0"/>
        <pt x="391" y="-4" on="1"/>
        <pt x="382" y="-10" on="0"/>
        <pt x="354" y="-16" on="0"/>
        <pt x="337" y="-16" on="1"/>
        <pt x="285" y="87" on="0"/>
        <pt x="149" y="208" on="0"/>
        <pt x="63" y="227" on="1"/>
        <pt x="51" y="239" on="0"/>
        <pt x="38" y="266" on="0"/>
        <pt x="36" y="285" on="1"/>
        <pt x="80" y="339" on="0"/>
        <pt x="249" y="463" on="0"/>
        <pt x="336" y="504" on="1"/>
        <pt x="340" y="530" on="0"/>
        <pt x="344" y="556" on="0"/>
        <pt x="346" y="567" on="1"/>
        <pt x="337" y="568" on="0"/>
        <pt x="317" y="568" on="0"/>
        <pt x="297" y="568" on="1"/>
        <pt x="227" y="568" on="0"/>
        <pt x="74" y="551" on="0"/>
        <pt x="0" y="535" on="1"/>
        <pt x="-2" y="540" on="0"/>
        <pt x="-5" y="553" on="0"/>
        <pt x="-5" y="560" on="1"/>
        <pt x="-5" y="565" on="0"/>
        <pt x="-2" y="577" on="0"/>
        <pt x="0" y="581" on="1"/>
        <pt x="69" y="598" on="0"/>
        <pt x="226" y="618" on="0"/>
        <pt x="298" y="618" on="1"/>
        <pt x="386" y="618" on="0"/>
        <pt x="568" y="598" on="0"/>
        <pt x="636" y="581" on="1"/>
        <pt x="638" y="577" on="0"/>
        <pt x="641" y="565" on="0"/>
        <pt x="641" y="559" on="1"/>
        <pt x="641" y="554" on="0"/>
        <pt x="638" y="540" on="0"/>
        <pt x="636" y="535" on="1"/>
        <pt x="587" y="546" on="0"/>
        <pt x="457" y="562" on="0"/>
        <pt x="388" y="566" on="1"/>
        <pt x="375" y="497" on="0"/>
        <pt x="365" y="387" on="0"/>
        <pt x="364" y="319" on="1"/>
        <pt x="381" y="270" on="0"/>
        <pt x="443" y="214" on="0"/>
        <pt x="479" y="214" on="1"/>
        <pt x="517" y="214" on="0"/>
        <pt x="567" y="275" on="0"/>
        <pt x="567" y="323" on="1"/>
        <pt x="567" y="360" on="0"/>
        <pt x="537" y="405" on="0"/>
        <pt x="513" y="405" on="1"/>
        <pt x="492" y="405" on="0"/>
        <pt x="461" y="367" on="0"/>
        <pt x="455" y="334" on="1"/>
        <pt x="446" y="343" on="0"/>
        <pt x="429" y="374" on="0"/>
        <pt x="426" y="388" on="1"/>
        <pt x="439" y="418" on="0"/>
        <pt x="483" y="452" on="0"/>
        <pt x="511" y="452" on="1"/>
        <pt x="554" y="452" on="0"/>
        <pt x="611" y="377" on="0"/>
        <pt x="611" y="318" on="1"/>
        <pt x="611" y="252" on="0"/>
        <pt x="541" y="165" on="0"/>
        <pt x="486" y="165" on="1"/>
        <pt x="449" y="165" on="0"/>
        <pt x="386" y="208" on="0"/>
      </contour>
    </TTGlyph>
    <TTGlyph name="asa_ra_uukaar" xMin="-5" yMin="-16" xMax="641" yMax="618">
      <contour>
        <pt x="188" y="352" on="1"/>
        <pt x="228" y="333" on="0"/>
        <pt x="294" y="273" on="0"/>
        <pt x="317" y="233" on="1"/>
        <pt x="318" y="289" on="0"/>
        <pt x="324" y="391" on="0"/>
        <pt x="329" y="441" on="1"/>
        <pt x="299" y="427" on="0"/>
        <pt x="224" y="380" on="0"/>
      </contour>
      <contour>
        <pt x="364" y="291" on="1"/>
        <pt x="364" y="194" on="0"/>
        <pt x="378" y="43" on="0"/>
        <pt x="391" y="-4" on="1"/>
        <pt x="382" y="-10" on="0"/>
        <pt x="354" y="-16" on="0"/>
        <pt x="337" y="-16" on="1"/>
        <pt x="285" y="87" on="0"/>
        <pt x="149" y="208" on="0"/>
        <pt x="63" y="227" on="1"/>
        <pt x="51" y="239" on="0"/>
        <pt x="38" y="266" on="0"/>
        <pt x="36" y="285" on="1"/>
        <pt x="80" y="339" on="0"/>
        <pt x="249" y="463" on="0"/>
        <pt x="336" y="504" on="1"/>
        <pt x="340" y="530" on="0"/>
        <pt x="344" y="556" on="0"/>
        <pt x="346" y="567" on="1"/>
        <pt x="337" y="568" on="0"/>
        <pt x="317" y="568" on="0"/>
        <pt x="297" y="568" on="1"/>
        <pt x="227" y="568" on="0"/>
        <pt x="74" y="551" on="0"/>
        <pt x="0" y="535" on="1"/>
        <pt x="-2" y="540" on="0"/>
        <pt x="-5" y="553" on="0"/>
        <pt x="-5" y="560" on="1"/>
        <pt x="-5" y="565" on="0"/>
        <pt x="-2" y="577" on="0"/>
        <pt x="0" y="581" on="1"/>
        <pt x="69" y="598" on="0"/>
        <pt x="226" y="618" on="0"/>
        <pt x="298" y="618" on="1"/>
        <pt x="386" y="618" on="0"/>
        <pt x="568" y="598" on="0"/>
        <pt x="636" y="581" on="1"/>
        <pt x="638" y="577" on="0"/>
        <pt x="641" y="565" on="0"/>
        <pt x="641" y="559" on="1"/>
        <pt x="641" y="554" on="0"/>
        <pt x="638" y="540" on="0"/>
        <pt x="636" y="535" on="1"/>
        <pt x="587" y="546" on="0"/>
        <pt x="457" y="562" on="0"/>
        <pt x="388" y="566" on="1"/>
        <pt x="381" y="526" on="0"/>
        <pt x="371" y="455" on="0"/>
        <pt x="368" y="418" on="1"/>
        <pt x="419" y="441" on="0"/>
        <pt x="489" y="469" on="0"/>
        <pt x="519" y="479" on="1"/>
        <pt x="539" y="438" on="1"/>
        <pt x="532" y="405" on="0"/>
        <pt x="525" y="342" on="0"/>
        <pt x="525" y="312" on="1"/>
        <pt x="525" y="261" on="0"/>
        <pt x="544" y="166" on="0"/>
        <pt x="562" y="123" on="1"/>
        <pt x="554" y="118" on="0"/>
        <pt x="527" y="112" on="0"/>
        <pt x="508" y="112" on="1"/>
        <pt x="495" y="158" on="0"/>
        <pt x="481" y="253" on="0"/>
        <pt x="481" y="302" on="1"/>
        <pt x="481" y="332" on="0"/>
        <pt x="486" y="390" on="0"/>
        <pt x="491" y="418" on="1"/>
        <pt x="460" y="405" on="0"/>
        <pt x="397" y="377" on="0"/>
        <pt x="365" y="361" on="1"/>
        <pt x="364" y="349" on="0"/>
        <pt x="364" y="321" on="0"/>
      </contour>
      <contour>
        <pt x="96" y="271" on="1"/>
        <pt x="168" y="242" on="0"/>
        <pt x="281" y="143" on="0"/>
        <pt x="322" y="74" on="1"/>
        <pt x="320" y="90" on="0"/>
        <pt x="318" y="133" on="0"/>
        <pt x="317" y="177" on="1"/>
        <pt x="286" y="233" on="0"/>
        <pt x="201" y="305" on="0"/>
        <pt x="148" y="319" on="1"/>
        <pt x="131" y="304" on="0"/>
        <pt x="106" y="281" on="0"/>
      </contour>
    </TTGlyph>
    <TTGlyph name="asciicircum" xMin="30" yMin="215" xMax="347" yMax="495">
      <contour>
        <pt x="347" y="228" on="1"/>
        <pt x="341" y="226" on="0"/>
        <pt x="318" y="217" on="0"/>
        <pt x="310" y="215" on="1"/>
        <pt x="280" y="284" on="0"/>
        <pt x="221" y="395" on="0"/>
        <pt x="187" y="446" on="1"/>
        <pt x="159" y="408" on="0"/>
        <pt x="103" y="301" on="0"/>
        <pt x="67" y="218" on="1"/>
        <pt x="58" y="219" on="0"/>
        <pt x="40" y="225" on="0"/>
        <pt x="30" y="231" on="1"/>
        <pt x="63" y="316" on="0"/>
        <pt x="131" y="443" on="0"/>
        <pt x="171" y="495" on="1"/>
        <pt x="206" y="492" on="1"/>
        <pt x="247" y="435" on="0"/>
        <pt x="312" y="314" on="0"/>
      </contour>
    </TTGlyph>
    <TTGlyph name="asciitilde" xMin="26" yMin="281" xMax="302" yMax="370">
      <contour>
        <pt x="173" y="342" on="1"/>
        <pt x="196" y="333" on="0"/>
        <pt x="215" y="328" on="0"/>
        <pt x="222" y="328" on="1"/>
        <pt x="242" y="328" on="0"/>
        <pt x="261" y="350" on="0"/>
        <pt x="260" y="369" on="1"/>
        <pt x="271" y="370" on="0"/>
        <pt x="288" y="367" on="0"/>
        <pt x="299" y="362" on="1"/>
        <pt x="302" y="330" on="0"/>
        <pt x="261" y="288" on="0"/>
        <pt x="228" y="288" on="1"/>
        <pt x="214" y="288" on="0"/>
        <pt x="180" y="296" on="0"/>
        <pt x="148" y="308" on="1"/>
        <pt x="126" y="317" on="0"/>
        <pt x="107" y="322" on="0"/>
        <pt x="100" y="322" on="1"/>
        <pt x="80" y="322" on="0"/>
        <pt x="64" y="303" on="0"/>
        <pt x="65" y="282" on="1"/>
        <pt x="58" y="281" on="0"/>
        <pt x="42" y="284" on="0"/>
        <pt x="29" y="289" on="1"/>
        <pt x="26" y="321" on="0"/>
        <pt x="65" y="362" on="0"/>
        <pt x="98" y="362" on="1"/>
        <pt x="111" y="362" on="0"/>
        <pt x="143" y="354" on="0"/>
      </contour>
    </TTGlyph>
    <TTGlyph name="asterisk" xMin="30" yMin="314" xMax="397" yMax="709">
      <contour>
        <pt x="233" y="476" on="1"/>
        <pt x="233" y="435" on="0"/>
        <pt x="236" y="362" on="0"/>
        <pt x="239" y="317" on="1"/>
        <pt x="232" y="316" on="0"/>
        <pt x="212" y="314" on="0"/>
        <pt x="203" y="314" on="1"/>
        <pt x="198" y="314" on="0"/>
        <pt x="187" y="316" on="0"/>
        <pt x="185" y="316" on="1"/>
        <pt x="184" y="349" on="0"/>
        <pt x="187" y="420" on="0"/>
        <pt x="192" y="477" on="1"/>
        <pt x="161" y="458" on="0"/>
        <pt x="101" y="420" on="0"/>
        <pt x="58" y="391" on="1"/>
        <pt x="57" y="392" on="0"/>
        <pt x="40" y="416" on="0"/>
        <pt x="37" y="423" on="1"/>
        <pt x="35" y="427" on="0"/>
        <pt x="31" y="436" on="0"/>
        <pt x="30" y="438" on="1"/>
        <pt x="56" y="455" on="0"/>
        <pt x="116" y="487" on="0"/>
        <pt x="171" y="513" on="1"/>
        <pt x="145" y="528" on="0"/>
        <pt x="91" y="557" on="0"/>
        <pt x="32" y="586" on="1"/>
        <pt x="38" y="600" on="0"/>
        <pt x="45" y="615" on="0"/>
        <pt x="48" y="620" on="1"/>
        <pt x="50" y="624" on="0"/>
        <pt x="56" y="632" on="0"/>
        <pt x="58" y="634" on="1"/>
        <pt x="91" y="616" on="0"/>
        <pt x="153" y="578" on="0"/>
        <pt x="194" y="549" on="1"/>
        <pt x="194" y="589" on="0"/>
        <pt x="191" y="661" on="0"/>
        <pt x="188" y="706" on="1"/>
        <pt x="195" y="707" on="0"/>
        <pt x="215" y="709" on="0"/>
        <pt x="224" y="709" on="1"/>
        <pt x="229" y="709" on="0"/>
        <pt x="240" y="707" on="0"/>
        <pt x="242" y="707" on="1"/>
        <pt x="243" y="675" on="0"/>
        <pt x="241" y="605" on="0"/>
        <pt x="236" y="546" on="1"/>
        <pt x="283" y="574" on="0"/>
        <pt x="341" y="612" on="0"/>
        <pt x="369" y="632" on="1"/>
        <pt x="370" y="631" on="0"/>
        <pt x="387" y="607" on="0"/>
        <pt x="390" y="600" on="1"/>
        <pt x="392" y="596" on="0"/>
        <pt x="396" y="587" on="0"/>
        <pt x="397" y="585" on="1"/>
        <pt x="374" y="570" on="0"/>
        <pt x="320" y="541" on="0"/>
        <pt x="254" y="510" on="1"/>
        <pt x="290" y="489" on="0"/>
        <pt x="356" y="455" on="0"/>
        <pt x="395" y="437" on="1"/>
        <pt x="389" y="423" on="0"/>
        <pt x="382" y="408" on="0"/>
        <pt x="379" y="403" on="1"/>
        <pt x="377" y="399" on="0"/>
        <pt x="371" y="391" on="0"/>
        <pt x="369" y="389" on="1"/>
        <pt x="340" y="404" on="0"/>
        <pt x="282" y="441" on="0"/>
      </contour>
    </TTGlyph>
    <TTGlyph name="at" xMin="45" yMin="-93" xMax="805" yMax="718">
      <contour>
        <pt x="634" y="-33" on="1"/>
        <pt x="586" y="-62" on="0"/>
        <pt x="472" y="-93" on="0"/>
        <pt x="411" y="-93" on="1"/>
        <pt x="248" y="-93" on="0"/>
        <pt x="45" y="119" on="0"/>
        <pt x="45" y="292" on="1"/>
        <pt x="45" y="488" on="0"/>
        <pt x="261" y="718" on="0"/>
        <pt x="446" y="718" on="1"/>
        <pt x="614" y="718" on="0"/>
        <pt x="805" y="518" on="0"/>
        <pt x="805" y="355" on="1"/>
        <pt x="805" y="235" on="0"/>
        <pt x="699" y="85" on="0"/>
        <pt x="617" y="85" on="1"/>
        <pt x="571" y="85" on="0"/>
        <pt x="511" y="136" on="0"/>
        <pt x="499" y="185" on="1"/>
        <pt x="481" y="140" on="0"/>
        <pt x="427" y="96" on="0"/>
        <pt x="388" y="96" on="1"/>
        <pt x="329" y="96" on="0"/>
        <pt x="254" y="206" on="0"/>
        <pt x="254" y="295" on="1"/>
        <pt x="254" y="403" on="0"/>
        <pt x="350" y="533" on="0"/>
        <pt x="428" y="533" on="1"/>
        <pt x="442" y="533" on="0"/>
        <pt x="473" y="528" on="0"/>
        <pt x="488" y="523" on="1"/>
        <pt x="488" y="530" on="0"/>
        <pt x="488" y="543" on="0"/>
        <pt x="488" y="550" on="1"/>
        <pt x="501" y="556" on="0"/>
        <pt x="534" y="558" on="0"/>
        <pt x="551" y="554" on="1"/>
        <pt x="545" y="473" on="0"/>
        <pt x="540" y="359" on="0"/>
        <pt x="540" y="312" on="1"/>
        <pt x="540" y="215" on="0"/>
        <pt x="576" y="129" on="0"/>
        <pt x="618" y="129" on="1"/>
        <pt x="676" y="129" on="0"/>
        <pt x="750" y="255" on="0"/>
        <pt x="750" y="357" on="1"/>
        <pt x="750" y="499" on="0"/>
        <pt x="580" y="674" on="0"/>
        <pt x="434" y="674" on="1"/>
        <pt x="285" y="674" on="0"/>
        <pt x="100" y="471" on="0"/>
        <pt x="100" y="305" on="1"/>
        <pt x="100" y="142" on="0"/>
        <pt x="272" y="-49" on="0"/>
        <pt x="419" y="-49" on="1"/>
        <pt x="479" y="-49" on="0"/>
        <pt x="571" y="-21" on="0"/>
        <pt x="606" y="9" on="1"/>
        <pt x="613" y="2" on="0"/>
        <pt x="624" y="-12" on="0"/>
      </contour>
      <contour>
        <pt x="309" y="304" on="1"/>
        <pt x="309" y="227" on="0"/>
        <pt x="352" y="140" on="0"/>
        <pt x="390" y="140" on="1"/>
        <pt x="425" y="140" on="0"/>
        <pt x="476" y="200" on="0"/>
        <pt x="491" y="258" on="1"/>
        <pt x="491" y="259" on="1"/>
        <pt x="491" y="275" on="0"/>
        <pt x="490" y="325" on="0"/>
        <pt x="489" y="384" on="1"/>
        <pt x="489" y="424" on="0"/>
        <pt x="488" y="464" on="0"/>
        <pt x="488" y="481" on="1"/>
        <pt x="478" y="485" on="0"/>
        <pt x="452" y="489" on="0"/>
        <pt x="436" y="489" on="1"/>
        <pt x="380" y="489" on="0"/>
        <pt x="309" y="387" on="0"/>
      </contour>
    </TTGlyph>
    <TTGlyph name="atilde" xMin="28" yMin="-34" xMax="374" yMax="680">
      <component glyphName="a" x="0" y="0" flags="0x204"/>
      <component glyphName="tilde" x="102" y="-50" flags="0x4"/>
    </TTGlyph>
    <TTGlyph name="b" xMin="56" yMin="-30" xMax="386" yMax="726">
      <contour>
        <pt x="386" y="306" on="1"/>
        <pt x="386" y="152" on="0"/>
        <pt x="267" y="-30" on="0"/>
        <pt x="167" y="-30" on="1"/>
        <pt x="135" y="-30" on="0"/>
        <pt x="83" y="-8" on="0"/>
        <pt x="61" y="14" on="1"/>
        <pt x="59" y="51" on="0"/>
        <pt x="56" y="148" on="0"/>
        <pt x="56" y="303" on="1"/>
        <pt x="56" y="423" on="0"/>
        <pt x="66" y="656" on="0"/>
        <pt x="75" y="721" on="1"/>
        <pt x="84" y="724" on="0"/>
        <pt x="101" y="726" on="0"/>
        <pt x="113" y="726" on="1"/>
        <pt x="117" y="726" on="0"/>
        <pt x="125" y="725" on="0"/>
        <pt x="141" y="722" on="1"/>
        <pt x="131" y="661" on="0"/>
        <pt x="116" y="513" on="0"/>
        <pt x="111" y="432" on="1"/>
        <pt x="137" y="473" on="0"/>
        <pt x="206" y="513" on="0"/>
        <pt x="249" y="513" on="1"/>
        <pt x="316" y="513" on="0"/>
        <pt x="386" y="407" on="0"/>
      </contour>
      <contour>
        <pt x="106" y="38" on="1"/>
        <pt x="120" y="26" on="0"/>
        <pt x="150" y="15" on="0"/>
        <pt x="171" y="15" on="1"/>
        <pt x="246" y="15" on="0"/>
        <pt x="327" y="168" on="0"/>
        <pt x="327" y="305" on="1"/>
        <pt x="327" y="386" on="0"/>
        <pt x="278" y="468" on="0"/>
        <pt x="230" y="468" on="1"/>
        <pt x="195" y="468" on="0"/>
        <pt x="127" y="397" on="0"/>
        <pt x="106" y="336" on="1"/>
        <pt x="105" y="285" on="0"/>
        <pt x="104" y="249" on="0"/>
        <pt x="104" y="234" on="1"/>
        <pt x="104" y="152" on="0"/>
        <pt x="105" y="54" on="0"/>
      </contour>
    </TTGlyph>
    <TTGlyph name="backslash" xMin="15" yMin="-198" xMax="495" yMax="745">
      <contour>
        <pt x="56" y="745" on="1"/>
        <pt x="47" y="741" on="0"/>
        <pt x="30" y="731" on="0"/>
        <pt x="15" y="721" on="1"/>
        <pt x="100" y="517" on="0"/>
        <pt x="318" y="53" on="0"/>
        <pt x="446" y="-198" on="1"/>
        <pt x="461" y="-193" on="0"/>
        <pt x="484" y="-182" on="0"/>
        <pt x="495" y="-173" on="1"/>
        <pt x="411" y="-29" on="0"/>
        <pt x="204" y="404" on="0"/>
      </contour>
    </TTGlyph>
    <TTGlyph name="bar" xMin="99" yMin="-171" xMax="168" yMax="726">
      <contour>
        <pt x="168" y="-165" on="1"/>
        <pt x="161" y="-167" on="0"/>
        <pt x="130" y="-171" on="0"/>
        <pt x="120" y="-171" on="1"/>
        <pt x="110" y="21" on="0"/>
        <pt x="99" y="480" on="0"/>
        <pt x="100" y="714" on="1"/>
        <pt x="113" y="720" on="0"/>
        <pt x="146" y="726" on="0"/>
        <pt x="163" y="725" on="1"/>
        <pt x="154" y="558" on="0"/>
        <pt x="158" y="40" on="0"/>
      </contour>
    </TTGlyph>
    <TTGlyph name="bn_a" xMin="-5" yMin="-18" xMax="616" yMax="616">
      <contour>
        <pt x="553" y="436" on="1"/>
        <pt x="553" y="304" on="0"/>
        <pt x="514" y="46" on="0"/>
        <pt x="483" y="-18" on="1"/>
        <pt x="472" y="-18" on="0"/>
        <pt x="449" y="-12" on="0"/>
        <pt x="440" y="-6" on="1"/>
        <pt x="421" y="30" on="0"/>
        <pt x="381" y="91" on="0"/>
        <pt x="358" y="116" on="1"/>
        <pt x="343" y="107" on="0"/>
        <pt x="309" y="97" on="0"/>
        <pt x="290" y="97" on="1"/>
        <pt x="209" y="97" on="0"/>
        <pt x="72" y="269" on="0"/>
        <pt x="18" y="438" on="1"/>
        <pt x="28" y="448" on="0"/>
        <pt x="47" y="461" on="0"/>
        <pt x="57" y="465" on="1"/>
        <pt x="107" y="305" on="0"/>
        <pt x="223" y="149" on="0"/>
        <pt x="290" y="149" on="1"/>
        <pt x="336" y="149" on="0"/>
        <pt x="384" y="222" on="0"/>
        <pt x="384" y="291" on="1"/>
        <pt x="384" y="366" on="0"/>
        <pt x="337" y="458" on="0"/>
        <pt x="298" y="458" on="1"/>
        <pt x="273" y="458" on="0"/>
        <pt x="247" y="418" on="0"/>
        <pt x="247" y="380" on="1"/>
        <pt x="247" y="360" on="0"/>
        <pt x="258" y="321" on="0"/>
        <pt x="268" y="308" on="1"/>
        <pt x="253" y="308" on="0"/>
        <pt x="224" y="312" on="0"/>
        <pt x="216" y="316" on="1"/>
        <pt x="209" y="330" on="0"/>
        <pt x="201" y="366" on="0"/>
        <pt x="201" y="383" on="1"/>
        <pt x="201" y="433" on="0"/>
        <pt x="251" y="498" on="0"/>
        <pt x="290" y="498" on="1"/>
        <pt x="349" y="498" on="0"/>
        <pt x="429" y="370" on="0"/>
        <pt x="429" y="281" on="1"/>
        <pt x="429" y="240" on="0"/>
        <pt x="408" y="169" on="0"/>
        <pt x="389" y="144" on="1"/>
        <pt x="410" y="118" on="0"/>
        <pt x="445" y="61" on="0"/>
        <pt x="459" y="31" on="1"/>
        <pt x="481" y="102" on="0"/>
        <pt x="502" y="300" on="0"/>
        <pt x="502" y="433" on="1"/>
        <pt x="502" y="464" on="0"/>
        <pt x="501" y="520" on="0"/>
        <pt x="499" y="554" on="1"/>
        <pt x="451" y="560" on="0"/>
        <pt x="352" y="567" on="0"/>
        <pt x="303" y="567" on="1"/>
        <pt x="230" y="567" on="0"/>
        <pt x="84" y="552" on="0"/>
        <pt x="0" y="535" on="1"/>
        <pt x="-2" y="540" on="0"/>
        <pt x="-5" y="553" on="0"/>
        <pt x="-5" y="561" on="1"/>
        <pt x="-5" y="567" on="0"/>
        <pt x="-2" y="577" on="0"/>
        <pt x="0" y="581" on="1"/>
        <pt x="77" y="599" on="0"/>
        <pt x="229" y="616" on="0"/>
        <pt x="306" y="616" on="1"/>
        <pt x="386" y="616" on="0"/>
        <pt x="550" y="597" on="0"/>
        <pt x="612" y="581" on="1"/>
        <pt x="614" y="578" on="0"/>
        <pt x="616" y="569" on="0"/>
        <pt x="616" y="562" on="1"/>
        <pt x="616" y="555" on="0"/>
        <pt x="614" y="541" on="0"/>
        <pt x="612" y="535" on="1"/>
        <pt x="594" y="539" on="0"/>
        <pt x="564" y="544" on="0"/>
        <pt x="550" y="546" on="1"/>
        <pt x="552" y="528" on="0"/>
        <pt x="553" y="483" on="0"/>
      </contour>
    </TTGlyph>
    <TTGlyph name="bn_aa" xMin="-5" yMin="-33" xMax="839" yMax="619">
      <contour>
        <pt x="758" y="489" on="1"/>
        <pt x="743" y="363" on="0"/>
        <pt x="740" y="108" on="0"/>
        <pt x="752" y="-26" on="1"/>
        <pt x="737" y="-29" on="0"/>
        <pt x="697" y="-33" on="0"/>
        <pt x="686" y="-32" on="1"/>
        <pt x="687" y="157" on="0"/>
        <pt x="698" y="359" on="0"/>
        <pt x="709" y="465" on="1"/>
        <pt x="703" y="494" on="0"/>
        <pt x="625" y="537" on="0"/>
        <pt x="556" y="551" on="1"/>
        <pt x="546" y="506" on="0"/>
        <pt x="536" y="374" on="0"/>
        <pt x="536" y="295" on="1"/>
        <pt x="536" y="196" on="0"/>
        <pt x="549" y="43" on="0"/>
        <pt x="562" y="-4" on="1"/>
        <pt x="553" y="-10" on="0"/>
        <pt x="526" y="-16" on="0"/>
        <pt x="509" y="-16" on="1"/>
        <pt x="483" y="30" on="0"/>
        <pt x="421" y="106" on="0"/>
        <pt x="387" y="135" on="1"/>
        <pt x="369" y="114" on="0"/>
        <pt x="320" y="92" on="0"/>
        <pt x="291" y="92" on="1"/>
        <pt x="210" y="92" on="0"/>
        <pt x="73" y="264" on="0"/>
        <pt x="19" y="433" on="1"/>
        <pt x="29" y="443" on="0"/>
        <pt x="48" y="456" on="0"/>
        <pt x="58" y="460" on="1"/>
        <pt x="108" y="300" on="0"/>
        <pt x="224" y="144" on="0"/>
        <pt x="291" y="144" on="1"/>
        <pt x="337" y="144" on="0"/>
        <pt x="385" y="217" on="0"/>
        <pt x="385" y="286" on="1"/>
        <pt x="385" y="361" on="0"/>
        <pt x="338" y="453" on="0"/>
        <pt x="299" y="453" on="1"/>
        <pt x="274" y="453" on="0"/>
        <pt x="248" y="413" on="0"/>
        <pt x="248" y="375" on="1"/>
        <pt x="248" y="355" on="0"/>
        <pt x="259" y="316" on="0"/>
        <pt x="269" y="303" on="1"/>
        <pt x="254" y="303" on="0"/>
        <pt x="225" y="307" on="0"/>
        <pt x="217" y="311" on="1"/>
        <pt x="210" y="325" on="0"/>
        <pt x="202" y="361" on="0"/>
        <pt x="202" y="378" on="1"/>
        <pt x="202" y="428" on="0"/>
        <pt x="252" y="493" on="0"/>
        <pt x="291" y="493" on="1"/>
        <pt x="350" y="493" on="0"/>
        <pt x="430" y="365" on="0"/>
        <pt x="430" y="276" on="1"/>
        <pt x="430" y="244" on="0"/>
        <pt x="419" y="190" on="0"/>
        <pt x="408" y="168" on="1"/>
        <pt x="434" y="145" on="0"/>
        <pt x="477" y="92" on="0"/>
        <pt x="495" y="63" on="1"/>
        <pt x="492" y="92" on="0"/>
        <pt x="490" y="163" on="0"/>
        <pt x="490" y="207" on="1"/>
        <pt x="490" y="314" on="0"/>
        <pt x="504" y="502" on="0"/>
        <pt x="517" y="558" on="1"/>
        <pt x="477" y="564" on="0"/>
        <pt x="383" y="570" on="0"/>
        <pt x="333" y="570" on="1"/>
        <pt x="254" y="570" on="0"/>
        <pt x="87" y="552" on="0"/>
        <pt x="0" y="535" on="1"/>
        <pt x="-4" y="547" on="0"/>
        <pt x="-5" y="574" on="0"/>
        <pt x="0" y="581" on="1"/>
        <pt x="81" y="599" on="0"/>
        <pt x="253" y="619" on="0"/>
        <pt x="336" y="619" on="1"/>
        <pt x="472" y="619" on="0"/>
        <pt x="684" y="572" on="0"/>
        <pt x="731" y="529" on="1"/>
        <pt x="746" y="545" on="0"/>
        <pt x="800" y="572" on="0"/>
        <pt x="836" y="581" on="1"/>
        <pt x="839" y="574" on="0"/>
        <pt x="839" y="546" on="0"/>
        <pt x="836" y="535" on="1"/>
        <pt x="806" y="526" on="0"/>
        <pt x="766" y="503" on="0"/>
      </contour>
    </TTGlyph>
    <TTGlyph name="bn_aakaar" xMin="-3" yMin="-51" xMax="227" yMax="581">
      <contour>
        <pt x="148" y="493" on="1"/>
        <pt x="147" y="363" on="0"/>
        <pt x="137" y="88" on="0"/>
        <pt x="127" y="-51" on="1"/>
        <pt x="110" y="-51" on="0"/>
        <pt x="70" y="-46" on="0"/>
        <pt x="61" y="-42" on="1"/>
        <pt x="80" y="64" on="0"/>
        <pt x="99" y="306" on="0"/>
        <pt x="100" y="458" on="1"/>
        <pt x="99" y="484" on="0"/>
        <pt x="50" y="522" on="0"/>
        <pt x="0" y="535" on="1"/>
        <pt x="-3" y="545" on="0"/>
        <pt x="-3" y="573" on="0"/>
        <pt x="0" y="581" on="1"/>
        <pt x="37" y="572" on="0"/>
        <pt x="98" y="545" on="0"/>
        <pt x="118" y="528" on="1"/>
        <pt x="132" y="544" on="0"/>
        <pt x="187" y="571" on="0"/>
        <pt x="224" y="581" on="1"/>
        <pt x="227" y="574" on="0"/>
        <pt x="227" y="546" on="0"/>
        <pt x="224" y="535" on="1"/>
        <pt x="197" y="527" on="0"/>
        <pt x="159" y="506" on="0"/>
      </contour>
    </TTGlyph>
    <TTGlyph name="bn_aakaar.b" xMin="-4" yMin="-51" xMax="227" yMax="586">
      <contour>
        <pt x="148" y="493" on="1"/>
        <pt x="147" y="363" on="0"/>
        <pt x="137" y="88" on="0"/>
        <pt x="127" y="-51" on="1"/>
        <pt x="110" y="-51" on="0"/>
        <pt x="70" y="-46" on="0"/>
        <pt x="61" y="-42" on="1"/>
        <pt x="80" y="64" on="0"/>
        <pt x="99" y="302" on="0"/>
        <pt x="100" y="451" on="1"/>
        <pt x="98" y="491" on="0"/>
        <pt x="62" y="541" on="0"/>
        <pt x="37" y="541" on="1"/>
        <pt x="29" y="541" on="0"/>
        <pt x="12" y="538" on="0"/>
        <pt x="0" y="535" on="1"/>
        <pt x="-2" y="539" on="0"/>
        <pt x="-4" y="552" on="0"/>
        <pt x="-4" y="559" on="1"/>
        <pt x="-4" y="566" on="0"/>
        <pt x="-2" y="578" on="0"/>
        <pt x="0" y="581" on="1"/>
        <pt x="10" y="584" on="0"/>
        <pt x="29" y="586" on="0"/>
        <pt x="39" y="586" on="1"/>
        <pt x="63" y="586" on="0"/>
        <pt x="109" y="556" on="0"/>
        <pt x="122" y="531" on="1"/>
        <pt x="137" y="546" on="0"/>
        <pt x="190" y="572" on="0"/>
        <pt x="224" y="581" on="1"/>
        <pt x="227" y="574" on="0"/>
        <pt x="227" y="546" on="0"/>
        <pt x="224" y="535" on="1"/>
        <pt x="197" y="527" on="0"/>
        <pt x="159" y="506" on="0"/>
      </contour>
    </TTGlyph>
    <TTGlyph name="bn_ai" xMin="25" yMin="-17" xMax="607" yMax="856">
      <contour>
        <pt x="476" y="-9" on="1"/>
        <pt x="466" y="-13" on="0"/>
        <pt x="442" y="-17" on="0"/>
        <pt x="429" y="-17" on="1"/>
        <pt x="416" y="9" on="0"/>
        <pt x="399" y="40" on="0"/>
        <pt x="395" y="45" on="1"/>
        <pt x="383" y="61" on="0"/>
        <pt x="353" y="75" on="0"/>
        <pt x="334" y="75" on="1"/>
        <pt x="320" y="75" on="0"/>
        <pt x="284" y="68" on="0"/>
        <pt x="244" y="56" on="1"/>
        <pt x="200" y="42" on="0"/>
        <pt x="156" y="34" on="0"/>
        <pt x="139" y="34" on="1"/>
        <pt x="87" y="34" on="0"/>
        <pt x="25" y="101" on="0"/>
        <pt x="25" y="155" on="1"/>
        <pt x="25" y="185" on="0"/>
        <pt x="46" y="257" on="0"/>
        <pt x="65" y="291" on="1"/>
        <pt x="77" y="290" on="0"/>
        <pt x="97" y="283" on="0"/>
        <pt x="105" y="275" on="1"/>
        <pt x="92" y="254" on="0"/>
        <pt x="74" y="190" on="0"/>
        <pt x="74" y="163" on="1"/>
        <pt x="74" y="126" on="0"/>
        <pt x="112" y="87" on="0"/>
        <pt x="146" y="87" on="1"/>
        <pt x="160" y="87" on="0"/>
        <pt x="196" y="95" on="0"/>
        <pt x="234" y="107" on="1"/>
        <pt x="275" y="120" on="0"/>
        <pt x="314" y="128" on="0"/>
        <pt x="330" y="128" on="1"/>
        <pt x="365" y="128" on="0"/>
        <pt x="412" y="89" on="0"/>
        <pt x="431" y="45" on="1"/>
        <pt x="443" y="134" on="0"/>
        <pt x="456" y="375" on="0"/>
        <pt x="456" y="501" on="1"/>
        <pt x="456" y="540" on="0"/>
        <pt x="421" y="585" on="0"/>
        <pt x="392" y="585" on="1"/>
        <pt x="365" y="585" on="0"/>
        <pt x="300" y="548" on="0"/>
        <pt x="271" y="517" on="1"/>
        <pt x="243" y="487" on="0"/>
        <pt x="212" y="421" on="0"/>
        <pt x="212" y="391" on="1"/>
        <pt x="212" y="362" on="0"/>
        <pt x="243" y="331" on="0"/>
        <pt x="270" y="331" on="1"/>
        <pt x="293" y="331" on="0"/>
        <pt x="334" y="354" on="0"/>
        <pt x="354" y="377" on="1"/>
        <pt x="357" y="373" on="0"/>
        <pt x="360" y="360" on="0"/>
        <pt x="360" y="349" on="1"/>
        <pt x="360" y="338" on="0"/>
        <pt x="357" y="322" on="0"/>
        <pt x="354" y="315" on="1"/>
        <pt x="336" y="299" on="0"/>
        <pt x="289" y="281" on="0"/>
        <pt x="263" y="281" on="1"/>
        <pt x="215" y="281" on="0"/>
        <pt x="156" y="339" on="0"/>
        <pt x="156" y="387" on="1"/>
        <pt x="156" y="425" on="0"/>
        <pt x="195" y="508" on="0"/>
        <pt x="229" y="545" on="1"/>
        <pt x="265" y="583" on="0"/>
        <pt x="348" y="627" on="0"/>
        <pt x="383" y="627" on="1"/>
        <pt x="434" y="627" on="0"/>
        <pt x="503" y="546" on="0"/>
        <pt x="503" y="484" on="1"/>
        <pt x="503" y="476" on="0"/>
        <pt x="503" y="459" on="0"/>
        <pt x="503" y="451" on="1"/>
        <pt x="535" y="474" on="0"/>
        <pt x="571" y="542" on="0"/>
        <pt x="571" y="579" on="1"/>
        <pt x="571" y="609" on="0"/>
        <pt x="545" y="648" on="0"/>
        <pt x="516" y="660" on="1"/>
        <pt x="501" y="667" on="0"/>
        <pt x="459" y="678" on="0"/>
        <pt x="413" y="686" on="1"/>
        <pt x="358" y="696" on="0"/>
        <pt x="301" y="713" on="0"/>
        <pt x="282" y="724" on="1"/>
        <pt x="254" y="741" on="0"/>
        <pt x="222" y="795" on="0"/>
        <pt x="214" y="838" on="1"/>
        <pt x="224" y="845" on="0"/>
        <pt x="248" y="855" on="0"/>
        <pt x="257" y="856" on="1"/>
        <pt x="269" y="800" on="0"/>
        <pt x="319" y="750" on="0"/>
        <pt x="379" y="739" on="1"/>
        <pt x="448" y="725" on="1"/>
        <pt x="531" y="708" on="0"/>
        <pt x="607" y="636" on="0"/>
        <pt x="607" y="574" on="1"/>
        <pt x="607" y="522" on="0"/>
        <pt x="554" y="428" on="0"/>
        <pt x="502" y="387" on="1"/>
        <pt x="501" y="281" on="0"/>
        <pt x="488" y="86" on="0"/>
      </contour>
    </TTGlyph>
    <TTGlyph name="bn_aikaar" xMin="-91" yMin="-63" xMax="285" yMax="774">
      <contour>
        <pt x="285" y="-1" on="1"/>
        <pt x="269" y="-30" on="0"/>
        <pt x="221" y="-63" on="0"/>
        <pt x="196" y="-63" on="1"/>
        <pt x="139" y="-63" on="0"/>
        <pt x="70" y="97" on="0"/>
        <pt x="70" y="229" on="1"/>
        <pt x="70" y="306" on="0"/>
        <pt x="90" y="445" on="0"/>
        <pt x="107" y="487" on="1"/>
        <pt x="92" y="500" on="0"/>
        <pt x="39" y="524" on="0"/>
        <pt x="0" y="535" on="1"/>
        <pt x="-2" y="541" on="0"/>
        <pt x="-3" y="553" on="0"/>
        <pt x="-3" y="559" on="1"/>
        <pt x="-3" y="566" on="0"/>
        <pt x="-1" y="577" on="0"/>
        <pt x="0" y="581" on="1"/>
        <pt x="42" y="572" on="0"/>
        <pt x="114" y="542" on="0"/>
        <pt x="137" y="525" on="1"/>
        <pt x="147" y="539" on="0"/>
        <pt x="182" y="562" on="0"/>
        <pt x="209" y="571" on="1"/>
        <pt x="202" y="628" on="0"/>
        <pt x="167" y="677" on="0"/>
        <pt x="137" y="677" on="1"/>
        <pt x="127" y="677" on="0"/>
        <pt x="105" y="674" on="0"/>
        <pt x="84" y="670" on="1"/>
        <pt x="61" y="665" on="0"/>
        <pt x="37" y="662" on="0"/>
        <pt x="26" y="662" on="1"/>
        <pt x="-10" y="662" on="0"/>
        <pt x="-64" y="702" on="0"/>
        <pt x="-91" y="750" on="1"/>
        <pt x="-85" y="757" on="0"/>
        <pt x="-63" y="770" on="0"/>
        <pt x="-53" y="774" on="1"/>
        <pt x="-29" y="734" on="0"/>
        <pt x="7" y="707" on="0"/>
        <pt x="29" y="707" on="1"/>
        <pt x="37" y="707" on="0"/>
        <pt x="58" y="710" on="0"/>
        <pt x="80" y="715" on="1"/>
        <pt x="103" y="720" on="0"/>
        <pt x="126" y="723" on="0"/>
        <pt x="135" y="723" on="1"/>
        <pt x="181" y="723" on="0"/>
        <pt x="237" y="649" on="0"/>
        <pt x="244" y="581" on="1"/>
        <pt x="245" y="577" on="0"/>
        <pt x="247" y="566" on="0"/>
        <pt x="247" y="559" on="1"/>
        <pt x="247" y="553" on="0"/>
        <pt x="245" y="540" on="0"/>
        <pt x="244" y="535" on="1"/>
        <pt x="178" y="519" on="0"/>
        <pt x="126" y="389" on="0"/>
        <pt x="126" y="238" on="1"/>
        <pt x="126" y="113" on="0"/>
        <pt x="157" y="-19" on="0"/>
        <pt x="186" y="-19" on="1"/>
        <pt x="199" y="-19" on="0"/>
        <pt x="228" y="12" on="0"/>
        <pt x="251" y="52" on="1"/>
        <pt x="265" y="44" on="0"/>
        <pt x="285" y="13" on="0"/>
      </contour>
    </TTGlyph>
    <TTGlyph name="bn_aikaar.init" xMin="-58" yMin="-63" xMax="280" yMax="774">
      <contour>
        <pt x="271" y="-1" on="1"/>
        <pt x="255" y="-30" on="0"/>
        <pt x="207" y="-63" on="0"/>
        <pt x="182" y="-63" on="1"/>
        <pt x="126" y="-63" on="0"/>
        <pt x="55" y="92" on="0"/>
        <pt x="55" y="216" on="1"/>
        <pt x="55" y="363" on="0"/>
        <pt x="148" y="541" on="0"/>
        <pt x="242" y="572" on="1"/>
        <pt x="235" y="627" on="0"/>
        <pt x="200" y="677" on="0"/>
        <pt x="170" y="677" on="1"/>
        <pt x="160" y="677" on="0"/>
        <pt x="138" y="674" on="0"/>
        <pt x="117" y="670" on="1"/>
        <pt x="94" y="665" on="0"/>
        <pt x="70" y="662" on="0"/>
        <pt x="59" y="662" on="1"/>
        <pt x="23" y="662" on="0"/>
        <pt x="-31" y="702" on="0"/>
        <pt x="-58" y="750" on="1"/>
        <pt x="-52" y="757" on="0"/>
        <pt x="-30" y="770" on="0"/>
        <pt x="-20" y="774" on="1"/>
        <pt x="4" y="734" on="0"/>
        <pt x="40" y="707" on="0"/>
        <pt x="62" y="707" on="1"/>
        <pt x="70" y="707" on="0"/>
        <pt x="91" y="710" on="0"/>
        <pt x="113" y="715" on="1"/>
        <pt x="136" y="720" on="0"/>
        <pt x="159" y="723" on="0"/>
        <pt x="168" y="723" on="1"/>
        <pt x="214" y="723" on="0"/>
        <pt x="270" y="649" on="0"/>
        <pt x="277" y="581" on="1"/>
        <pt x="278" y="577" on="0"/>
        <pt x="280" y="566" on="0"/>
        <pt x="280" y="559" on="1"/>
        <pt x="280" y="553" on="0"/>
        <pt x="278" y="540" on="0"/>
        <pt x="277" y="535" on="1"/>
        <pt x="191" y="515" on="0"/>
        <pt x="112" y="360" on="0"/>
        <pt x="112" y="213" on="1"/>
        <pt x="112" y="107" on="0"/>
        <pt x="145" y="-19" on="0"/>
        <pt x="173" y="-19" on="1"/>
        <pt x="186" y="-19" on="0"/>
        <pt x="215" y="14" on="0"/>
        <pt x="237" y="52" on="1"/>
        <pt x="251" y="44" on="0"/>
        <pt x="271" y="13" on="0"/>
      </contour>
    </TTGlyph>
    <TTGlyph name="bn_anusvar" xMin="30" yMin="-45" xMax="422" yMax="599">
      <contour>
        <pt x="230" y="599" on="1"/>
        <pt x="288" y="599" on="0"/>
        <pt x="363" y="529" on="0"/>
        <pt x="363" y="474" on="1"/>
        <pt x="363" y="415" on="0"/>
        <pt x="276" y="330" on="0"/>
        <pt x="215" y="330" on="1"/>
        <pt x="159" y="330" on="0"/>
        <pt x="85" y="401" on="0"/>
        <pt x="85" y="456" on="1"/>
        <pt x="85" y="516" on="0"/>
        <pt x="169" y="599" on="0"/>
      </contour>
      <contour>
        <pt x="215" y="556" on="1"/>
        <pt x="176" y="556" on="0"/>
        <pt x="131" y="511" on="0"/>
        <pt x="131" y="472" on="1"/>
        <pt x="131" y="427" on="0"/>
        <pt x="185" y="373" on="0"/>
        <pt x="229" y="373" on="1"/>
        <pt x="269" y="373" on="0"/>
        <pt x="317" y="421" on="0"/>
        <pt x="317" y="461" on="1"/>
        <pt x="317" y="504" on="0"/>
        <pt x="261" y="556" on="0"/>
      </contour>
      <contour>
        <pt x="50" y="310" on="1"/>
        <pt x="162" y="265" on="0"/>
        <pt x="362" y="89" on="0"/>
        <pt x="422" y="-21" on="1"/>
        <pt x="416" y="-29" on="0"/>
        <pt x="400" y="-40" on="0"/>
        <pt x="387" y="-45" on="1"/>
        <pt x="316" y="68" on="0"/>
        <pt x="126" y="230" on="0"/>
        <pt x="30" y="259" on="1"/>
        <pt x="33" y="275" on="0"/>
        <pt x="42" y="298" on="0"/>
      </contour>
    </TTGlyph>
    <TTGlyph name="bn_au" xMin="22" yMin="-17" xMax="678" yMax="854">
      <contour>
        <pt x="597" y="162" on="1"/>
        <pt x="597" y="83" on="0"/>
        <pt x="499" y="-17" on="0"/>
        <pt x="417" y="-17" on="1"/>
        <pt x="286" y="-17" on="0"/>
        <pt x="90" y="257" on="0"/>
        <pt x="22" y="543" on="1"/>
        <pt x="31" y="551" on="0"/>
        <pt x="51" y="563" on="0"/>
        <pt x="63" y="569" on="1"/>
        <pt x="127" y="299" on="0"/>
        <pt x="303" y="37" on="0"/>
        <pt x="420" y="37" on="1"/>
        <pt x="482" y="37" on="0"/>
        <pt x="550" y="107" on="0"/>
        <pt x="550" y="172" on="1"/>
        <pt x="550" y="203" on="0"/>
        <pt x="534" y="255" on="0"/>
        <pt x="519" y="276" on="1"/>
        <pt x="496" y="248" on="0"/>
        <pt x="446" y="220" on="0"/>
        <pt x="419" y="220" on="1"/>
        <pt x="382" y="220" on="0"/>
        <pt x="332" y="271" on="0"/>
        <pt x="332" y="310" on="1"/>
        <pt x="332" y="349" on="0"/>
        <pt x="381" y="402" on="0"/>
        <pt x="419" y="402" on="1"/>
        <pt x="443" y="402" on="0"/>
        <pt x="492" y="378" on="0"/>
        <pt x="509" y="358" on="1"/>
        <pt x="526" y="386" on="0"/>
        <pt x="544" y="446" on="0"/>
        <pt x="544" y="475" on="1"/>
        <pt x="544" y="528" on="0"/>
        <pt x="486" y="585" on="0"/>
        <pt x="432" y="585" on="1"/>
        <pt x="363" y="585" on="0"/>
        <pt x="273" y="497" on="0"/>
        <pt x="273" y="431" on="1"/>
        <pt x="273" y="419" on="0"/>
        <pt x="276" y="395" on="0"/>
        <pt x="278" y="386" on="1"/>
        <pt x="264" y="386" on="0"/>
        <pt x="228" y="402" on="0"/>
        <pt x="220" y="412" on="1"/>
        <pt x="219" y="508" on="0"/>
        <pt x="329" y="627" on="0"/>
        <pt x="418" y="627" on="1"/>
        <pt x="495" y="627" on="0"/>
        <pt x="591" y="538" on="0"/>
        <pt x="591" y="465" on="1"/>
        <pt x="614" y="488" on="0"/>
        <pt x="642" y="550" on="0"/>
        <pt x="642" y="581" on="1"/>
        <pt x="642" y="622" on="0"/>
        <pt x="584" y="666" on="0"/>
        <pt x="484" y="686" on="1"/>
        <pt x="421" y="698" on="0"/>
        <pt x="368" y="715" on="0"/>
        <pt x="351" y="726" on="1"/>
        <pt x="324" y="742" on="0"/>
        <pt x="293" y="798" on="0"/>
        <pt x="285" y="843" on="1"/>
        <pt x="295" y="847" on="0"/>
        <pt x="319" y="853" on="0"/>
        <pt x="329" y="854" on="1"/>
        <pt x="340" y="798" on="0"/>
        <pt x="392" y="751" on="0"/>
        <pt x="460" y="738" on="1"/>
        <pt x="524" y="725" on="1"/>
        <pt x="602" y="709" on="0"/>
        <pt x="678" y="635" on="0"/>
        <pt x="678" y="574" on="1"/>
        <pt x="678" y="523" on="0"/>
        <pt x="626" y="425" on="0"/>
        <pt x="576" y="380" on="1"/>
        <pt x="569" y="359" on="0"/>
        <pt x="552" y="325" on="0"/>
        <pt x="543" y="312" on="1"/>
        <pt x="570" y="276" on="0"/>
        <pt x="597" y="201" on="0"/>
      </contour>
      <contour>
        <pt x="370" y="312" on="1"/>
        <pt x="370" y="293" on="0"/>
        <pt x="396" y="269" on="0"/>
        <pt x="416" y="269" on="1"/>
        <pt x="435" y="269" on="0"/>
        <pt x="470" y="293" on="0"/>
        <pt x="488" y="319" on="1"/>
        <pt x="474" y="338" on="0"/>
        <pt x="438" y="360" on="0"/>
        <pt x="419" y="360" on="1"/>
        <pt x="398" y="360" on="0"/>
        <pt x="370" y="333" on="0"/>
      </contour>
    </TTGlyph>
    <TTGlyph name="bn_aukaar" xMin="-3" yMin="-63" xMax="1114" yMax="908">
      <contour>
        <pt x="569" y="585" on="1"/>
        <pt x="588" y="585" on="0"/>
        <pt x="609" y="563" on="0"/>
        <pt x="609" y="544" on="1"/>
        <pt x="609" y="525" on="0"/>
        <pt x="588" y="504" on="0"/>
        <pt x="569" y="504" on="1"/>
        <pt x="550" y="504" on="0"/>
        <pt x="530" y="525" on="0"/>
        <pt x="530" y="544" on="1"/>
        <pt x="530" y="564" on="0"/>
        <pt x="550" y="585" on="0"/>
      </contour>
      <contour>
        <pt x="1035" y="493" on="1"/>
        <pt x="1034" y="363" on="0"/>
        <pt x="1024" y="88" on="0"/>
        <pt x="1014" y="-51" on="1"/>
        <pt x="997" y="-51" on="0"/>
        <pt x="957" y="-46" on="0"/>
        <pt x="948" y="-42" on="1"/>
        <pt x="967" y="64" on="0"/>
        <pt x="986" y="306" on="0"/>
        <pt x="987" y="458" on="1"/>
        <pt x="986" y="484" on="0"/>
        <pt x="937" y="522" on="0"/>
        <pt x="887" y="535" on="1"/>
        <pt x="886" y="540" on="0"/>
        <pt x="884" y="552" on="0"/>
        <pt x="884" y="558" on="1"/>
        <pt x="884" y="565" on="0"/>
        <pt x="886" y="577" on="0"/>
        <pt x="887" y="581" on="1"/>
        <pt x="924" y="572" on="0"/>
        <pt x="983" y="545" on="0"/>
        <pt x="1004" y="528" on="1"/>
        <pt x="1018" y="545" on="0"/>
        <pt x="1033" y="585" on="0"/>
        <pt x="1033" y="604" on="1"/>
        <pt x="1033" y="629" on="0"/>
        <pt x="999" y="674" on="0"/>
        <pt x="955" y="709" on="1"/>
        <pt x="937" y="723" on="0"/>
        <pt x="881" y="763" on="0"/>
        <pt x="872" y="771" on="1"/>
        <pt x="850" y="790" on="0"/>
        <pt x="833" y="830" on="0"/>
        <pt x="833" y="862" on="1"/>
        <pt x="833" y="872" on="0"/>
        <pt x="835" y="892" on="0"/>
        <pt x="837" y="902" on="1"/>
        <pt x="846" y="905" on="0"/>
        <pt x="869" y="908" on="0"/>
        <pt x="879" y="907" on="1"/>
        <pt x="877" y="897" on="0"/>
        <pt x="876" y="878" on="0"/>
        <pt x="876" y="869" on="1"/>
        <pt x="876" y="846" on="0"/>
        <pt x="891" y="813" on="0"/>
        <pt x="908" y="798" on="1"/>
        <pt x="917" y="789" on="0"/>
        <pt x="963" y="758" on="0"/>
        <pt x="975" y="749" on="1"/>
        <pt x="1024" y="712" on="0"/>
        <pt x="1067" y="646" on="0"/>
        <pt x="1067" y="610" on="1"/>
        <pt x="1067" y="599" on="0"/>
        <pt x="1063" y="575" on="0"/>
        <pt x="1059" y="563" on="1"/>
        <pt x="1070" y="568" on="0"/>
        <pt x="1096" y="577" on="0"/>
        <pt x="1111" y="581" on="1"/>
        <pt x="1112" y="577" on="0"/>
        <pt x="1114" y="567" on="0"/>
        <pt x="1114" y="561" on="1"/>
        <pt x="1114" y="553" on="0"/>
        <pt x="1112" y="540" on="0"/>
        <pt x="1111" y="535" on="1"/>
        <pt x="1084" y="527" on="0"/>
        <pt x="1046" y="506" on="0"/>
      </contour>
      <contour>
        <pt x="285" y="-1" on="1"/>
        <pt x="269" y="-30" on="0"/>
        <pt x="221" y="-63" on="0"/>
        <pt x="196" y="-63" on="1"/>
        <pt x="139" y="-63" on="0"/>
        <pt x="70" y="97" on="0"/>
        <pt x="70" y="229" on="1"/>
        <pt x="70" y="306" on="0"/>
        <pt x="90" y="445" on="0"/>
        <pt x="107" y="487" on="1"/>
        <pt x="92" y="500" on="0"/>
        <pt x="39" y="524" on="0"/>
        <pt x="0" y="535" on="1"/>
        <pt x="-2" y="541" on="0"/>
        <pt x="-3" y="553" on="0"/>
        <pt x="-3" y="559" on="1"/>
        <pt x="-3" y="566" on="0"/>
        <pt x="-1" y="577" on="0"/>
        <pt x="0" y="581" on="1"/>
        <pt x="42" y="572" on="0"/>
        <pt x="114" y="542" on="0"/>
        <pt x="137" y="525" on="1"/>
        <pt x="150" y="544" on="0"/>
        <pt x="202" y="571" on="0"/>
        <pt x="244" y="581" on="1"/>
        <pt x="245" y="577" on="0"/>
        <pt x="247" y="566" on="0"/>
        <pt x="247" y="559" on="1"/>
        <pt x="247" y="553" on="0"/>
        <pt x="245" y="540" on="0"/>
        <pt x="244" y="535" on="1"/>
        <pt x="178" y="519" on="0"/>
        <pt x="126" y="389" on="0"/>
        <pt x="126" y="238" on="1"/>
        <pt x="126" y="113" on="0"/>
        <pt x="157" y="-19" on="0"/>
        <pt x="186" y="-19" on="1"/>
        <pt x="199" y="-19" on="0"/>
        <pt x="228" y="12" on="0"/>
        <pt x="251" y="52" on="1"/>
        <pt x="265" y="44" on="0"/>
        <pt x="285" y="13" on="0"/>
      </contour>
      <contour>
        <pt x="699" y="549" on="1"/>
        <pt x="717" y="549" on="0"/>
        <pt x="740" y="526" on="0"/>
        <pt x="740" y="508" on="1"/>
        <pt x="740" y="490" on="0"/>
        <pt x="718" y="469" on="0"/>
        <pt x="699" y="469" on="1"/>
        <pt x="681" y="469" on="0"/>
        <pt x="660" y="490" on="0"/>
        <pt x="660" y="508" on="1"/>
        <pt x="660" y="526" on="0"/>
        <pt x="681" y="549" on="0"/>
      </contour>
      <contour>
        <pt x="437" y="549" on="1"/>
        <pt x="455" y="549" on="0"/>
        <pt x="477" y="526" on="0"/>
        <pt x="477" y="508" on="1"/>
        <pt x="477" y="490" on="0"/>
        <pt x="455" y="469" on="0"/>
        <pt x="437" y="469" on="1"/>
        <pt x="419" y="469" on="0"/>
        <pt x="398" y="490" on="0"/>
        <pt x="398" y="508" on="1"/>
        <pt x="398" y="526" on="0"/>
        <pt x="420" y="549" on="0"/>
      </contour>
      <contour>
        <pt x="796" y="453" on="1"/>
        <pt x="814" y="453" on="0"/>
        <pt x="834" y="432" on="0"/>
        <pt x="834" y="413" on="1"/>
        <pt x="834" y="394" on="0"/>
        <pt x="814" y="372" on="0"/>
        <pt x="796" y="372" on="1"/>
        <pt x="779" y="372" on="0"/>
        <pt x="755" y="396" on="0"/>
        <pt x="755" y="413" on="1"/>
        <pt x="755" y="430" on="0"/>
        <pt x="779" y="453" on="0"/>
      </contour>
      <contour>
        <pt x="344" y="453" on="1"/>
        <pt x="362" y="453" on="0"/>
        <pt x="382" y="431" on="0"/>
        <pt x="382" y="412" on="1"/>
        <pt x="382" y="395" on="0"/>
        <pt x="360" y="372" on="0"/>
        <pt x="344" y="372" on="1"/>
        <pt x="326" y="372" on="0"/>
        <pt x="303" y="395" on="0"/>
        <pt x="303" y="413" on="1"/>
        <pt x="303" y="431" on="0"/>
        <pt x="326" y="453" on="0"/>
      </contour>
      <contour>
        <pt x="309" y="325" on="1"/>
        <pt x="328" y="325" on="0"/>
        <pt x="348" y="304" on="0"/>
        <pt x="348" y="285" on="1"/>
        <pt x="348" y="266" on="0"/>
        <pt x="327" y="244" on="0"/>
        <pt x="309" y="244" on="1"/>
        <pt x="290" y="244" on="0"/>
        <pt x="268" y="266" on="0"/>
        <pt x="268" y="285" on="1"/>
        <pt x="268" y="303" on="0"/>
        <pt x="290" y="325" on="0"/>
      </contour>
      <contour>
        <pt x="831" y="325" on="1"/>
        <pt x="849" y="325" on="0"/>
        <pt x="870" y="304" on="0"/>
        <pt x="870" y="285" on="1"/>
        <pt x="870" y="266" on="0"/>
        <pt x="849" y="244" on="0"/>
        <pt x="831" y="244" on="1"/>
        <pt x="813" y="244" on="0"/>
        <pt x="791" y="267" on="0"/>
        <pt x="791" y="285" on="1"/>
        <pt x="791" y="303" on="0"/>
        <pt x="813" y="325" on="0"/>
      </contour>
      <contour>
        <pt x="796" y="197" on="1"/>
        <pt x="814" y="197" on="0"/>
        <pt x="834" y="175" on="0"/>
        <pt x="834" y="157" on="1"/>
        <pt x="834" y="137" on="0"/>
        <pt x="814" y="115" on="0"/>
        <pt x="796" y="115" on="1"/>
        <pt x="778" y="115" on="0"/>
        <pt x="755" y="139" on="0"/>
        <pt x="755" y="157" on="1"/>
        <pt x="755" y="174" on="0"/>
        <pt x="779" y="197" on="0"/>
      </contour>
      <contour>
        <pt x="344" y="197" on="1"/>
        <pt x="361" y="197" on="0"/>
        <pt x="382" y="175" on="0"/>
        <pt x="382" y="157" on="1"/>
        <pt x="382" y="138" on="0"/>
        <pt x="361" y="115" on="0"/>
        <pt x="344" y="115" on="1"/>
        <pt x="326" y="115" on="0"/>
        <pt x="303" y="138" on="0"/>
        <pt x="303" y="157" on="1"/>
        <pt x="303" y="174" on="0"/>
        <pt x="326" y="197" on="0"/>
      </contour>
      <contour>
        <pt x="699" y="101" on="1"/>
        <pt x="718" y="101" on="0"/>
        <pt x="740" y="79" on="0"/>
        <pt x="740" y="60" on="1"/>
        <pt x="740" y="43" on="0"/>
        <pt x="717" y="21" on="0"/>
        <pt x="699" y="21" on="1"/>
        <pt x="681" y="21" on="0"/>
        <pt x="660" y="42" on="0"/>
        <pt x="660" y="60" on="1"/>
        <pt x="660" y="79" on="0"/>
        <pt x="681" y="101" on="0"/>
      </contour>
      <contour>
        <pt x="437" y="101" on="1"/>
        <pt x="455" y="101" on="0"/>
        <pt x="477" y="79" on="0"/>
        <pt x="477" y="60" on="1"/>
        <pt x="477" y="43" on="0"/>
        <pt x="455" y="21" on="0"/>
        <pt x="437" y="21" on="1"/>
        <pt x="420" y="21" on="0"/>
        <pt x="398" y="43" on="0"/>
        <pt x="398" y="60" on="1"/>
        <pt x="398" y="78" on="0"/>
        <pt x="420" y="101" on="0"/>
      </contour>
      <contour>
        <pt x="569" y="66" on="1"/>
        <pt x="588" y="66" on="0"/>
        <pt x="609" y="44" on="0"/>
        <pt x="609" y="25" on="1"/>
        <pt x="609" y="6" on="0"/>
        <pt x="588" y="-15" on="0"/>
        <pt x="569" y="-15" on="1"/>
        <pt x="550" y="-15" on="0"/>
        <pt x="530" y="6" on="0"/>
        <pt x="530" y="25" on="1"/>
        <pt x="530" y="44" on="0"/>
        <pt x="551" y="66" on="0"/>
      </contour>
    </TTGlyph>
    <TTGlyph name="bn_aumark" xMin="-54" yMin="-51" xMax="227" yMax="908">
      <contour>
        <pt x="148" y="493" on="1"/>
        <pt x="147" y="363" on="0"/>
        <pt x="137" y="88" on="0"/>
        <pt x="127" y="-51" on="1"/>
        <pt x="110" y="-51" on="0"/>
        <pt x="70" y="-46" on="0"/>
        <pt x="61" y="-42" on="1"/>
        <pt x="80" y="64" on="0"/>
        <pt x="99" y="306" on="0"/>
        <pt x="100" y="458" on="1"/>
        <pt x="99" y="484" on="0"/>
        <pt x="50" y="522" on="0"/>
        <pt x="0" y="535" on="1"/>
        <pt x="-1" y="540" on="0"/>
        <pt x="-3" y="552" on="0"/>
        <pt x="-3" y="558" on="1"/>
        <pt x="-3" y="565" on="0"/>
        <pt x="-1" y="577" on="0"/>
        <pt x="0" y="581" on="1"/>
        <pt x="37" y="572" on="0"/>
        <pt x="96" y="545" on="0"/>
        <pt x="117" y="528" on="1"/>
        <pt x="131" y="545" on="0"/>
        <pt x="146" y="585" on="0"/>
        <pt x="146" y="604" on="1"/>
        <pt x="146" y="629" on="0"/>
        <pt x="112" y="674" on="0"/>
        <pt x="68" y="709" on="1"/>
        <pt x="50" y="723" on="0"/>
        <pt x="-6" y="763" on="0"/>
        <pt x="-15" y="771" on="1"/>
        <pt x="-37" y="790" on="0"/>
        <pt x="-54" y="830" on="0"/>
        <pt x="-54" y="862" on="1"/>
        <pt x="-54" y="872" on="0"/>
        <pt x="-52" y="892" on="0"/>
        <pt x="-50" y="902" on="1"/>
        <pt x="-41" y="905" on="0"/>
        <pt x="-18" y="908" on="0"/>
        <pt x="-8" y="907" on="1"/>
        <pt x="-10" y="897" on="0"/>
        <pt x="-11" y="878" on="0"/>
        <pt x="-11" y="869" on="1"/>
        <pt x="-11" y="846" on="0"/>
        <pt x="4" y="813" on="0"/>
        <pt x="21" y="798" on="1"/>
        <pt x="30" y="789" on="0"/>
        <pt x="76" y="758" on="0"/>
        <pt x="88" y="749" on="1"/>
        <pt x="137" y="712" on="0"/>
        <pt x="180" y="646" on="0"/>
        <pt x="180" y="610" on="1"/>
        <pt x="180" y="599" on="0"/>
        <pt x="176" y="575" on="0"/>
        <pt x="172" y="563" on="1"/>
        <pt x="183" y="568" on="0"/>
        <pt x="209" y="577" on="0"/>
        <pt x="224" y="581" on="1"/>
        <pt x="225" y="577" on="0"/>
        <pt x="227" y="567" on="0"/>
        <pt x="227" y="561" on="1"/>
        <pt x="227" y="553" on="0"/>
        <pt x="225" y="540" on="0"/>
        <pt x="224" y="535" on="1"/>
        <pt x="197" y="527" on="0"/>
        <pt x="159" y="506" on="0"/>
      </contour>
    </TTGlyph>
    <TTGlyph name="bn_aumark_reph" xMin="-54" yMin="-51" xMax="311" yMax="971">
      <component glyphName="bn_aumark" x="0" y="0" flags="0x204"/>
      <component glyphName="bn_reph" x="140" y="0" flags="0x4"/>
    </TTGlyph>
    <TTGlyph name="bn_avagraha" xMin="23" yMin="-65" xMax="453" yMax="618">
      <contour>
        <pt x="104" y="460" on="1"/>
        <pt x="104" y="432" on="0"/>
        <pt x="143" y="398" on="0"/>
        <pt x="175" y="398" on="1"/>
        <pt x="204" y="398" on="0"/>
        <pt x="248" y="428" on="0"/>
        <pt x="265" y="460" on="1"/>
        <pt x="243" y="484" on="0"/>
        <pt x="190" y="510" on="0"/>
        <pt x="163" y="510" on="1"/>
        <pt x="135" y="510" on="0"/>
        <pt x="104" y="484" on="0"/>
      </contour>
      <contour>
        <pt x="453" y="-24" on="1"/>
        <pt x="447" y="-33" on="0"/>
        <pt x="432" y="-53" on="0"/>
        <pt x="421" y="-65" on="1"/>
        <pt x="333" y="33" on="0"/>
        <pt x="149" y="157" on="0"/>
        <pt x="43" y="190" on="1"/>
        <pt x="23" y="260" on="1"/>
        <pt x="70" y="242" on="0"/>
        <pt x="153" y="224" on="0"/>
        <pt x="187" y="224" on="1"/>
        <pt x="249" y="224" on="0"/>
        <pt x="317" y="282" on="0"/>
        <pt x="317" y="334" on="1"/>
        <pt x="317" y="357" on="0"/>
        <pt x="304" y="404" on="0"/>
        <pt x="292" y="424" on="1"/>
        <pt x="273" y="391" on="0"/>
        <pt x="216" y="356" on="0"/>
        <pt x="179" y="356" on="1"/>
        <pt x="127" y="356" on="0"/>
        <pt x="59" y="415" on="0"/>
        <pt x="59" y="462" on="1"/>
        <pt x="59" y="503" on="0"/>
        <pt x="113" y="551" on="0"/>
        <pt x="159" y="551" on="1"/>
        <pt x="191" y="551" on="0"/>
        <pt x="255" y="525" on="0"/>
        <pt x="284" y="500" on="1"/>
        <pt x="292" y="526" on="0"/>
        <pt x="304" y="580" on="0"/>
        <pt x="308" y="618" on="1"/>
        <pt x="319" y="618" on="0"/>
        <pt x="338" y="613" on="0"/>
        <pt x="346" y="608" on="1"/>
        <pt x="341" y="566" on="0"/>
        <pt x="326" y="499" on="0"/>
        <pt x="314" y="467" on="1"/>
        <pt x="338" y="436" on="0"/>
        <pt x="365" y="360" on="0"/>
        <pt x="365" y="323" on="1"/>
        <pt x="365" y="253" on="0"/>
        <pt x="274" y="175" on="0"/>
        <pt x="193" y="175" on="1"/>
        <pt x="261" y="138" on="0"/>
        <pt x="392" y="38" on="0"/>
      </contour>
    </TTGlyph>
    <TTGlyph name="bn_b_ba" xMin="-5" yMin="-16" xMax="781" yMax="624">
      <contour>
        <pt x="663" y="556" on="1"/>
        <pt x="600" y="565" on="0"/>
        <pt x="470" y="574" on="0"/>
        <pt x="400" y="574" on="1"/>
        <pt x="397" y="574" on="0"/>
        <pt x="390" y="574" on="0"/>
        <pt x="386" y="574" on="1"/>
        <pt x="374" y="505" on="0"/>
        <pt x="364" y="382" on="0"/>
        <pt x="364" y="295" on="1"/>
        <pt x="411" y="348" on="0"/>
        <pt x="574" y="466" on="0"/>
        <pt x="656" y="504" on="1"/>
        <pt x="656" y="508" on="0"/>
        <pt x="658" y="518" on="0"/>
        <pt x="659" y="528" on="1"/>
        <pt x="661" y="539" on="0"/>
        <pt x="662" y="551" on="0"/>
      </contour>
      <contour>
        <pt x="684" y="291" on="1"/>
        <pt x="684" y="194" on="0"/>
        <pt x="698" y="43" on="0"/>
        <pt x="711" y="-4" on="1"/>
        <pt x="702" y="-10" on="0"/>
        <pt x="674" y="-16" on="0"/>
        <pt x="657" y="-16" on="1"/>
        <pt x="605" y="87" on="0"/>
        <pt x="469" y="208" on="0"/>
        <pt x="383" y="227" on="1"/>
        <pt x="376" y="234" on="0"/>
        <pt x="367" y="246" on="0"/>
        <pt x="364" y="253" on="1"/>
        <pt x="366" y="159" on="0"/>
        <pt x="380" y="35" on="0"/>
        <pt x="391" y="-4" on="1"/>
        <pt x="382" y="-10" on="0"/>
        <pt x="354" y="-16" on="0"/>
        <pt x="337" y="-16" on="1"/>
        <pt x="285" y="87" on="0"/>
        <pt x="149" y="208" on="0"/>
        <pt x="63" y="227" on="1"/>
        <pt x="51" y="239" on="0"/>
        <pt x="38" y="266" on="0"/>
        <pt x="36" y="285" on="1"/>
        <pt x="80" y="339" on="0"/>
        <pt x="247" y="462" on="0"/>
        <pt x="334" y="503" on="1"/>
        <pt x="339" y="538" on="0"/>
        <pt x="342" y="563" on="0"/>
        <pt x="344" y="573" on="1"/>
        <pt x="247" y="571" on="0"/>
        <pt x="74" y="552" on="0"/>
        <pt x="0" y="535" on="1"/>
        <pt x="-2" y="542" on="0"/>
        <pt x="-5" y="555" on="0"/>
        <pt x="-5" y="561" on="1"/>
        <pt x="-5" y="567" on="0"/>
        <pt x="-2" y="577" on="0"/>
        <pt x="0" y="581" on="1"/>
        <pt x="78" y="602" on="0"/>
        <pt x="280" y="624" on="0"/>
        <pt x="399" y="624" on="1"/>
        <pt x="505" y="624" on="0"/>
        <pt x="696" y="602" on="0"/>
        <pt x="777" y="581" on="1"/>
        <pt x="779" y="578" on="0"/>
        <pt x="781" y="567" on="0"/>
        <pt x="781" y="561" on="1"/>
        <pt x="781" y="554" on="0"/>
        <pt x="779" y="540" on="0"/>
        <pt x="777" y="535" on="1"/>
        <pt x="756" y="540" on="0"/>
        <pt x="721" y="546" on="0"/>
        <pt x="705" y="549" on="1"/>
        <pt x="693" y="485" on="0"/>
        <pt x="684" y="372" on="0"/>
      </contour>
      <contour>
        <pt x="642" y="74" on="1"/>
        <pt x="639" y="100" on="0"/>
        <pt x="637" y="162" on="0"/>
        <pt x="637" y="199" on="1"/>
        <pt x="637" y="262" on="0"/>
        <pt x="642" y="381" on="0"/>
        <pt x="648" y="441" on="1"/>
        <pt x="593" y="414" on="0"/>
        <pt x="460" y="318" on="0"/>
        <pt x="416" y="271" on="1"/>
        <pt x="488" y="242" on="0"/>
        <pt x="601" y="143" on="0"/>
      </contour>
      <contour>
        <pt x="322" y="74" on="1"/>
        <pt x="319" y="100" on="0"/>
        <pt x="317" y="162" on="0"/>
        <pt x="317" y="199" on="1"/>
        <pt x="317" y="268" on="0"/>
        <pt x="322" y="386" on="0"/>
        <pt x="327" y="441" on="1"/>
        <pt x="271" y="413" on="0"/>
        <pt x="139" y="317" on="0"/>
        <pt x="96" y="271" on="1"/>
        <pt x="168" y="242" on="0"/>
        <pt x="281" y="143" on="0"/>
      </contour>
    </TTGlyph>
    <TTGlyph name="bn_b_bha" xMin="-5" yMin="-260" xMax="600" yMax="612">
      <contour>
        <pt x="417" y="155" on="1"/>
        <pt x="417" y="166" on="0"/>
        <pt x="417" y="188" on="0"/>
        <pt x="417" y="199" on="1"/>
        <pt x="417" y="280" on="0"/>
        <pt x="426" y="424" on="0"/>
        <pt x="435" y="494" on="1"/>
        <pt x="377" y="469" on="0"/>
        <pt x="246" y="382" on="0"/>
        <pt x="207" y="341" on="1"/>
        <pt x="275" y="313" on="0"/>
        <pt x="381" y="220" on="0"/>
      </contour>
      <contour>
        <pt x="571" y="-75" on="1"/>
        <pt x="571" y="-160" on="0"/>
        <pt x="464" y="-260" on="0"/>
        <pt x="373" y="-260" on="1"/>
        <pt x="255" y="-260" on="0"/>
        <pt x="82" y="-81" on="0"/>
        <pt x="20" y="112" on="1"/>
        <pt x="30" y="118" on="0"/>
        <pt x="51" y="129" on="0"/>
        <pt x="62" y="133" on="1"/>
        <pt x="121" y="-46" on="0"/>
        <pt x="270" y="-214" on="0"/>
        <pt x="373" y="-214" on="1"/>
        <pt x="446" y="-214" on="0"/>
        <pt x="525" y="-136" on="0"/>
        <pt x="525" y="-62" on="1"/>
        <pt x="525" y="-36" on="0"/>
        <pt x="515" y="18" on="0"/>
        <pt x="505" y="43" on="1"/>
        <pt x="451" y="5" on="0"/>
        <pt x="376" y="-26" on="0"/>
        <pt x="339" y="-26" on="1"/>
        <pt x="285" y="-26" on="0"/>
        <pt x="211" y="27" on="0"/>
        <pt x="211" y="67" on="1"/>
        <pt x="211" y="101" on="0"/>
        <pt x="268" y="155" on="0"/>
        <pt x="313" y="168" on="1"/>
        <pt x="325" y="163" on="0"/>
        <pt x="344" y="143" on="0"/>
        <pt x="348" y="130" on="1"/>
        <pt x="303" y="121" on="0"/>
        <pt x="256" y="85" on="0"/>
        <pt x="256" y="60" on="1"/>
        <pt x="256" y="38" on="0"/>
        <pt x="293" y="14" on="0"/>
        <pt x="324" y="14" on="1"/>
        <pt x="348" y="14" on="0"/>
        <pt x="395" y="28" on="0"/>
        <pt x="423" y="43" on="1"/>
        <pt x="422" y="51" on="0"/>
        <pt x="420" y="73" on="0"/>
        <pt x="419" y="91" on="1"/>
        <pt x="371" y="179" on="0"/>
        <pt x="249" y="280" on="0"/>
        <pt x="173" y="297" on="1"/>
        <pt x="161" y="309" on="0"/>
        <pt x="148" y="336" on="0"/>
        <pt x="146" y="355" on="1"/>
        <pt x="185" y="403" on="0"/>
        <pt x="350" y="515" on="0"/>
        <pt x="441" y="556" on="1"/>
        <pt x="408" y="559" on="0"/>
        <pt x="337" y="562" on="0"/>
        <pt x="297" y="562" on="1"/>
        <pt x="218" y="562" on="0"/>
        <pt x="73" y="549" on="0"/>
        <pt x="-1" y="535" on="1"/>
        <pt x="-3" y="539" on="0"/>
        <pt x="-5" y="552" on="0"/>
        <pt x="-5" y="558" on="1"/>
        <pt x="-5" y="564" on="0"/>
        <pt x="-3" y="577" on="0"/>
        <pt x="-1" y="581" on="1"/>
        <pt x="65" y="597" on="0"/>
        <pt x="213" y="612" on="0"/>
        <pt x="297" y="612" on="1"/>
        <pt x="380" y="612" on="0"/>
        <pt x="528" y="597" on="0"/>
        <pt x="595" y="581" on="1"/>
        <pt x="598" y="578" on="0"/>
        <pt x="600" y="567" on="0"/>
        <pt x="600" y="558" on="1"/>
        <pt x="600" y="550" on="0"/>
        <pt x="597" y="539" on="0"/>
        <pt x="595" y="535" on="1"/>
        <pt x="566" y="541" on="0"/>
        <pt x="512" y="549" on="0"/>
        <pt x="485" y="552" on="1"/>
        <pt x="473" y="483" on="0"/>
        <pt x="464" y="367" on="0"/>
        <pt x="464" y="291" on="1"/>
        <pt x="464" y="176" on="0"/>
        <pt x="468" y="102" on="0"/>
        <pt x="473" y="74" on="1"/>
        <pt x="476" y="76" on="0"/>
        <pt x="482" y="80" on="0"/>
        <pt x="489" y="85" on="1"/>
        <pt x="494" y="89" on="0"/>
        <pt x="499" y="92" on="0"/>
        <pt x="501" y="94" on="1"/>
        <pt x="511" y="89" on="0"/>
        <pt x="528" y="78" on="0"/>
        <pt x="534" y="73" on="1"/>
        <pt x="551" y="40" on="0"/>
        <pt x="571" y="-38" on="0"/>
      </contour>
    </TTGlyph>
    <TTGlyph name="bn_b_da" xMin="-5" yMin="-76" xMax="566" yMax="616">
      <contour>
        <pt x="521" y="149" on="1"/>
        <pt x="521" y="99" on="0"/>
        <pt x="534" y="-5" on="0"/>
        <pt x="546" y="-58" on="1"/>
        <pt x="533" y="-64" on="0"/>
        <pt x="509" y="-73" on="0"/>
        <pt x="496" y="-76" on="1"/>
        <pt x="485" y="-31" on="0"/>
        <pt x="473" y="70" on="0"/>
        <pt x="473" y="123" on="1"/>
        <pt x="473" y="178" on="0"/>
        <pt x="486" y="287" on="0"/>
        <pt x="498" y="337" on="1"/>
        <pt x="441" y="297" on="0"/>
        <pt x="332" y="178" on="0"/>
        <pt x="298" y="120" on="1"/>
        <pt x="284" y="122" on="0"/>
        <pt x="255" y="137" on="0"/>
        <pt x="247" y="145" on="1"/>
        <pt x="223" y="216" on="0"/>
        <pt x="130" y="306" on="0"/>
        <pt x="58" y="329" on="1"/>
        <pt x="46" y="340" on="0"/>
        <pt x="32" y="369" on="0"/>
        <pt x="32" y="385" on="1"/>
        <pt x="62" y="413" on="0"/>
        <pt x="204" y="489" on="0"/>
        <pt x="315" y="536" on="1"/>
        <pt x="315" y="548" on="0"/>
        <pt x="315" y="560" on="0"/>
        <pt x="316" y="565" on="1"/>
        <pt x="310" y="566" on="0"/>
        <pt x="294" y="566" on="0"/>
        <pt x="279" y="566" on="1"/>
        <pt x="209" y="566" on="0"/>
        <pt x="69" y="550" on="0"/>
        <pt x="0" y="535" on="1"/>
        <pt x="-2" y="539" on="0"/>
        <pt x="-5" y="552" on="0"/>
        <pt x="-5" y="559" on="1"/>
        <pt x="-5" y="565" on="0"/>
        <pt x="-2" y="577" on="0"/>
        <pt x="0" y="581" on="1"/>
        <pt x="67" y="598" on="0"/>
        <pt x="209" y="616" on="0"/>
        <pt x="280" y="616" on="1"/>
        <pt x="351" y="616" on="0"/>
        <pt x="495" y="598" on="0"/>
        <pt x="561" y="581" on="1"/>
        <pt x="563" y="577" on="0"/>
        <pt x="566" y="565" on="0"/>
        <pt x="566" y="559" on="1"/>
        <pt x="566" y="554" on="0"/>
        <pt x="563" y="540" on="0"/>
        <pt x="561" y="535" on="1"/>
        <pt x="513" y="546" on="0"/>
        <pt x="406" y="561" on="0"/>
        <pt x="351" y="564" on="1"/>
        <pt x="351" y="556" on="0"/>
        <pt x="351" y="540" on="0"/>
        <pt x="351" y="532" on="1"/>
        <pt x="351" y="457" on="0"/>
        <pt x="334" y="298" on="0"/>
        <pt x="318" y="232" on="1"/>
        <pt x="359" y="284" on="0"/>
        <pt x="456" y="372" on="0"/>
        <pt x="509" y="405" on="1"/>
        <pt x="523" y="398" on="0"/>
        <pt x="544" y="377" on="0"/>
        <pt x="553" y="362" on="1"/>
        <pt x="537" y="313" on="0"/>
        <pt x="521" y="206" on="0"/>
      </contour>
      <contour>
        <pt x="89" y="367" on="1"/>
        <pt x="153" y="337" on="0"/>
        <pt x="238" y="248" on="0"/>
        <pt x="260" y="190" on="1"/>
        <pt x="279" y="262" on="0"/>
        <pt x="305" y="411" on="0"/>
        <pt x="311" y="482" on="1"/>
        <pt x="217" y="441" on="0"/>
        <pt x="119" y="389" on="0"/>
      </contour>
    </TTGlyph>
    <TTGlyph name="bn_b_da_ukaar" xMin="-5" yMin="-16" xMax="641" yMax="618">
      <contour>
        <pt x="322" y="74" on="1"/>
        <pt x="319" y="100" on="0"/>
        <pt x="317" y="162" on="0"/>
        <pt x="317" y="199" on="1"/>
        <pt x="317" y="265" on="0"/>
        <pt x="323" y="384" on="0"/>
        <pt x="329" y="441" on="1"/>
        <pt x="273" y="415" on="0"/>
        <pt x="140" y="318" on="0"/>
        <pt x="96" y="271" on="1"/>
        <pt x="168" y="242" on="0"/>
        <pt x="281" y="143" on="0"/>
      </contour>
      <contour>
        <pt x="364" y="248" on="1"/>
        <pt x="366" y="163" on="0"/>
        <pt x="380" y="37" on="0"/>
        <pt x="391" y="-4" on="1"/>
        <pt x="382" y="-10" on="0"/>
        <pt x="354" y="-16" on="0"/>
        <pt x="337" y="-16" on="1"/>
        <pt x="285" y="87" on="0"/>
        <pt x="149" y="208" on="0"/>
        <pt x="63" y="227" on="1"/>
        <pt x="51" y="239" on="0"/>
        <pt x="38" y="266" on="0"/>
        <pt x="36" y="285" on="1"/>
        <pt x="80" y="339" on="0"/>
        <pt x="249" y="463" on="0"/>
        <pt x="336" y="504" on="1"/>
        <pt x="340" y="530" on="0"/>
        <pt x="344" y="556" on="0"/>
        <pt x="346" y="567" on="1"/>
        <pt x="337" y="568" on="0"/>
        <pt x="317" y="568" on="0"/>
        <pt x="297" y="568" on="1"/>
        <pt x="227" y="568" on="0"/>
        <pt x="74" y="551" on="0"/>
        <pt x="0" y="535" on="1"/>
        <pt x="-2" y="540" on="0"/>
        <pt x="-5" y="553" on="0"/>
        <pt x="-5" y="560" on="1"/>
        <pt x="-5" y="565" on="0"/>
        <pt x="-2" y="577" on="0"/>
        <pt x="0" y="581" on="1"/>
        <pt x="69" y="598" on="0"/>
        <pt x="226" y="618" on="0"/>
        <pt x="298" y="618" on="1"/>
        <pt x="386" y="618" on="0"/>
        <pt x="568" y="598" on="0"/>
        <pt x="636" y="581" on="1"/>
        <pt x="638" y="577" on="0"/>
        <pt x="641" y="565" on="0"/>
        <pt x="641" y="559" on="1"/>
        <pt x="641" y="554" on="0"/>
        <pt x="638" y="540" on="0"/>
        <pt x="636" y="535" on="1"/>
        <pt x="587" y="546" on="0"/>
        <pt x="457" y="562" on="0"/>
        <pt x="388" y="566" on="1"/>
        <pt x="375" y="497" on="0"/>
        <pt x="365" y="387" on="0"/>
        <pt x="364" y="319" on="1"/>
        <pt x="381" y="270" on="0"/>
        <pt x="443" y="214" on="0"/>
        <pt x="479" y="214" on="1"/>
        <pt x="517" y="214" on="0"/>
        <pt x="567" y="275" on="0"/>
        <pt x="567" y="323" on="1"/>
        <pt x="567" y="360" on="0"/>
        <pt x="537" y="405" on="0"/>
        <pt x="513" y="405" on="1"/>
        <pt x="492" y="405" on="0"/>
        <pt x="461" y="367" on="0"/>
        <pt x="455" y="334" on="1"/>
        <pt x="446" y="343" on="0"/>
        <pt x="429" y="374" on="0"/>
        <pt x="426" y="388" on="1"/>
        <pt x="439" y="418" on="0"/>
        <pt x="483" y="452" on="0"/>
        <pt x="511" y="452" on="1"/>
        <pt x="554" y="452" on="0"/>
        <pt x="611" y="377" on="0"/>
        <pt x="611" y="318" on="1"/>
        <pt x="611" y="252" on="0"/>
        <pt x="541" y="165" on="0"/>
        <pt x="486" y="165" on="1"/>
        <pt x="449" y="165" on="0"/>
        <pt x="386" y="208" on="0"/>
      </contour>
    </TTGlyph>
    <TTGlyph name="bn_b_da_uukaar" xMin="-5" yMin="-16" xMax="641" yMax="618">
      <contour>
        <pt x="322" y="74" on="1"/>
        <pt x="319" y="100" on="0"/>
        <pt x="317" y="162" on="0"/>
        <pt x="317" y="199" on="1"/>
        <pt x="317" y="265" on="0"/>
        <pt x="323" y="384" on="0"/>
        <pt x="329" y="441" on="1"/>
        <pt x="273" y="415" on="0"/>
        <pt x="140" y="318" on="0"/>
        <pt x="96" y="271" on="1"/>
        <pt x="168" y="242" on="0"/>
        <pt x="281" y="143" on="0"/>
      </contour>
      <contour>
        <pt x="364" y="291" on="1"/>
        <pt x="364" y="194" on="0"/>
        <pt x="378" y="43" on="0"/>
        <pt x="391" y="-4" on="1"/>
        <pt x="382" y="-10" on="0"/>
        <pt x="354" y="-16" on="0"/>
        <pt x="337" y="-16" on="1"/>
        <pt x="285" y="87" on="0"/>
        <pt x="149" y="208" on="0"/>
        <pt x="63" y="227" on="1"/>
        <pt x="51" y="239" on="0"/>
        <pt x="38" y="266" on="0"/>
        <pt x="36" y="285" on="1"/>
        <pt x="80" y="339" on="0"/>
        <pt x="249" y="463" on="0"/>
        <pt x="336" y="504" on="1"/>
        <pt x="340" y="530" on="0"/>
        <pt x="344" y="556" on="0"/>
        <pt x="346" y="567" on="1"/>
        <pt x="337" y="568" on="0"/>
        <pt x="317" y="568" on="0"/>
        <pt x="297" y="568" on="1"/>
        <pt x="227" y="568" on="0"/>
        <pt x="74" y="551" on="0"/>
        <pt x="0" y="535" on="1"/>
        <pt x="-2" y="540" on="0"/>
        <pt x="-5" y="553" on="0"/>
        <pt x="-5" y="560" on="1"/>
        <pt x="-5" y="565" on="0"/>
        <pt x="-2" y="577" on="0"/>
        <pt x="0" y="581" on="1"/>
        <pt x="69" y="598" on="0"/>
        <pt x="226" y="618" on="0"/>
        <pt x="298" y="618" on="1"/>
        <pt x="386" y="618" on="0"/>
        <pt x="568" y="598" on="0"/>
        <pt x="636" y="581" on="1"/>
        <pt x="638" y="577" on="0"/>
        <pt x="641" y="565" on="0"/>
        <pt x="641" y="559" on="1"/>
        <pt x="641" y="554" on="0"/>
        <pt x="638" y="540" on="0"/>
        <pt x="636" y="535" on="1"/>
        <pt x="587" y="546" on="0"/>
        <pt x="457" y="562" on="0"/>
        <pt x="388" y="566" on="1"/>
        <pt x="381" y="526" on="0"/>
        <pt x="371" y="455" on="0"/>
        <pt x="368" y="418" on="1"/>
        <pt x="419" y="441" on="0"/>
        <pt x="489" y="469" on="0"/>
        <pt x="519" y="479" on="1"/>
        <pt x="539" y="438" on="1"/>
        <pt x="532" y="405" on="0"/>
        <pt x="525" y="342" on="0"/>
        <pt x="525" y="312" on="1"/>
        <pt x="525" y="261" on="0"/>
        <pt x="544" y="166" on="0"/>
        <pt x="562" y="123" on="1"/>
        <pt x="554" y="118" on="0"/>
        <pt x="527" y="112" on="0"/>
        <pt x="508" y="112" on="1"/>
        <pt x="495" y="158" on="0"/>
        <pt x="481" y="253" on="0"/>
        <pt x="481" y="302" on="1"/>
        <pt x="481" y="332" on="0"/>
        <pt x="486" y="390" on="0"/>
        <pt x="491" y="418" on="1"/>
        <pt x="460" y="405" on="0"/>
        <pt x="397" y="377" on="0"/>
        <pt x="365" y="361" on="1"/>
        <pt x="364" y="349" on="0"/>
        <pt x="364" y="321" on="0"/>
      </contour>
    </TTGlyph>
    <TTGlyph name="bn_b_dha" xMin="-5" yMin="-113" xMax="566" yMax="616">
      <contour>
        <pt x="340" y="318" on="1"/>
        <pt x="340" y="331" on="0"/>
        <pt x="340" y="356" on="0"/>
        <pt x="340" y="368" on="1"/>
        <pt x="340" y="387" on="0"/>
        <pt x="339" y="432" on="0"/>
        <pt x="338" y="469" on="1"/>
        <pt x="284" y="446" on="0"/>
        <pt x="146" y="350" on="0"/>
        <pt x="103" y="304" on="1"/>
        <pt x="166" y="284" on="0"/>
        <pt x="206" y="265" on="0"/>
        <pt x="222" y="254" on="1"/>
        <pt x="251" y="272" on="0"/>
        <pt x="311" y="305" on="0"/>
      </contour>
      <contour>
        <pt x="489" y="-101" on="1"/>
        <pt x="476" y="-40" on="0"/>
        <pt x="462" y="90" on="0"/>
        <pt x="462" y="155" on="1"/>
        <pt x="462" y="200" on="0"/>
        <pt x="467" y="282" on="0"/>
        <pt x="473" y="321" on="1"/>
        <pt x="450" y="312" on="0"/>
        <pt x="406" y="293" on="0"/>
        <pt x="384" y="282" on="1"/>
        <pt x="379" y="156" on="0"/>
        <pt x="351" y="-59" on="0"/>
        <pt x="331" y="-113" on="1"/>
        <pt x="319" y="-113" on="0"/>
        <pt x="291" y="-109" on="0"/>
        <pt x="278" y="-105" on="1"/>
        <pt x="251" y="-27" on="0"/>
        <pt x="163" y="69" on="0"/>
        <pt x="99" y="89" on="1"/>
        <pt x="87" y="100" on="0"/>
        <pt x="73" y="129" on="0"/>
        <pt x="73" y="145" on="1"/>
        <pt x="92" y="163" on="0"/>
        <pt x="150" y="207" on="0"/>
        <pt x="185" y="230" on="1"/>
        <pt x="162" y="242" on="0"/>
        <pt x="75" y="260" on="0"/>
        <pt x="69" y="262" on="1"/>
        <pt x="57" y="274" on="0"/>
        <pt x="44" y="300" on="0"/>
        <pt x="42" y="319" on="1"/>
        <pt x="85" y="371" on="0"/>
        <pt x="250" y="488" on="0"/>
        <pt x="333" y="526" on="1"/>
        <pt x="332" y="537" on="0"/>
        <pt x="329" y="556" on="0"/>
        <pt x="327" y="565" on="1"/>
        <pt x="319" y="566" on="0"/>
        <pt x="299" y="566" on="0"/>
        <pt x="279" y="566" on="1"/>
        <pt x="209" y="566" on="0"/>
        <pt x="69" y="550" on="0"/>
        <pt x="0" y="535" on="1"/>
        <pt x="-2" y="539" on="0"/>
        <pt x="-5" y="552" on="0"/>
        <pt x="-5" y="559" on="1"/>
        <pt x="-5" y="565" on="0"/>
        <pt x="-2" y="577" on="0"/>
        <pt x="0" y="581" on="1"/>
        <pt x="67" y="598" on="0"/>
        <pt x="209" y="616" on="0"/>
        <pt x="280" y="616" on="1"/>
        <pt x="351" y="616" on="0"/>
        <pt x="495" y="598" on="0"/>
        <pt x="561" y="581" on="1"/>
        <pt x="563" y="577" on="0"/>
        <pt x="566" y="565" on="0"/>
        <pt x="566" y="559" on="1"/>
        <pt x="566" y="554" on="0"/>
        <pt x="563" y="540" on="0"/>
        <pt x="561" y="535" on="1"/>
        <pt x="519" y="545" on="0"/>
        <pt x="421" y="559" on="0"/>
        <pt x="369" y="563" on="1"/>
        <pt x="376" y="526" on="0"/>
        <pt x="386" y="411" on="0"/>
        <pt x="386" y="362" on="1"/>
        <pt x="386" y="356" on="0"/>
        <pt x="386" y="344" on="0"/>
        <pt x="386" y="338" on="1"/>
        <pt x="413" y="350" on="0"/>
        <pt x="467" y="371" on="0"/>
        <pt x="494" y="379" on="1"/>
        <pt x="520" y="338" on="1"/>
        <pt x="513" y="295" on="0"/>
        <pt x="506" y="209" on="0"/>
        <pt x="506" y="168" on="1"/>
        <pt x="506" y="100" on="0"/>
        <pt x="525" y="-28" on="0"/>
        <pt x="543" y="-86" on="1"/>
        <pt x="535" y="-93" on="0"/>
        <pt x="506" y="-101" on="0"/>
      </contour>
      <contour>
        <pt x="129" y="128" on="1"/>
        <pt x="187" y="99" on="0"/>
        <pt x="269" y="3" on="0"/>
        <pt x="292" y="-63" on="1"/>
        <pt x="311" y="1" on="0"/>
        <pt x="334" y="165" on="0"/>
        <pt x="338" y="264" on="1"/>
        <pt x="287" y="237" on="0"/>
        <pt x="169" y="160" on="0"/>
      </contour>
    </TTGlyph>
    <TTGlyph name="bn_b_ja" xMin="-5" yMin="-10" xMax="682" yMax="619">
      <contour>
        <pt x="180" y="368" on="1"/>
        <pt x="180" y="372" on="1"/>
        <pt x="180" y="398" on="0"/>
        <pt x="199" y="464" on="0"/>
        <pt x="216" y="501" on="1"/>
        <pt x="136" y="467" on="0"/>
        <pt x="83" y="442" on="0"/>
        <pt x="65" y="430" on="1"/>
        <pt x="101" y="419" on="0"/>
        <pt x="156" y="389" on="0"/>
      </contour>
      <contour>
        <pt x="626" y="2" on="1"/>
        <pt x="615" y="-3" on="0"/>
        <pt x="582" y="-10" on="0"/>
        <pt x="568" y="-10" on="1"/>
        <pt x="556" y="35" on="0"/>
        <pt x="543" y="140" on="0"/>
        <pt x="543" y="196" on="1"/>
        <pt x="543" y="257" on="0"/>
        <pt x="558" y="370" on="0"/>
        <pt x="572" y="418" on="1"/>
        <pt x="556" y="412" on="0"/>
        <pt x="519" y="406" on="0"/>
        <pt x="500" y="406" on="1"/>
        <pt x="436" y="406" on="0"/>
        <pt x="340" y="487" on="0"/>
        <pt x="310" y="564" on="1"/>
        <pt x="275" y="519" on="0"/>
        <pt x="226" y="404" on="0"/>
        <pt x="226" y="364" on="1"/>
        <pt x="226" y="335" on="0"/>
        <pt x="253" y="305" on="0"/>
        <pt x="278" y="305" on="1"/>
        <pt x="306" y="305" on="0"/>
        <pt x="383" y="346" on="0"/>
        <pt x="419" y="381" on="1"/>
        <pt x="427" y="377" on="0"/>
        <pt x="445" y="362" on="0"/>
        <pt x="452" y="354" on="1"/>
        <pt x="463" y="318" on="0"/>
        <pt x="474" y="240" on="0"/>
        <pt x="474" y="205" on="1"/>
        <pt x="474" y="108" on="0"/>
        <pt x="386" y="-3" on="0"/>
        <pt x="309" y="-3" on="1"/>
        <pt x="216" y="-3" on="0"/>
        <pt x="85" y="150" on="0"/>
        <pt x="49" y="300" on="1"/>
        <pt x="56" y="305" on="0"/>
        <pt x="75" y="316" on="0"/>
        <pt x="90" y="322" on="1"/>
        <pt x="123" y="185" on="0"/>
        <pt x="231" y="51" on="0"/>
        <pt x="309" y="51" on="1"/>
        <pt x="370" y="51" on="0"/>
        <pt x="431" y="138" on="0"/>
        <pt x="431" y="223" on="1"/>
        <pt x="431" y="246" on="0"/>
        <pt x="427" y="296" on="0"/>
        <pt x="423" y="320" on="1"/>
        <pt x="386" y="288" on="0"/>
        <pt x="319" y="256" on="0"/>
        <pt x="290" y="256" on="1"/>
        <pt x="266" y="256" on="0"/>
        <pt x="220" y="278" on="0"/>
        <pt x="205" y="297" on="1"/>
        <pt x="169" y="337" on="0"/>
        <pt x="93" y="378" on="0"/>
        <pt x="29" y="389" on="1"/>
        <pt x="19" y="402" on="0"/>
        <pt x="10" y="429" on="0"/>
        <pt x="10" y="445" on="1"/>
        <pt x="29" y="464" on="0"/>
        <pt x="114" y="510" on="0"/>
        <pt x="251" y="567" on="1"/>
        <pt x="181" y="563" on="0"/>
        <pt x="49" y="546" on="0"/>
        <pt x="0" y="535" on="1"/>
        <pt x="-2" y="542" on="0"/>
        <pt x="-5" y="555" on="0"/>
        <pt x="-5" y="561" on="1"/>
        <pt x="-5" y="567" on="0"/>
        <pt x="-2" y="577" on="0"/>
        <pt x="0" y="581" on="1"/>
        <pt x="66" y="598" on="0"/>
        <pt x="254" y="619" on="0"/>
        <pt x="341" y="619" on="1"/>
        <pt x="428" y="619" on="0"/>
        <pt x="612" y="598" on="0"/>
        <pt x="678" y="581" on="1"/>
        <pt x="680" y="578" on="0"/>
        <pt x="682" y="567" on="0"/>
        <pt x="682" y="561" on="1"/>
        <pt x="682" y="554" on="0"/>
        <pt x="680" y="540" on="0"/>
        <pt x="678" y="535" on="1"/>
        <pt x="600" y="550" on="0"/>
        <pt x="428" y="568" on="0"/>
        <pt x="352" y="569" on="1"/>
        <pt x="379" y="507" on="0"/>
        <pt x="444" y="456" on="0"/>
        <pt x="493" y="456" on="1"/>
        <pt x="519" y="456" on="0"/>
        <pt x="570" y="469" on="0"/>
        <pt x="593" y="482" on="1"/>
        <pt x="604" y="474" on="0"/>
        <pt x="621" y="448" on="0"/>
        <pt x="625" y="434" on="1"/>
        <pt x="609" y="389" on="0"/>
        <pt x="594" y="288" on="0"/>
        <pt x="594" y="233" on="1"/>
        <pt x="594" y="176" on="0"/>
        <pt x="610" y="60" on="0"/>
      </contour>
    </TTGlyph>
    <TTGlyph name="bn_b_la" xMin="-10" yMin="-237" xMax="461" yMax="611">
      <contour>
        <pt x="320" y="87" on="1"/>
        <pt x="319" y="106" on="0"/>
        <pt x="319" y="152" on="0"/>
        <pt x="319" y="203" on="1"/>
        <pt x="319" y="273" on="0"/>
        <pt x="323" y="386" on="0"/>
        <pt x="327" y="439" on="1"/>
        <pt x="273" y="413" on="0"/>
        <pt x="151" y="325" on="0"/>
        <pt x="112" y="283" on="1"/>
        <pt x="188" y="250" on="0"/>
        <pt x="293" y="151" on="0"/>
      </contour>
      <contour>
        <pt x="185" y="-175" on="1"/>
        <pt x="185" y="-189" on="0"/>
        <pt x="176" y="-222" on="0"/>
        <pt x="168" y="-234" on="1"/>
        <pt x="95" y="-237" on="0"/>
        <pt x="-10" y="-148" on="0"/>
        <pt x="-10" y="-81" on="1"/>
        <pt x="-10" y="-26" on="0"/>
        <pt x="46" y="44" on="0"/>
        <pt x="90" y="44" on="1"/>
        <pt x="115" y="44" on="0"/>
        <pt x="161" y="14" on="0"/>
        <pt x="183" y="-17" on="1"/>
        <pt x="191" y="11" on="0"/>
        <pt x="227" y="44" on="0"/>
        <pt x="250" y="44" on="1"/>
        <pt x="273" y="44" on="0"/>
        <pt x="310" y="13" on="0"/>
        <pt x="323" y="-18" on="1"/>
        <pt x="323" y="-18" on="1"/>
        <pt x="302" y="81" on="0"/>
        <pt x="171" y="217" on="0"/>
        <pt x="79" y="242" on="1"/>
        <pt x="67" y="254" on="0"/>
        <pt x="54" y="280" on="0"/>
        <pt x="52" y="299" on="1"/>
        <pt x="93" y="349" on="0"/>
        <pt x="249" y="462" on="0"/>
        <pt x="331" y="501" on="1"/>
        <pt x="333" y="523" on="0"/>
        <pt x="335" y="546" on="0"/>
        <pt x="336" y="555" on="1"/>
        <pt x="312" y="558" on="0"/>
        <pt x="263" y="561" on="0"/>
        <pt x="239" y="561" on="1"/>
        <pt x="184" y="561" on="0"/>
        <pt x="54" y="547" on="0"/>
        <pt x="0" y="535" on="1"/>
        <pt x="-3" y="540" on="0"/>
        <pt x="-5" y="552" on="0"/>
        <pt x="-5" y="560" on="1"/>
        <pt x="-5" y="566" on="0"/>
        <pt x="-2" y="577" on="0"/>
        <pt x="0" y="581" on="1"/>
        <pt x="48" y="594" on="0"/>
        <pt x="184" y="611" on="0"/>
        <pt x="243" y="611" on="1"/>
        <pt x="294" y="611" on="0"/>
        <pt x="411" y="594" on="0"/>
        <pt x="457" y="581" on="1"/>
        <pt x="459" y="578" on="0"/>
        <pt x="461" y="567" on="0"/>
        <pt x="461" y="561" on="1"/>
        <pt x="461" y="554" on="0"/>
        <pt x="459" y="541" on="0"/>
        <pt x="457" y="535" on="1"/>
        <pt x="441" y="538" on="0"/>
        <pt x="403" y="546" on="0"/>
        <pt x="378" y="550" on="1"/>
        <pt x="372" y="483" on="0"/>
        <pt x="367" y="366" on="0"/>
        <pt x="367" y="283" on="1"/>
        <pt x="367" y="83" on="0"/>
        <pt x="379" y="-144" on="0"/>
        <pt x="391" y="-215" on="1"/>
        <pt x="381" y="-220" on="0"/>
        <pt x="356" y="-224" on="0"/>
        <pt x="338" y="-224" on="1"/>
        <pt x="336" y="-208" on="0"/>
        <pt x="333" y="-179" on="0"/>
        <pt x="332" y="-165" on="1"/>
        <pt x="322" y="-86" on="0"/>
        <pt x="284" y="-7" on="0"/>
        <pt x="255" y="-7" on="1"/>
        <pt x="239" y="-7" on="0"/>
        <pt x="217" y="-32" on="0"/>
        <pt x="217" y="-52" on="1"/>
        <pt x="217" y="-54" on="0"/>
        <pt x="218" y="-60" on="0"/>
        <pt x="219" y="-65" on="1"/>
        <pt x="237" y="-96" on="1"/>
        <pt x="228" y="-103" on="0"/>
        <pt x="203" y="-114" on="0"/>
        <pt x="189" y="-118" on="1"/>
        <pt x="165" y="-75" on="1"/>
        <pt x="146" y="-43" on="0"/>
        <pt x="108" y="-11" on="0"/>
        <pt x="88" y="-11" on="1"/>
        <pt x="62" y="-11" on="0"/>
        <pt x="31" y="-54" on="0"/>
        <pt x="31" y="-90" on="1"/>
        <pt x="31" y="-130" on="0"/>
        <pt x="95" y="-178" on="0"/>
        <pt x="148" y="-178" on="1"/>
        <pt x="156" y="-178" on="0"/>
        <pt x="174" y="-177" on="0"/>
      </contour>
    </TTGlyph>
    <TTGlyph name="bn_b_ra" xMin="-15" yMin="-224" xMax="461" yMax="611">
      <contour>
        <pt x="320" y="87" on="1"/>
        <pt x="319" y="106" on="0"/>
        <pt x="319" y="152" on="0"/>
        <pt x="319" y="203" on="1"/>
        <pt x="319" y="273" on="0"/>
        <pt x="323" y="386" on="0"/>
        <pt x="327" y="439" on="1"/>
        <pt x="273" y="413" on="0"/>
        <pt x="151" y="325" on="0"/>
        <pt x="112" y="283" on="1"/>
        <pt x="188" y="250" on="0"/>
        <pt x="293" y="151" on="0"/>
      </contour>
      <contour>
        <pt x="391" y="-215" on="1"/>
        <pt x="381" y="-220" on="0"/>
        <pt x="356" y="-224" on="0"/>
        <pt x="338" y="-224" on="1"/>
        <pt x="336" y="-222" on="0"/>
        <pt x="318" y="-200" on="0"/>
        <pt x="311" y="-194" on="1"/>
        <pt x="303" y="-186" on="0"/>
        <pt x="287" y="-175" on="0"/>
        <pt x="277" y="-172" on="1"/>
        <pt x="268" y="-168" on="0"/>
        <pt x="248" y="-165" on="0"/>
        <pt x="237" y="-165" on="1"/>
        <pt x="225" y="-165" on="0"/>
        <pt x="196" y="-167" on="0"/>
        <pt x="168" y="-171" on="1"/>
        <pt x="139" y="-175" on="0"/>
        <pt x="110" y="-177" on="0"/>
        <pt x="97" y="-177" on="1"/>
        <pt x="46" y="-177" on="0"/>
        <pt x="-15" y="-116" on="0"/>
        <pt x="-15" y="-65" on="1"/>
        <pt x="-15" y="-44" on="0"/>
        <pt x="-2" y="4" on="0"/>
        <pt x="15" y="38" on="1"/>
        <pt x="27" y="37" on="0"/>
        <pt x="47" y="30" on="0"/>
        <pt x="55" y="22" on="1"/>
        <pt x="44" y="3" on="0"/>
        <pt x="32" y="-42" on="0"/>
        <pt x="32" y="-61" on="1"/>
        <pt x="32" y="-93" on="0"/>
        <pt x="69" y="-128" on="0"/>
        <pt x="103" y="-128" on="1"/>
        <pt x="113" y="-128" on="0"/>
        <pt x="136" y="-126" on="0"/>
        <pt x="160" y="-123" on="1"/>
        <pt x="188" y="-119" on="0"/>
        <pt x="219" y="-116" on="0"/>
        <pt x="233" y="-116" on="1"/>
        <pt x="265" y="-116" on="0"/>
        <pt x="313" y="-138" on="0"/>
        <pt x="332" y="-162" on="1"/>
        <pt x="329" y="-134" on="0"/>
        <pt x="324" y="-63" on="0"/>
        <pt x="323" y="-18" on="1"/>
        <pt x="302" y="81" on="0"/>
        <pt x="171" y="217" on="0"/>
        <pt x="79" y="242" on="1"/>
        <pt x="67" y="254" on="0"/>
        <pt x="54" y="280" on="0"/>
        <pt x="52" y="299" on="1"/>
        <pt x="93" y="349" on="0"/>
        <pt x="249" y="462" on="0"/>
        <pt x="331" y="501" on="1"/>
        <pt x="333" y="523" on="0"/>
        <pt x="335" y="546" on="0"/>
        <pt x="336" y="555" on="1"/>
        <pt x="312" y="558" on="0"/>
        <pt x="263" y="561" on="0"/>
        <pt x="239" y="561" on="1"/>
        <pt x="184" y="561" on="0"/>
        <pt x="54" y="547" on="0"/>
        <pt x="0" y="535" on="1"/>
        <pt x="-3" y="540" on="0"/>
        <pt x="-5" y="552" on="0"/>
        <pt x="-5" y="560" on="1"/>
        <pt x="-5" y="566" on="0"/>
        <pt x="-2" y="577" on="0"/>
        <pt x="0" y="581" on="1"/>
        <pt x="48" y="594" on="0"/>
        <pt x="184" y="611" on="0"/>
        <pt x="243" y="611" on="1"/>
        <pt x="294" y="611" on="0"/>
        <pt x="411" y="594" on="0"/>
        <pt x="457" y="581" on="1"/>
        <pt x="459" y="578" on="0"/>
        <pt x="461" y="567" on="0"/>
        <pt x="461" y="561" on="1"/>
        <pt x="461" y="554" on="0"/>
        <pt x="459" y="541" on="0"/>
        <pt x="457" y="535" on="1"/>
        <pt x="441" y="538" on="0"/>
        <pt x="403" y="546" on="0"/>
        <pt x="378" y="550" on="1"/>
        <pt x="372" y="483" on="0"/>
        <pt x="367" y="366" on="0"/>
        <pt x="367" y="283" on="1"/>
        <pt x="367" y="83" on="0"/>
        <pt x="379" y="-144" on="0"/>
      </contour>
    </TTGlyph>
</ttFont>
